<mxfile host="app.diagrams.net" agent="Mozilla/5.0 (X11; Ubuntu; Linux x86_64; rv:135.0) Gecko/20100101 Firefox/135.0" version="26.1.0">
  <diagram name="Page-1" id="wKB-JcQAzFeGRUcxNG5H">
    <mxGraphModel dx="2443" dy="2365" grid="0" gridSize="10" guides="1" tooltips="1" connect="1" arrows="1" fold="1" page="1" pageScale="1" pageWidth="827" pageHeight="1169" math="0" shadow="0">
      <root>
        <mxCell id="0" />
        <mxCell id="1" parent="0" />
        <mxCell id="SIL7Wq156Bd5Dtq3TkI6-252" value="" style="group" vertex="1" connectable="0" parent="1">
          <mxGeometry x="25" y="40" width="1392" height="874" as="geometry" />
        </mxCell>
        <mxCell id="SIL7Wq156Bd5Dtq3TkI6-162" value="" style="group" vertex="1" connectable="0" parent="SIL7Wq156Bd5Dtq3TkI6-252">
          <mxGeometry x="1" width="1391" height="420" as="geometry" />
        </mxCell>
        <mxCell id="SIL7Wq156Bd5Dtq3TkI6-69" value="" style="rounded=1;whiteSpace=wrap;html=1;fillColor=none;" vertex="1" parent="SIL7Wq156Bd5Dtq3TkI6-162">
          <mxGeometry x="340" width="320" height="325" as="geometry" />
        </mxCell>
        <mxCell id="SIL7Wq156Bd5Dtq3TkI6-64" value="" style="rounded=1;whiteSpace=wrap;html=1;fillColor=none;" vertex="1" parent="SIL7Wq156Bd5Dtq3TkI6-162">
          <mxGeometry width="320" height="420" as="geometry" />
        </mxCell>
        <mxCell id="SIL7Wq156Bd5Dtq3TkI6-23" style="edgeStyle=orthogonalEdgeStyle;rounded=0;orthogonalLoop=1;jettySize=auto;html=1;entryX=0;entryY=0.5;entryDx=0;entryDy=0;" edge="1" parent="SIL7Wq156Bd5Dtq3TkI6-162" source="SIL7Wq156Bd5Dtq3TkI6-4" target="SIL7Wq156Bd5Dtq3TkI6-20">
          <mxGeometry relative="1" as="geometry" />
        </mxCell>
        <mxCell id="SIL7Wq156Bd5Dtq3TkI6-32" value="No" style="edgeLabel;html=1;align=center;verticalAlign=middle;resizable=0;points=[];" vertex="1" connectable="0" parent="SIL7Wq156Bd5Dtq3TkI6-23">
          <mxGeometry x="0.0254" y="-1" relative="1" as="geometry">
            <mxPoint x="-3" y="-1" as="offset" />
          </mxGeometry>
        </mxCell>
        <mxCell id="SIL7Wq156Bd5Dtq3TkI6-25" style="edgeStyle=orthogonalEdgeStyle;rounded=0;orthogonalLoop=1;jettySize=auto;html=1;entryX=0.5;entryY=0;entryDx=0;entryDy=0;" edge="1" parent="SIL7Wq156Bd5Dtq3TkI6-162" source="SIL7Wq156Bd5Dtq3TkI6-4" target="SIL7Wq156Bd5Dtq3TkI6-5">
          <mxGeometry relative="1" as="geometry" />
        </mxCell>
        <mxCell id="SIL7Wq156Bd5Dtq3TkI6-33" value="&lt;div&gt;Yes&lt;/div&gt;" style="edgeLabel;html=1;align=center;verticalAlign=middle;resizable=0;points=[];" vertex="1" connectable="0" parent="SIL7Wq156Bd5Dtq3TkI6-25">
          <mxGeometry x="0.0344" y="-2" relative="1" as="geometry">
            <mxPoint x="2" y="-1" as="offset" />
          </mxGeometry>
        </mxCell>
        <mxCell id="SIL7Wq156Bd5Dtq3TkI6-4" value="Did you guess your partner correctly?" style="rounded=1;whiteSpace=wrap;html=1;" vertex="1" parent="SIL7Wq156Bd5Dtq3TkI6-162">
          <mxGeometry x="20" y="40" width="120" height="60" as="geometry" />
        </mxCell>
        <mxCell id="SIL7Wq156Bd5Dtq3TkI6-26" style="edgeStyle=orthogonalEdgeStyle;rounded=0;orthogonalLoop=1;jettySize=auto;html=1;entryX=0;entryY=0.5;entryDx=0;entryDy=0;" edge="1" parent="SIL7Wq156Bd5Dtq3TkI6-162" source="SIL7Wq156Bd5Dtq3TkI6-5" target="SIL7Wq156Bd5Dtq3TkI6-21">
          <mxGeometry relative="1" as="geometry" />
        </mxCell>
        <mxCell id="SIL7Wq156Bd5Dtq3TkI6-34" value="&lt;div&gt;No&lt;/div&gt;" style="edgeLabel;html=1;align=center;verticalAlign=middle;resizable=0;points=[];" vertex="1" connectable="0" parent="SIL7Wq156Bd5Dtq3TkI6-26">
          <mxGeometry x="0.1833" y="1" relative="1" as="geometry">
            <mxPoint x="-6" y="1" as="offset" />
          </mxGeometry>
        </mxCell>
        <mxCell id="SIL7Wq156Bd5Dtq3TkI6-27" style="edgeStyle=orthogonalEdgeStyle;rounded=0;orthogonalLoop=1;jettySize=auto;html=1;entryX=0.5;entryY=0;entryDx=0;entryDy=0;" edge="1" parent="SIL7Wq156Bd5Dtq3TkI6-162" source="SIL7Wq156Bd5Dtq3TkI6-5" target="SIL7Wq156Bd5Dtq3TkI6-6">
          <mxGeometry relative="1" as="geometry" />
        </mxCell>
        <mxCell id="SIL7Wq156Bd5Dtq3TkI6-35" value="Yes" style="edgeLabel;html=1;align=center;verticalAlign=middle;resizable=0;points=[];" vertex="1" connectable="0" parent="SIL7Wq156Bd5Dtq3TkI6-27">
          <mxGeometry x="0.0414" y="-1" relative="1" as="geometry">
            <mxPoint x="1" y="-1" as="offset" />
          </mxGeometry>
        </mxCell>
        <mxCell id="SIL7Wq156Bd5Dtq3TkI6-5" value="Did they guess you correctly?" style="rounded=1;whiteSpace=wrap;html=1;" vertex="1" parent="SIL7Wq156Bd5Dtq3TkI6-162">
          <mxGeometry x="20" y="140" width="120" height="60" as="geometry" />
        </mxCell>
        <mxCell id="SIL7Wq156Bd5Dtq3TkI6-28" style="edgeStyle=orthogonalEdgeStyle;rounded=0;orthogonalLoop=1;jettySize=auto;html=1;entryX=0;entryY=0.5;entryDx=0;entryDy=0;" edge="1" parent="SIL7Wq156Bd5Dtq3TkI6-162" source="SIL7Wq156Bd5Dtq3TkI6-6" target="SIL7Wq156Bd5Dtq3TkI6-8">
          <mxGeometry relative="1" as="geometry" />
        </mxCell>
        <mxCell id="SIL7Wq156Bd5Dtq3TkI6-36" value="No" style="edgeLabel;html=1;align=center;verticalAlign=middle;resizable=0;points=[];" vertex="1" connectable="0" parent="SIL7Wq156Bd5Dtq3TkI6-28">
          <mxGeometry x="0.1307" relative="1" as="geometry">
            <mxPoint x="-5" as="offset" />
          </mxGeometry>
        </mxCell>
        <mxCell id="SIL7Wq156Bd5Dtq3TkI6-30" style="edgeStyle=orthogonalEdgeStyle;rounded=0;orthogonalLoop=1;jettySize=auto;html=1;exitX=0.5;exitY=1;exitDx=0;exitDy=0;entryX=0.5;entryY=0;entryDx=0;entryDy=0;" edge="1" parent="SIL7Wq156Bd5Dtq3TkI6-162" source="SIL7Wq156Bd5Dtq3TkI6-6" target="SIL7Wq156Bd5Dtq3TkI6-10">
          <mxGeometry relative="1" as="geometry" />
        </mxCell>
        <mxCell id="SIL7Wq156Bd5Dtq3TkI6-37" value="Everyone" style="edgeLabel;html=1;align=center;verticalAlign=middle;resizable=0;points=[];" vertex="1" connectable="0" parent="SIL7Wq156Bd5Dtq3TkI6-30">
          <mxGeometry x="-0.0269" relative="1" as="geometry">
            <mxPoint as="offset" />
          </mxGeometry>
        </mxCell>
        <mxCell id="SIL7Wq156Bd5Dtq3TkI6-31" style="edgeStyle=orthogonalEdgeStyle;rounded=0;orthogonalLoop=1;jettySize=auto;html=1;exitX=0.75;exitY=1;exitDx=0;exitDy=0;entryX=0.5;entryY=0;entryDx=0;entryDy=0;" edge="1" parent="SIL7Wq156Bd5Dtq3TkI6-162" source="SIL7Wq156Bd5Dtq3TkI6-6" target="SIL7Wq156Bd5Dtq3TkI6-9">
          <mxGeometry relative="1" as="geometry" />
        </mxCell>
        <mxCell id="SIL7Wq156Bd5Dtq3TkI6-38" value="Some but not all" style="edgeLabel;html=1;align=center;verticalAlign=middle;resizable=0;points=[];" vertex="1" connectable="0" parent="SIL7Wq156Bd5Dtq3TkI6-31">
          <mxGeometry x="-0.0857" relative="1" as="geometry">
            <mxPoint x="-4" as="offset" />
          </mxGeometry>
        </mxCell>
        <mxCell id="SIL7Wq156Bd5Dtq3TkI6-6" value="Did anyone else guess your partnership correctly?" style="rounded=1;whiteSpace=wrap;html=1;" vertex="1" parent="SIL7Wq156Bd5Dtq3TkI6-162">
          <mxGeometry x="20" y="240" width="120" height="60" as="geometry" />
        </mxCell>
        <mxCell id="SIL7Wq156Bd5Dtq3TkI6-8" value="&lt;b&gt;+3 pts&lt;/b&gt;" style="rounded=1;whiteSpace=wrap;html=1;fillColor=#d5e8d4;strokeColor=#82b366;" vertex="1" parent="SIL7Wq156Bd5Dtq3TkI6-162">
          <mxGeometry x="180" y="240" width="120" height="60" as="geometry" />
        </mxCell>
        <mxCell id="SIL7Wq156Bd5Dtq3TkI6-9" value="&lt;b&gt;+2 pts&lt;/b&gt;" style="rounded=1;whiteSpace=wrap;html=1;fillColor=#d5e8d4;strokeColor=#82b366;" vertex="1" parent="SIL7Wq156Bd5Dtq3TkI6-162">
          <mxGeometry x="180" y="340" width="120" height="60" as="geometry" />
        </mxCell>
        <mxCell id="SIL7Wq156Bd5Dtq3TkI6-10" value="&lt;b&gt;+0 pts&lt;/b&gt;" style="rounded=1;whiteSpace=wrap;html=1;fillColor=#f8cecc;strokeColor=#b85450;" vertex="1" parent="SIL7Wq156Bd5Dtq3TkI6-162">
          <mxGeometry x="20" y="340" width="120" height="60" as="geometry" />
        </mxCell>
        <mxCell id="SIL7Wq156Bd5Dtq3TkI6-19" value="&lt;b&gt;+1 pt&lt;/b&gt;&lt;br&gt;for each correct guess of other partners/loners" style="rounded=1;whiteSpace=wrap;html=1;fillColor=#d5e8d4;strokeColor=#82b366;" vertex="1" parent="SIL7Wq156Bd5Dtq3TkI6-162">
          <mxGeometry x="340" y="340" width="310" height="70" as="geometry" />
        </mxCell>
        <mxCell id="SIL7Wq156Bd5Dtq3TkI6-20" value="&lt;b&gt;+0 pts&lt;/b&gt;" style="rounded=1;whiteSpace=wrap;html=1;fillColor=#f8cecc;strokeColor=#b85450;" vertex="1" parent="SIL7Wq156Bd5Dtq3TkI6-162">
          <mxGeometry x="180" y="40" width="120" height="60" as="geometry" />
        </mxCell>
        <mxCell id="SIL7Wq156Bd5Dtq3TkI6-21" value="&lt;b&gt;+0 pts&lt;/b&gt;" style="rounded=1;whiteSpace=wrap;html=1;fillColor=#f8cecc;strokeColor=#b85450;" vertex="1" parent="SIL7Wq156Bd5Dtq3TkI6-162">
          <mxGeometry x="180" y="140" width="120" height="60" as="geometry" />
        </mxCell>
        <mxCell id="SIL7Wq156Bd5Dtq3TkI6-39" value="&lt;font style=&quot;font-size: 18px;&quot;&gt;&lt;b&gt;Partners&lt;/b&gt;&lt;/font&gt;" style="text;html=1;align=center;verticalAlign=middle;whiteSpace=wrap;rounded=0;" vertex="1" parent="SIL7Wq156Bd5Dtq3TkI6-162">
          <mxGeometry x="130" width="60" height="30" as="geometry" />
        </mxCell>
        <mxCell id="SIL7Wq156Bd5Dtq3TkI6-40" style="edgeStyle=orthogonalEdgeStyle;rounded=0;orthogonalLoop=1;jettySize=auto;html=1;entryX=0;entryY=0.5;entryDx=0;entryDy=0;" edge="1" parent="SIL7Wq156Bd5Dtq3TkI6-162" source="SIL7Wq156Bd5Dtq3TkI6-44" target="SIL7Wq156Bd5Dtq3TkI6-60">
          <mxGeometry relative="1" as="geometry" />
        </mxCell>
        <mxCell id="SIL7Wq156Bd5Dtq3TkI6-41" value="No" style="edgeLabel;html=1;align=center;verticalAlign=middle;resizable=0;points=[];" vertex="1" connectable="0" parent="SIL7Wq156Bd5Dtq3TkI6-40">
          <mxGeometry x="0.0254" y="-1" relative="1" as="geometry">
            <mxPoint x="-3" y="-1" as="offset" />
          </mxGeometry>
        </mxCell>
        <mxCell id="SIL7Wq156Bd5Dtq3TkI6-42" style="edgeStyle=orthogonalEdgeStyle;rounded=0;orthogonalLoop=1;jettySize=auto;html=1;entryX=0.5;entryY=0;entryDx=0;entryDy=0;" edge="1" parent="SIL7Wq156Bd5Dtq3TkI6-162" source="SIL7Wq156Bd5Dtq3TkI6-44" target="SIL7Wq156Bd5Dtq3TkI6-56">
          <mxGeometry relative="1" as="geometry">
            <mxPoint x="420" y="150" as="targetPoint" />
          </mxGeometry>
        </mxCell>
        <mxCell id="SIL7Wq156Bd5Dtq3TkI6-63" value="&lt;div&gt;Yes&lt;/div&gt;" style="edgeLabel;html=1;align=center;verticalAlign=middle;resizable=0;points=[];" vertex="1" connectable="0" parent="SIL7Wq156Bd5Dtq3TkI6-42">
          <mxGeometry x="-0.0433" relative="1" as="geometry">
            <mxPoint as="offset" />
          </mxGeometry>
        </mxCell>
        <mxCell id="SIL7Wq156Bd5Dtq3TkI6-44" value="Did you guess that you were alone?" style="rounded=1;whiteSpace=wrap;html=1;" vertex="1" parent="SIL7Wq156Bd5Dtq3TkI6-162">
          <mxGeometry x="360" y="40" width="120" height="60" as="geometry" />
        </mxCell>
        <mxCell id="SIL7Wq156Bd5Dtq3TkI6-50" style="edgeStyle=orthogonalEdgeStyle;rounded=0;orthogonalLoop=1;jettySize=auto;html=1;entryX=0;entryY=0.5;entryDx=0;entryDy=0;" edge="1" parent="SIL7Wq156Bd5Dtq3TkI6-162" source="SIL7Wq156Bd5Dtq3TkI6-56" target="SIL7Wq156Bd5Dtq3TkI6-57">
          <mxGeometry relative="1" as="geometry" />
        </mxCell>
        <mxCell id="SIL7Wq156Bd5Dtq3TkI6-51" value="No" style="edgeLabel;html=1;align=center;verticalAlign=middle;resizable=0;points=[];" vertex="1" connectable="0" parent="SIL7Wq156Bd5Dtq3TkI6-50">
          <mxGeometry x="0.1307" relative="1" as="geometry">
            <mxPoint x="-5" as="offset" />
          </mxGeometry>
        </mxCell>
        <mxCell id="SIL7Wq156Bd5Dtq3TkI6-52" style="edgeStyle=orthogonalEdgeStyle;rounded=0;orthogonalLoop=1;jettySize=auto;html=1;exitX=0.5;exitY=1;exitDx=0;exitDy=0;entryX=0.5;entryY=0;entryDx=0;entryDy=0;" edge="1" parent="SIL7Wq156Bd5Dtq3TkI6-162" source="SIL7Wq156Bd5Dtq3TkI6-56" target="SIL7Wq156Bd5Dtq3TkI6-59">
          <mxGeometry relative="1" as="geometry" />
        </mxCell>
        <mxCell id="SIL7Wq156Bd5Dtq3TkI6-53" value="Everyone" style="edgeLabel;html=1;align=center;verticalAlign=middle;resizable=0;points=[];" vertex="1" connectable="0" parent="SIL7Wq156Bd5Dtq3TkI6-52">
          <mxGeometry x="-0.0269" relative="1" as="geometry">
            <mxPoint as="offset" />
          </mxGeometry>
        </mxCell>
        <mxCell id="SIL7Wq156Bd5Dtq3TkI6-54" style="edgeStyle=orthogonalEdgeStyle;rounded=0;orthogonalLoop=1;jettySize=auto;html=1;exitX=0.75;exitY=1;exitDx=0;exitDy=0;entryX=0.5;entryY=0;entryDx=0;entryDy=0;" edge="1" parent="SIL7Wq156Bd5Dtq3TkI6-162" source="SIL7Wq156Bd5Dtq3TkI6-56" target="SIL7Wq156Bd5Dtq3TkI6-58">
          <mxGeometry relative="1" as="geometry" />
        </mxCell>
        <mxCell id="SIL7Wq156Bd5Dtq3TkI6-55" value="Some but not all" style="edgeLabel;html=1;align=center;verticalAlign=middle;resizable=0;points=[];" vertex="1" connectable="0" parent="SIL7Wq156Bd5Dtq3TkI6-54">
          <mxGeometry x="-0.0857" relative="1" as="geometry">
            <mxPoint x="-4" as="offset" />
          </mxGeometry>
        </mxCell>
        <mxCell id="SIL7Wq156Bd5Dtq3TkI6-56" value="Did anyone else guess that you were alone?" style="rounded=1;whiteSpace=wrap;html=1;" vertex="1" parent="SIL7Wq156Bd5Dtq3TkI6-162">
          <mxGeometry x="360" y="140" width="120" height="60" as="geometry" />
        </mxCell>
        <mxCell id="SIL7Wq156Bd5Dtq3TkI6-57" value="&lt;b&gt;+3 pts&lt;/b&gt;" style="rounded=1;whiteSpace=wrap;html=1;fillColor=#d5e8d4;strokeColor=#82b366;" vertex="1" parent="SIL7Wq156Bd5Dtq3TkI6-162">
          <mxGeometry x="520" y="140" width="120" height="60" as="geometry" />
        </mxCell>
        <mxCell id="SIL7Wq156Bd5Dtq3TkI6-58" value="&lt;b&gt;+2 pts&lt;/b&gt;" style="rounded=1;whiteSpace=wrap;html=1;fillColor=#d5e8d4;strokeColor=#82b366;" vertex="1" parent="SIL7Wq156Bd5Dtq3TkI6-162">
          <mxGeometry x="520" y="240" width="120" height="60" as="geometry" />
        </mxCell>
        <mxCell id="SIL7Wq156Bd5Dtq3TkI6-59" value="&lt;b&gt;+0 pts&lt;/b&gt;" style="rounded=1;whiteSpace=wrap;html=1;fillColor=#f8cecc;strokeColor=#b85450;" vertex="1" parent="SIL7Wq156Bd5Dtq3TkI6-162">
          <mxGeometry x="360" y="240" width="120" height="60" as="geometry" />
        </mxCell>
        <mxCell id="SIL7Wq156Bd5Dtq3TkI6-60" value="&lt;b&gt;+0 pts&lt;/b&gt;" style="rounded=1;whiteSpace=wrap;html=1;fillColor=#f8cecc;strokeColor=#b85450;" vertex="1" parent="SIL7Wq156Bd5Dtq3TkI6-162">
          <mxGeometry x="520" y="40" width="120" height="60" as="geometry" />
        </mxCell>
        <mxCell id="SIL7Wq156Bd5Dtq3TkI6-62" value="&lt;div&gt;&lt;font style=&quot;font-size: 18px;&quot;&gt;&lt;b&gt;Loners&lt;/b&gt;&lt;/font&gt;&lt;/div&gt;" style="text;html=1;align=center;verticalAlign=middle;whiteSpace=wrap;rounded=0;" vertex="1" parent="SIL7Wq156Bd5Dtq3TkI6-162">
          <mxGeometry x="470" width="60" height="30" as="geometry" />
        </mxCell>
        <mxCell id="SIL7Wq156Bd5Dtq3TkI6-66" style="edgeStyle=orthogonalEdgeStyle;rounded=0;orthogonalLoop=1;jettySize=auto;html=1;exitX=0.5;exitY=1;exitDx=0;exitDy=0;" edge="1" parent="SIL7Wq156Bd5Dtq3TkI6-162" source="SIL7Wq156Bd5Dtq3TkI6-64" target="SIL7Wq156Bd5Dtq3TkI6-64">
          <mxGeometry relative="1" as="geometry" />
        </mxCell>
        <mxCell id="SIL7Wq156Bd5Dtq3TkI6-118" value="" style="rounded=1;whiteSpace=wrap;html=1;fillColor=none;" vertex="1" parent="SIL7Wq156Bd5Dtq3TkI6-162">
          <mxGeometry x="1071" width="320" height="325" as="geometry" />
        </mxCell>
        <mxCell id="SIL7Wq156Bd5Dtq3TkI6-119" value="" style="rounded=1;whiteSpace=wrap;html=1;fillColor=none;" vertex="1" parent="SIL7Wq156Bd5Dtq3TkI6-162">
          <mxGeometry x="731" width="320" height="420" as="geometry" />
        </mxCell>
        <mxCell id="SIL7Wq156Bd5Dtq3TkI6-120" style="edgeStyle=orthogonalEdgeStyle;rounded=0;orthogonalLoop=1;jettySize=auto;html=1;entryX=0;entryY=0.5;entryDx=0;entryDy=0;" edge="1" parent="SIL7Wq156Bd5Dtq3TkI6-162" source="SIL7Wq156Bd5Dtq3TkI6-124" target="SIL7Wq156Bd5Dtq3TkI6-141">
          <mxGeometry relative="1" as="geometry" />
        </mxCell>
        <mxCell id="SIL7Wq156Bd5Dtq3TkI6-121" value="No" style="edgeLabel;html=1;align=center;verticalAlign=middle;resizable=0;points=[];" vertex="1" connectable="0" parent="SIL7Wq156Bd5Dtq3TkI6-120">
          <mxGeometry x="0.0254" y="-1" relative="1" as="geometry">
            <mxPoint x="-3" y="-1" as="offset" />
          </mxGeometry>
        </mxCell>
        <mxCell id="SIL7Wq156Bd5Dtq3TkI6-122" style="edgeStyle=orthogonalEdgeStyle;rounded=0;orthogonalLoop=1;jettySize=auto;html=1;entryX=0.5;entryY=0;entryDx=0;entryDy=0;" edge="1" parent="SIL7Wq156Bd5Dtq3TkI6-162" source="SIL7Wq156Bd5Dtq3TkI6-124" target="SIL7Wq156Bd5Dtq3TkI6-129">
          <mxGeometry relative="1" as="geometry" />
        </mxCell>
        <mxCell id="SIL7Wq156Bd5Dtq3TkI6-123" value="&lt;div&gt;Yes&lt;/div&gt;" style="edgeLabel;html=1;align=center;verticalAlign=middle;resizable=0;points=[];" vertex="1" connectable="0" parent="SIL7Wq156Bd5Dtq3TkI6-122">
          <mxGeometry x="0.0344" y="-2" relative="1" as="geometry">
            <mxPoint x="2" y="-1" as="offset" />
          </mxGeometry>
        </mxCell>
        <mxCell id="SIL7Wq156Bd5Dtq3TkI6-124" value="Did you guess your partner correctly?" style="rounded=1;whiteSpace=wrap;html=1;" vertex="1" parent="SIL7Wq156Bd5Dtq3TkI6-162">
          <mxGeometry x="751" y="40" width="120" height="60" as="geometry" />
        </mxCell>
        <mxCell id="SIL7Wq156Bd5Dtq3TkI6-125" style="edgeStyle=orthogonalEdgeStyle;rounded=0;orthogonalLoop=1;jettySize=auto;html=1;entryX=0;entryY=0.5;entryDx=0;entryDy=0;" edge="1" parent="SIL7Wq156Bd5Dtq3TkI6-162" source="SIL7Wq156Bd5Dtq3TkI6-129" target="SIL7Wq156Bd5Dtq3TkI6-142">
          <mxGeometry relative="1" as="geometry" />
        </mxCell>
        <mxCell id="SIL7Wq156Bd5Dtq3TkI6-126" value="&lt;div&gt;No&lt;/div&gt;" style="edgeLabel;html=1;align=center;verticalAlign=middle;resizable=0;points=[];" vertex="1" connectable="0" parent="SIL7Wq156Bd5Dtq3TkI6-125">
          <mxGeometry x="0.1833" y="1" relative="1" as="geometry">
            <mxPoint x="-6" y="1" as="offset" />
          </mxGeometry>
        </mxCell>
        <mxCell id="SIL7Wq156Bd5Dtq3TkI6-127" style="edgeStyle=orthogonalEdgeStyle;rounded=0;orthogonalLoop=1;jettySize=auto;html=1;entryX=0.5;entryY=0;entryDx=0;entryDy=0;" edge="1" parent="SIL7Wq156Bd5Dtq3TkI6-162" source="SIL7Wq156Bd5Dtq3TkI6-129" target="SIL7Wq156Bd5Dtq3TkI6-136">
          <mxGeometry relative="1" as="geometry" />
        </mxCell>
        <mxCell id="SIL7Wq156Bd5Dtq3TkI6-128" value="Yes" style="edgeLabel;html=1;align=center;verticalAlign=middle;resizable=0;points=[];" vertex="1" connectable="0" parent="SIL7Wq156Bd5Dtq3TkI6-127">
          <mxGeometry x="0.0414" y="-1" relative="1" as="geometry">
            <mxPoint x="1" y="-1" as="offset" />
          </mxGeometry>
        </mxCell>
        <mxCell id="SIL7Wq156Bd5Dtq3TkI6-129" value="Did they guess you correctly?" style="rounded=1;whiteSpace=wrap;html=1;" vertex="1" parent="SIL7Wq156Bd5Dtq3TkI6-162">
          <mxGeometry x="751" y="140" width="120" height="60" as="geometry" />
        </mxCell>
        <mxCell id="SIL7Wq156Bd5Dtq3TkI6-130" style="edgeStyle=orthogonalEdgeStyle;rounded=0;orthogonalLoop=1;jettySize=auto;html=1;entryX=0;entryY=0.5;entryDx=0;entryDy=0;" edge="1" parent="SIL7Wq156Bd5Dtq3TkI6-162" source="SIL7Wq156Bd5Dtq3TkI6-136" target="SIL7Wq156Bd5Dtq3TkI6-137">
          <mxGeometry relative="1" as="geometry" />
        </mxCell>
        <mxCell id="SIL7Wq156Bd5Dtq3TkI6-131" value="No" style="edgeLabel;html=1;align=center;verticalAlign=middle;resizable=0;points=[];" vertex="1" connectable="0" parent="SIL7Wq156Bd5Dtq3TkI6-130">
          <mxGeometry x="0.1307" relative="1" as="geometry">
            <mxPoint x="-5" as="offset" />
          </mxGeometry>
        </mxCell>
        <mxCell id="SIL7Wq156Bd5Dtq3TkI6-132" style="edgeStyle=orthogonalEdgeStyle;rounded=0;orthogonalLoop=1;jettySize=auto;html=1;exitX=0.5;exitY=1;exitDx=0;exitDy=0;entryX=0.5;entryY=0;entryDx=0;entryDy=0;" edge="1" parent="SIL7Wq156Bd5Dtq3TkI6-162" source="SIL7Wq156Bd5Dtq3TkI6-136" target="SIL7Wq156Bd5Dtq3TkI6-139">
          <mxGeometry relative="1" as="geometry" />
        </mxCell>
        <mxCell id="SIL7Wq156Bd5Dtq3TkI6-133" value="Everyone" style="edgeLabel;html=1;align=center;verticalAlign=middle;resizable=0;points=[];" vertex="1" connectable="0" parent="SIL7Wq156Bd5Dtq3TkI6-132">
          <mxGeometry x="-0.0269" relative="1" as="geometry">
            <mxPoint as="offset" />
          </mxGeometry>
        </mxCell>
        <mxCell id="SIL7Wq156Bd5Dtq3TkI6-134" style="edgeStyle=orthogonalEdgeStyle;rounded=0;orthogonalLoop=1;jettySize=auto;html=1;exitX=0.75;exitY=1;exitDx=0;exitDy=0;entryX=0.5;entryY=0;entryDx=0;entryDy=0;" edge="1" parent="SIL7Wq156Bd5Dtq3TkI6-162" source="SIL7Wq156Bd5Dtq3TkI6-136" target="SIL7Wq156Bd5Dtq3TkI6-138">
          <mxGeometry relative="1" as="geometry" />
        </mxCell>
        <mxCell id="SIL7Wq156Bd5Dtq3TkI6-135" value="Some but not all" style="edgeLabel;html=1;align=center;verticalAlign=middle;resizable=0;points=[];" vertex="1" connectable="0" parent="SIL7Wq156Bd5Dtq3TkI6-134">
          <mxGeometry x="-0.0857" relative="1" as="geometry">
            <mxPoint x="-4" as="offset" />
          </mxGeometry>
        </mxCell>
        <mxCell id="SIL7Wq156Bd5Dtq3TkI6-136" value="Did anyone else guess your partnership correctly?" style="rounded=1;whiteSpace=wrap;html=1;" vertex="1" parent="SIL7Wq156Bd5Dtq3TkI6-162">
          <mxGeometry x="751" y="240" width="120" height="60" as="geometry" />
        </mxCell>
        <mxCell id="SIL7Wq156Bd5Dtq3TkI6-137" value="&lt;b&gt;+3 pts&lt;/b&gt;" style="rounded=1;whiteSpace=wrap;html=1;fillColor=#d5e8d4;strokeColor=#82b366;" vertex="1" parent="SIL7Wq156Bd5Dtq3TkI6-162">
          <mxGeometry x="911" y="240" width="120" height="60" as="geometry" />
        </mxCell>
        <mxCell id="SIL7Wq156Bd5Dtq3TkI6-138" value="&lt;b&gt;+2 pts&lt;/b&gt;" style="rounded=1;whiteSpace=wrap;html=1;fillColor=#d5e8d4;strokeColor=#82b366;" vertex="1" parent="SIL7Wq156Bd5Dtq3TkI6-162">
          <mxGeometry x="911" y="340" width="120" height="60" as="geometry" />
        </mxCell>
        <mxCell id="SIL7Wq156Bd5Dtq3TkI6-139" value="&lt;b&gt;+0 pts&lt;/b&gt;" style="rounded=1;whiteSpace=wrap;html=1;fillColor=#f8cecc;strokeColor=#b85450;" vertex="1" parent="SIL7Wq156Bd5Dtq3TkI6-162">
          <mxGeometry x="751" y="340" width="120" height="60" as="geometry" />
        </mxCell>
        <mxCell id="SIL7Wq156Bd5Dtq3TkI6-140" value="&lt;b&gt;+1 pt&lt;/b&gt;&lt;br&gt;for each correct guess of other partners/loners" style="rounded=1;whiteSpace=wrap;html=1;fillColor=#d5e8d4;strokeColor=#82b366;" vertex="1" parent="SIL7Wq156Bd5Dtq3TkI6-162">
          <mxGeometry x="1071" y="340" width="310" height="70" as="geometry" />
        </mxCell>
        <mxCell id="SIL7Wq156Bd5Dtq3TkI6-141" value="&lt;b&gt;+0 pts&lt;/b&gt;" style="rounded=1;whiteSpace=wrap;html=1;fillColor=#f8cecc;strokeColor=#b85450;" vertex="1" parent="SIL7Wq156Bd5Dtq3TkI6-162">
          <mxGeometry x="911" y="40" width="120" height="60" as="geometry" />
        </mxCell>
        <mxCell id="SIL7Wq156Bd5Dtq3TkI6-142" value="&lt;b&gt;+0 pts&lt;/b&gt;" style="rounded=1;whiteSpace=wrap;html=1;fillColor=#f8cecc;strokeColor=#b85450;" vertex="1" parent="SIL7Wq156Bd5Dtq3TkI6-162">
          <mxGeometry x="911" y="140" width="120" height="60" as="geometry" />
        </mxCell>
        <mxCell id="SIL7Wq156Bd5Dtq3TkI6-143" value="&lt;font style=&quot;font-size: 18px;&quot;&gt;&lt;b&gt;Partners&lt;/b&gt;&lt;/font&gt;" style="text;html=1;align=center;verticalAlign=middle;whiteSpace=wrap;rounded=0;" vertex="1" parent="SIL7Wq156Bd5Dtq3TkI6-162">
          <mxGeometry x="861" width="60" height="30" as="geometry" />
        </mxCell>
        <mxCell id="SIL7Wq156Bd5Dtq3TkI6-144" style="edgeStyle=orthogonalEdgeStyle;rounded=0;orthogonalLoop=1;jettySize=auto;html=1;entryX=0;entryY=0.5;entryDx=0;entryDy=0;" edge="1" parent="SIL7Wq156Bd5Dtq3TkI6-162" source="SIL7Wq156Bd5Dtq3TkI6-148" target="SIL7Wq156Bd5Dtq3TkI6-159">
          <mxGeometry relative="1" as="geometry" />
        </mxCell>
        <mxCell id="SIL7Wq156Bd5Dtq3TkI6-145" value="No" style="edgeLabel;html=1;align=center;verticalAlign=middle;resizable=0;points=[];" vertex="1" connectable="0" parent="SIL7Wq156Bd5Dtq3TkI6-144">
          <mxGeometry x="0.0254" y="-1" relative="1" as="geometry">
            <mxPoint x="-3" y="-1" as="offset" />
          </mxGeometry>
        </mxCell>
        <mxCell id="SIL7Wq156Bd5Dtq3TkI6-146" style="edgeStyle=orthogonalEdgeStyle;rounded=0;orthogonalLoop=1;jettySize=auto;html=1;entryX=0.5;entryY=0;entryDx=0;entryDy=0;" edge="1" parent="SIL7Wq156Bd5Dtq3TkI6-162" source="SIL7Wq156Bd5Dtq3TkI6-148" target="SIL7Wq156Bd5Dtq3TkI6-155">
          <mxGeometry relative="1" as="geometry">
            <mxPoint x="1151" y="150" as="targetPoint" />
          </mxGeometry>
        </mxCell>
        <mxCell id="SIL7Wq156Bd5Dtq3TkI6-147" value="&lt;div&gt;Yes&lt;/div&gt;" style="edgeLabel;html=1;align=center;verticalAlign=middle;resizable=0;points=[];" vertex="1" connectable="0" parent="SIL7Wq156Bd5Dtq3TkI6-146">
          <mxGeometry x="-0.0433" relative="1" as="geometry">
            <mxPoint as="offset" />
          </mxGeometry>
        </mxCell>
        <mxCell id="SIL7Wq156Bd5Dtq3TkI6-148" value="Did you guess that you were alone?" style="rounded=1;whiteSpace=wrap;html=1;" vertex="1" parent="SIL7Wq156Bd5Dtq3TkI6-162">
          <mxGeometry x="1091" y="40" width="120" height="60" as="geometry" />
        </mxCell>
        <mxCell id="SIL7Wq156Bd5Dtq3TkI6-149" style="edgeStyle=orthogonalEdgeStyle;rounded=0;orthogonalLoop=1;jettySize=auto;html=1;entryX=0;entryY=0.5;entryDx=0;entryDy=0;" edge="1" parent="SIL7Wq156Bd5Dtq3TkI6-162" source="SIL7Wq156Bd5Dtq3TkI6-155" target="SIL7Wq156Bd5Dtq3TkI6-156">
          <mxGeometry relative="1" as="geometry" />
        </mxCell>
        <mxCell id="SIL7Wq156Bd5Dtq3TkI6-150" value="No" style="edgeLabel;html=1;align=center;verticalAlign=middle;resizable=0;points=[];" vertex="1" connectable="0" parent="SIL7Wq156Bd5Dtq3TkI6-149">
          <mxGeometry x="0.1307" relative="1" as="geometry">
            <mxPoint x="-5" as="offset" />
          </mxGeometry>
        </mxCell>
        <mxCell id="SIL7Wq156Bd5Dtq3TkI6-151" style="edgeStyle=orthogonalEdgeStyle;rounded=0;orthogonalLoop=1;jettySize=auto;html=1;exitX=0.5;exitY=1;exitDx=0;exitDy=0;entryX=0.5;entryY=0;entryDx=0;entryDy=0;" edge="1" parent="SIL7Wq156Bd5Dtq3TkI6-162" source="SIL7Wq156Bd5Dtq3TkI6-155" target="SIL7Wq156Bd5Dtq3TkI6-158">
          <mxGeometry relative="1" as="geometry" />
        </mxCell>
        <mxCell id="SIL7Wq156Bd5Dtq3TkI6-152" value="Everyone" style="edgeLabel;html=1;align=center;verticalAlign=middle;resizable=0;points=[];" vertex="1" connectable="0" parent="SIL7Wq156Bd5Dtq3TkI6-151">
          <mxGeometry x="-0.0269" relative="1" as="geometry">
            <mxPoint as="offset" />
          </mxGeometry>
        </mxCell>
        <mxCell id="SIL7Wq156Bd5Dtq3TkI6-153" style="edgeStyle=orthogonalEdgeStyle;rounded=0;orthogonalLoop=1;jettySize=auto;html=1;exitX=0.75;exitY=1;exitDx=0;exitDy=0;entryX=0.5;entryY=0;entryDx=0;entryDy=0;" edge="1" parent="SIL7Wq156Bd5Dtq3TkI6-162" source="SIL7Wq156Bd5Dtq3TkI6-155" target="SIL7Wq156Bd5Dtq3TkI6-157">
          <mxGeometry relative="1" as="geometry" />
        </mxCell>
        <mxCell id="SIL7Wq156Bd5Dtq3TkI6-154" value="Some but not all" style="edgeLabel;html=1;align=center;verticalAlign=middle;resizable=0;points=[];" vertex="1" connectable="0" parent="SIL7Wq156Bd5Dtq3TkI6-153">
          <mxGeometry x="-0.0857" relative="1" as="geometry">
            <mxPoint x="-4" as="offset" />
          </mxGeometry>
        </mxCell>
        <mxCell id="SIL7Wq156Bd5Dtq3TkI6-155" value="Did anyone else guess that you were alone?" style="rounded=1;whiteSpace=wrap;html=1;" vertex="1" parent="SIL7Wq156Bd5Dtq3TkI6-162">
          <mxGeometry x="1091" y="140" width="120" height="60" as="geometry" />
        </mxCell>
        <mxCell id="SIL7Wq156Bd5Dtq3TkI6-156" value="&lt;b&gt;+3 pts&lt;/b&gt;" style="rounded=1;whiteSpace=wrap;html=1;fillColor=#d5e8d4;strokeColor=#82b366;" vertex="1" parent="SIL7Wq156Bd5Dtq3TkI6-162">
          <mxGeometry x="1251" y="140" width="120" height="60" as="geometry" />
        </mxCell>
        <mxCell id="SIL7Wq156Bd5Dtq3TkI6-157" value="&lt;b&gt;+2 pts&lt;/b&gt;" style="rounded=1;whiteSpace=wrap;html=1;fillColor=#d5e8d4;strokeColor=#82b366;" vertex="1" parent="SIL7Wq156Bd5Dtq3TkI6-162">
          <mxGeometry x="1251" y="240" width="120" height="60" as="geometry" />
        </mxCell>
        <mxCell id="SIL7Wq156Bd5Dtq3TkI6-158" value="&lt;b&gt;+0 pts&lt;/b&gt;" style="rounded=1;whiteSpace=wrap;html=1;fillColor=#f8cecc;strokeColor=#b85450;" vertex="1" parent="SIL7Wq156Bd5Dtq3TkI6-162">
          <mxGeometry x="1091" y="240" width="120" height="60" as="geometry" />
        </mxCell>
        <mxCell id="SIL7Wq156Bd5Dtq3TkI6-159" value="&lt;b&gt;+0 pts&lt;/b&gt;" style="rounded=1;whiteSpace=wrap;html=1;fillColor=#f8cecc;strokeColor=#b85450;" vertex="1" parent="SIL7Wq156Bd5Dtq3TkI6-162">
          <mxGeometry x="1251" y="40" width="120" height="60" as="geometry" />
        </mxCell>
        <mxCell id="SIL7Wq156Bd5Dtq3TkI6-160" value="&lt;div&gt;&lt;font style=&quot;font-size: 18px;&quot;&gt;&lt;b&gt;Loners&lt;/b&gt;&lt;/font&gt;&lt;/div&gt;" style="text;html=1;align=center;verticalAlign=middle;whiteSpace=wrap;rounded=0;" vertex="1" parent="SIL7Wq156Bd5Dtq3TkI6-162">
          <mxGeometry x="1201" width="60" height="30" as="geometry" />
        </mxCell>
        <mxCell id="SIL7Wq156Bd5Dtq3TkI6-161" style="edgeStyle=orthogonalEdgeStyle;rounded=0;orthogonalLoop=1;jettySize=auto;html=1;exitX=0.5;exitY=1;exitDx=0;exitDy=0;" edge="1" parent="SIL7Wq156Bd5Dtq3TkI6-162" source="SIL7Wq156Bd5Dtq3TkI6-119" target="SIL7Wq156Bd5Dtq3TkI6-119">
          <mxGeometry relative="1" as="geometry" />
        </mxCell>
        <mxCell id="SIL7Wq156Bd5Dtq3TkI6-163" value="" style="group" vertex="1" connectable="0" parent="SIL7Wq156Bd5Dtq3TkI6-252">
          <mxGeometry y="454" width="1391" height="420" as="geometry" />
        </mxCell>
        <mxCell id="SIL7Wq156Bd5Dtq3TkI6-164" value="" style="rounded=1;whiteSpace=wrap;html=1;fillColor=none;" vertex="1" parent="SIL7Wq156Bd5Dtq3TkI6-163">
          <mxGeometry x="340" width="320" height="325" as="geometry" />
        </mxCell>
        <mxCell id="SIL7Wq156Bd5Dtq3TkI6-165" value="" style="rounded=1;whiteSpace=wrap;html=1;fillColor=none;" vertex="1" parent="SIL7Wq156Bd5Dtq3TkI6-163">
          <mxGeometry width="320" height="420" as="geometry" />
        </mxCell>
        <mxCell id="SIL7Wq156Bd5Dtq3TkI6-166" style="edgeStyle=orthogonalEdgeStyle;rounded=0;orthogonalLoop=1;jettySize=auto;html=1;entryX=0;entryY=0.5;entryDx=0;entryDy=0;" edge="1" parent="SIL7Wq156Bd5Dtq3TkI6-163" source="SIL7Wq156Bd5Dtq3TkI6-170" target="SIL7Wq156Bd5Dtq3TkI6-187">
          <mxGeometry relative="1" as="geometry" />
        </mxCell>
        <mxCell id="SIL7Wq156Bd5Dtq3TkI6-167" value="No" style="edgeLabel;html=1;align=center;verticalAlign=middle;resizable=0;points=[];" vertex="1" connectable="0" parent="SIL7Wq156Bd5Dtq3TkI6-166">
          <mxGeometry x="0.0254" y="-1" relative="1" as="geometry">
            <mxPoint x="-3" y="-1" as="offset" />
          </mxGeometry>
        </mxCell>
        <mxCell id="SIL7Wq156Bd5Dtq3TkI6-168" style="edgeStyle=orthogonalEdgeStyle;rounded=0;orthogonalLoop=1;jettySize=auto;html=1;entryX=0.5;entryY=0;entryDx=0;entryDy=0;" edge="1" parent="SIL7Wq156Bd5Dtq3TkI6-163" source="SIL7Wq156Bd5Dtq3TkI6-170" target="SIL7Wq156Bd5Dtq3TkI6-175">
          <mxGeometry relative="1" as="geometry" />
        </mxCell>
        <mxCell id="SIL7Wq156Bd5Dtq3TkI6-169" value="&lt;div&gt;Yes&lt;/div&gt;" style="edgeLabel;html=1;align=center;verticalAlign=middle;resizable=0;points=[];" vertex="1" connectable="0" parent="SIL7Wq156Bd5Dtq3TkI6-168">
          <mxGeometry x="0.0344" y="-2" relative="1" as="geometry">
            <mxPoint x="2" y="-1" as="offset" />
          </mxGeometry>
        </mxCell>
        <mxCell id="SIL7Wq156Bd5Dtq3TkI6-170" value="Did you guess your partner correctly?" style="rounded=1;whiteSpace=wrap;html=1;" vertex="1" parent="SIL7Wq156Bd5Dtq3TkI6-163">
          <mxGeometry x="20" y="40" width="120" height="60" as="geometry" />
        </mxCell>
        <mxCell id="SIL7Wq156Bd5Dtq3TkI6-171" style="edgeStyle=orthogonalEdgeStyle;rounded=0;orthogonalLoop=1;jettySize=auto;html=1;entryX=0;entryY=0.5;entryDx=0;entryDy=0;" edge="1" parent="SIL7Wq156Bd5Dtq3TkI6-163" source="SIL7Wq156Bd5Dtq3TkI6-175" target="SIL7Wq156Bd5Dtq3TkI6-188">
          <mxGeometry relative="1" as="geometry" />
        </mxCell>
        <mxCell id="SIL7Wq156Bd5Dtq3TkI6-172" value="&lt;div&gt;No&lt;/div&gt;" style="edgeLabel;html=1;align=center;verticalAlign=middle;resizable=0;points=[];" vertex="1" connectable="0" parent="SIL7Wq156Bd5Dtq3TkI6-171">
          <mxGeometry x="0.1833" y="1" relative="1" as="geometry">
            <mxPoint x="-6" y="1" as="offset" />
          </mxGeometry>
        </mxCell>
        <mxCell id="SIL7Wq156Bd5Dtq3TkI6-173" style="edgeStyle=orthogonalEdgeStyle;rounded=0;orthogonalLoop=1;jettySize=auto;html=1;entryX=0.5;entryY=0;entryDx=0;entryDy=0;" edge="1" parent="SIL7Wq156Bd5Dtq3TkI6-163" source="SIL7Wq156Bd5Dtq3TkI6-175" target="SIL7Wq156Bd5Dtq3TkI6-182">
          <mxGeometry relative="1" as="geometry" />
        </mxCell>
        <mxCell id="SIL7Wq156Bd5Dtq3TkI6-174" value="Yes" style="edgeLabel;html=1;align=center;verticalAlign=middle;resizable=0;points=[];" vertex="1" connectable="0" parent="SIL7Wq156Bd5Dtq3TkI6-173">
          <mxGeometry x="0.0414" y="-1" relative="1" as="geometry">
            <mxPoint x="1" y="-1" as="offset" />
          </mxGeometry>
        </mxCell>
        <mxCell id="SIL7Wq156Bd5Dtq3TkI6-175" value="Did they guess you correctly?" style="rounded=1;whiteSpace=wrap;html=1;" vertex="1" parent="SIL7Wq156Bd5Dtq3TkI6-163">
          <mxGeometry x="20" y="140" width="120" height="60" as="geometry" />
        </mxCell>
        <mxCell id="SIL7Wq156Bd5Dtq3TkI6-176" style="edgeStyle=orthogonalEdgeStyle;rounded=0;orthogonalLoop=1;jettySize=auto;html=1;entryX=0;entryY=0.5;entryDx=0;entryDy=0;" edge="1" parent="SIL7Wq156Bd5Dtq3TkI6-163" source="SIL7Wq156Bd5Dtq3TkI6-182" target="SIL7Wq156Bd5Dtq3TkI6-183">
          <mxGeometry relative="1" as="geometry" />
        </mxCell>
        <mxCell id="SIL7Wq156Bd5Dtq3TkI6-177" value="No" style="edgeLabel;html=1;align=center;verticalAlign=middle;resizable=0;points=[];" vertex="1" connectable="0" parent="SIL7Wq156Bd5Dtq3TkI6-176">
          <mxGeometry x="0.1307" relative="1" as="geometry">
            <mxPoint x="-5" as="offset" />
          </mxGeometry>
        </mxCell>
        <mxCell id="SIL7Wq156Bd5Dtq3TkI6-178" style="edgeStyle=orthogonalEdgeStyle;rounded=0;orthogonalLoop=1;jettySize=auto;html=1;exitX=0.5;exitY=1;exitDx=0;exitDy=0;entryX=0.5;entryY=0;entryDx=0;entryDy=0;" edge="1" parent="SIL7Wq156Bd5Dtq3TkI6-163" source="SIL7Wq156Bd5Dtq3TkI6-182" target="SIL7Wq156Bd5Dtq3TkI6-185">
          <mxGeometry relative="1" as="geometry" />
        </mxCell>
        <mxCell id="SIL7Wq156Bd5Dtq3TkI6-179" value="Everyone" style="edgeLabel;html=1;align=center;verticalAlign=middle;resizable=0;points=[];" vertex="1" connectable="0" parent="SIL7Wq156Bd5Dtq3TkI6-178">
          <mxGeometry x="-0.0269" relative="1" as="geometry">
            <mxPoint as="offset" />
          </mxGeometry>
        </mxCell>
        <mxCell id="SIL7Wq156Bd5Dtq3TkI6-180" style="edgeStyle=orthogonalEdgeStyle;rounded=0;orthogonalLoop=1;jettySize=auto;html=1;exitX=0.75;exitY=1;exitDx=0;exitDy=0;entryX=0.5;entryY=0;entryDx=0;entryDy=0;" edge="1" parent="SIL7Wq156Bd5Dtq3TkI6-163" source="SIL7Wq156Bd5Dtq3TkI6-182" target="SIL7Wq156Bd5Dtq3TkI6-184">
          <mxGeometry relative="1" as="geometry" />
        </mxCell>
        <mxCell id="SIL7Wq156Bd5Dtq3TkI6-181" value="Some but not all" style="edgeLabel;html=1;align=center;verticalAlign=middle;resizable=0;points=[];" vertex="1" connectable="0" parent="SIL7Wq156Bd5Dtq3TkI6-180">
          <mxGeometry x="-0.0857" relative="1" as="geometry">
            <mxPoint x="-4" as="offset" />
          </mxGeometry>
        </mxCell>
        <mxCell id="SIL7Wq156Bd5Dtq3TkI6-182" value="Did anyone else guess your partnership correctly?" style="rounded=1;whiteSpace=wrap;html=1;" vertex="1" parent="SIL7Wq156Bd5Dtq3TkI6-163">
          <mxGeometry x="20" y="240" width="120" height="60" as="geometry" />
        </mxCell>
        <mxCell id="SIL7Wq156Bd5Dtq3TkI6-183" value="&lt;b&gt;+3 pts&lt;/b&gt;" style="rounded=1;whiteSpace=wrap;html=1;fillColor=#d5e8d4;strokeColor=#82b366;" vertex="1" parent="SIL7Wq156Bd5Dtq3TkI6-163">
          <mxGeometry x="180" y="240" width="120" height="60" as="geometry" />
        </mxCell>
        <mxCell id="SIL7Wq156Bd5Dtq3TkI6-184" value="&lt;b&gt;+2 pts&lt;/b&gt;" style="rounded=1;whiteSpace=wrap;html=1;fillColor=#d5e8d4;strokeColor=#82b366;" vertex="1" parent="SIL7Wq156Bd5Dtq3TkI6-163">
          <mxGeometry x="180" y="340" width="120" height="60" as="geometry" />
        </mxCell>
        <mxCell id="SIL7Wq156Bd5Dtq3TkI6-185" value="&lt;b&gt;+0 pts&lt;/b&gt;" style="rounded=1;whiteSpace=wrap;html=1;fillColor=#f8cecc;strokeColor=#b85450;" vertex="1" parent="SIL7Wq156Bd5Dtq3TkI6-163">
          <mxGeometry x="20" y="340" width="120" height="60" as="geometry" />
        </mxCell>
        <mxCell id="SIL7Wq156Bd5Dtq3TkI6-186" value="&lt;b&gt;+1 pt&lt;/b&gt;&lt;br&gt;for each correct guess of other partners/loners" style="rounded=1;whiteSpace=wrap;html=1;fillColor=#d5e8d4;strokeColor=#82b366;" vertex="1" parent="SIL7Wq156Bd5Dtq3TkI6-163">
          <mxGeometry x="340" y="340" width="310" height="70" as="geometry" />
        </mxCell>
        <mxCell id="SIL7Wq156Bd5Dtq3TkI6-187" value="&lt;b&gt;+0 pts&lt;/b&gt;" style="rounded=1;whiteSpace=wrap;html=1;fillColor=#f8cecc;strokeColor=#b85450;" vertex="1" parent="SIL7Wq156Bd5Dtq3TkI6-163">
          <mxGeometry x="180" y="40" width="120" height="60" as="geometry" />
        </mxCell>
        <mxCell id="SIL7Wq156Bd5Dtq3TkI6-188" value="&lt;b&gt;+0 pts&lt;/b&gt;" style="rounded=1;whiteSpace=wrap;html=1;fillColor=#f8cecc;strokeColor=#b85450;" vertex="1" parent="SIL7Wq156Bd5Dtq3TkI6-163">
          <mxGeometry x="180" y="140" width="120" height="60" as="geometry" />
        </mxCell>
        <mxCell id="SIL7Wq156Bd5Dtq3TkI6-189" value="&lt;font style=&quot;font-size: 18px;&quot;&gt;&lt;b&gt;Partners&lt;/b&gt;&lt;/font&gt;" style="text;html=1;align=center;verticalAlign=middle;whiteSpace=wrap;rounded=0;" vertex="1" parent="SIL7Wq156Bd5Dtq3TkI6-163">
          <mxGeometry x="130" width="60" height="30" as="geometry" />
        </mxCell>
        <mxCell id="SIL7Wq156Bd5Dtq3TkI6-190" style="edgeStyle=orthogonalEdgeStyle;rounded=0;orthogonalLoop=1;jettySize=auto;html=1;entryX=0;entryY=0.5;entryDx=0;entryDy=0;" edge="1" parent="SIL7Wq156Bd5Dtq3TkI6-163" source="SIL7Wq156Bd5Dtq3TkI6-194" target="SIL7Wq156Bd5Dtq3TkI6-205">
          <mxGeometry relative="1" as="geometry" />
        </mxCell>
        <mxCell id="SIL7Wq156Bd5Dtq3TkI6-191" value="No" style="edgeLabel;html=1;align=center;verticalAlign=middle;resizable=0;points=[];" vertex="1" connectable="0" parent="SIL7Wq156Bd5Dtq3TkI6-190">
          <mxGeometry x="0.0254" y="-1" relative="1" as="geometry">
            <mxPoint x="-3" y="-1" as="offset" />
          </mxGeometry>
        </mxCell>
        <mxCell id="SIL7Wq156Bd5Dtq3TkI6-192" style="edgeStyle=orthogonalEdgeStyle;rounded=0;orthogonalLoop=1;jettySize=auto;html=1;entryX=0.5;entryY=0;entryDx=0;entryDy=0;" edge="1" parent="SIL7Wq156Bd5Dtq3TkI6-163" source="SIL7Wq156Bd5Dtq3TkI6-194" target="SIL7Wq156Bd5Dtq3TkI6-201">
          <mxGeometry relative="1" as="geometry">
            <mxPoint x="420" y="150" as="targetPoint" />
          </mxGeometry>
        </mxCell>
        <mxCell id="SIL7Wq156Bd5Dtq3TkI6-193" value="&lt;div&gt;Yes&lt;/div&gt;" style="edgeLabel;html=1;align=center;verticalAlign=middle;resizable=0;points=[];" vertex="1" connectable="0" parent="SIL7Wq156Bd5Dtq3TkI6-192">
          <mxGeometry x="-0.0433" relative="1" as="geometry">
            <mxPoint as="offset" />
          </mxGeometry>
        </mxCell>
        <mxCell id="SIL7Wq156Bd5Dtq3TkI6-194" value="Did you guess that you were alone?" style="rounded=1;whiteSpace=wrap;html=1;" vertex="1" parent="SIL7Wq156Bd5Dtq3TkI6-163">
          <mxGeometry x="360" y="40" width="120" height="60" as="geometry" />
        </mxCell>
        <mxCell id="SIL7Wq156Bd5Dtq3TkI6-195" style="edgeStyle=orthogonalEdgeStyle;rounded=0;orthogonalLoop=1;jettySize=auto;html=1;entryX=0;entryY=0.5;entryDx=0;entryDy=0;" edge="1" parent="SIL7Wq156Bd5Dtq3TkI6-163" source="SIL7Wq156Bd5Dtq3TkI6-201" target="SIL7Wq156Bd5Dtq3TkI6-202">
          <mxGeometry relative="1" as="geometry" />
        </mxCell>
        <mxCell id="SIL7Wq156Bd5Dtq3TkI6-196" value="No" style="edgeLabel;html=1;align=center;verticalAlign=middle;resizable=0;points=[];" vertex="1" connectable="0" parent="SIL7Wq156Bd5Dtq3TkI6-195">
          <mxGeometry x="0.1307" relative="1" as="geometry">
            <mxPoint x="-5" as="offset" />
          </mxGeometry>
        </mxCell>
        <mxCell id="SIL7Wq156Bd5Dtq3TkI6-197" style="edgeStyle=orthogonalEdgeStyle;rounded=0;orthogonalLoop=1;jettySize=auto;html=1;exitX=0.5;exitY=1;exitDx=0;exitDy=0;entryX=0.5;entryY=0;entryDx=0;entryDy=0;" edge="1" parent="SIL7Wq156Bd5Dtq3TkI6-163" source="SIL7Wq156Bd5Dtq3TkI6-201" target="SIL7Wq156Bd5Dtq3TkI6-204">
          <mxGeometry relative="1" as="geometry" />
        </mxCell>
        <mxCell id="SIL7Wq156Bd5Dtq3TkI6-198" value="Everyone" style="edgeLabel;html=1;align=center;verticalAlign=middle;resizable=0;points=[];" vertex="1" connectable="0" parent="SIL7Wq156Bd5Dtq3TkI6-197">
          <mxGeometry x="-0.0269" relative="1" as="geometry">
            <mxPoint as="offset" />
          </mxGeometry>
        </mxCell>
        <mxCell id="SIL7Wq156Bd5Dtq3TkI6-199" style="edgeStyle=orthogonalEdgeStyle;rounded=0;orthogonalLoop=1;jettySize=auto;html=1;exitX=0.75;exitY=1;exitDx=0;exitDy=0;entryX=0.5;entryY=0;entryDx=0;entryDy=0;" edge="1" parent="SIL7Wq156Bd5Dtq3TkI6-163" source="SIL7Wq156Bd5Dtq3TkI6-201" target="SIL7Wq156Bd5Dtq3TkI6-203">
          <mxGeometry relative="1" as="geometry" />
        </mxCell>
        <mxCell id="SIL7Wq156Bd5Dtq3TkI6-200" value="Some but not all" style="edgeLabel;html=1;align=center;verticalAlign=middle;resizable=0;points=[];" vertex="1" connectable="0" parent="SIL7Wq156Bd5Dtq3TkI6-199">
          <mxGeometry x="-0.0857" relative="1" as="geometry">
            <mxPoint x="-4" as="offset" />
          </mxGeometry>
        </mxCell>
        <mxCell id="SIL7Wq156Bd5Dtq3TkI6-201" value="Did anyone else guess that you were alone?" style="rounded=1;whiteSpace=wrap;html=1;" vertex="1" parent="SIL7Wq156Bd5Dtq3TkI6-163">
          <mxGeometry x="360" y="140" width="120" height="60" as="geometry" />
        </mxCell>
        <mxCell id="SIL7Wq156Bd5Dtq3TkI6-202" value="&lt;b&gt;+3 pts&lt;/b&gt;" style="rounded=1;whiteSpace=wrap;html=1;fillColor=#d5e8d4;strokeColor=#82b366;" vertex="1" parent="SIL7Wq156Bd5Dtq3TkI6-163">
          <mxGeometry x="520" y="140" width="120" height="60" as="geometry" />
        </mxCell>
        <mxCell id="SIL7Wq156Bd5Dtq3TkI6-203" value="&lt;b&gt;+2 pts&lt;/b&gt;" style="rounded=1;whiteSpace=wrap;html=1;fillColor=#d5e8d4;strokeColor=#82b366;" vertex="1" parent="SIL7Wq156Bd5Dtq3TkI6-163">
          <mxGeometry x="520" y="240" width="120" height="60" as="geometry" />
        </mxCell>
        <mxCell id="SIL7Wq156Bd5Dtq3TkI6-204" value="&lt;b&gt;+0 pts&lt;/b&gt;" style="rounded=1;whiteSpace=wrap;html=1;fillColor=#f8cecc;strokeColor=#b85450;" vertex="1" parent="SIL7Wq156Bd5Dtq3TkI6-163">
          <mxGeometry x="360" y="240" width="120" height="60" as="geometry" />
        </mxCell>
        <mxCell id="SIL7Wq156Bd5Dtq3TkI6-205" value="&lt;b&gt;+0 pts&lt;/b&gt;" style="rounded=1;whiteSpace=wrap;html=1;fillColor=#f8cecc;strokeColor=#b85450;" vertex="1" parent="SIL7Wq156Bd5Dtq3TkI6-163">
          <mxGeometry x="520" y="40" width="120" height="60" as="geometry" />
        </mxCell>
        <mxCell id="SIL7Wq156Bd5Dtq3TkI6-206" value="&lt;div&gt;&lt;font style=&quot;font-size: 18px;&quot;&gt;&lt;b&gt;Loners&lt;/b&gt;&lt;/font&gt;&lt;/div&gt;" style="text;html=1;align=center;verticalAlign=middle;whiteSpace=wrap;rounded=0;" vertex="1" parent="SIL7Wq156Bd5Dtq3TkI6-163">
          <mxGeometry x="470" width="60" height="30" as="geometry" />
        </mxCell>
        <mxCell id="SIL7Wq156Bd5Dtq3TkI6-207" style="edgeStyle=orthogonalEdgeStyle;rounded=0;orthogonalLoop=1;jettySize=auto;html=1;exitX=0.5;exitY=1;exitDx=0;exitDy=0;" edge="1" parent="SIL7Wq156Bd5Dtq3TkI6-163" source="SIL7Wq156Bd5Dtq3TkI6-165" target="SIL7Wq156Bd5Dtq3TkI6-165">
          <mxGeometry relative="1" as="geometry" />
        </mxCell>
        <mxCell id="SIL7Wq156Bd5Dtq3TkI6-208" value="" style="rounded=1;whiteSpace=wrap;html=1;fillColor=none;" vertex="1" parent="SIL7Wq156Bd5Dtq3TkI6-163">
          <mxGeometry x="1071" width="320" height="325" as="geometry" />
        </mxCell>
        <mxCell id="SIL7Wq156Bd5Dtq3TkI6-209" value="" style="rounded=1;whiteSpace=wrap;html=1;fillColor=none;" vertex="1" parent="SIL7Wq156Bd5Dtq3TkI6-163">
          <mxGeometry x="731" width="320" height="420" as="geometry" />
        </mxCell>
        <mxCell id="SIL7Wq156Bd5Dtq3TkI6-210" style="edgeStyle=orthogonalEdgeStyle;rounded=0;orthogonalLoop=1;jettySize=auto;html=1;entryX=0;entryY=0.5;entryDx=0;entryDy=0;" edge="1" parent="SIL7Wq156Bd5Dtq3TkI6-163" source="SIL7Wq156Bd5Dtq3TkI6-214" target="SIL7Wq156Bd5Dtq3TkI6-231">
          <mxGeometry relative="1" as="geometry" />
        </mxCell>
        <mxCell id="SIL7Wq156Bd5Dtq3TkI6-211" value="No" style="edgeLabel;html=1;align=center;verticalAlign=middle;resizable=0;points=[];" vertex="1" connectable="0" parent="SIL7Wq156Bd5Dtq3TkI6-210">
          <mxGeometry x="0.0254" y="-1" relative="1" as="geometry">
            <mxPoint x="-3" y="-1" as="offset" />
          </mxGeometry>
        </mxCell>
        <mxCell id="SIL7Wq156Bd5Dtq3TkI6-212" style="edgeStyle=orthogonalEdgeStyle;rounded=0;orthogonalLoop=1;jettySize=auto;html=1;entryX=0.5;entryY=0;entryDx=0;entryDy=0;" edge="1" parent="SIL7Wq156Bd5Dtq3TkI6-163" source="SIL7Wq156Bd5Dtq3TkI6-214" target="SIL7Wq156Bd5Dtq3TkI6-219">
          <mxGeometry relative="1" as="geometry" />
        </mxCell>
        <mxCell id="SIL7Wq156Bd5Dtq3TkI6-213" value="&lt;div&gt;Yes&lt;/div&gt;" style="edgeLabel;html=1;align=center;verticalAlign=middle;resizable=0;points=[];" vertex="1" connectable="0" parent="SIL7Wq156Bd5Dtq3TkI6-212">
          <mxGeometry x="0.0344" y="-2" relative="1" as="geometry">
            <mxPoint x="2" y="-1" as="offset" />
          </mxGeometry>
        </mxCell>
        <mxCell id="SIL7Wq156Bd5Dtq3TkI6-214" value="Did you guess your partner correctly?" style="rounded=1;whiteSpace=wrap;html=1;" vertex="1" parent="SIL7Wq156Bd5Dtq3TkI6-163">
          <mxGeometry x="751" y="40" width="120" height="60" as="geometry" />
        </mxCell>
        <mxCell id="SIL7Wq156Bd5Dtq3TkI6-215" style="edgeStyle=orthogonalEdgeStyle;rounded=0;orthogonalLoop=1;jettySize=auto;html=1;entryX=0;entryY=0.5;entryDx=0;entryDy=0;" edge="1" parent="SIL7Wq156Bd5Dtq3TkI6-163" source="SIL7Wq156Bd5Dtq3TkI6-219" target="SIL7Wq156Bd5Dtq3TkI6-232">
          <mxGeometry relative="1" as="geometry" />
        </mxCell>
        <mxCell id="SIL7Wq156Bd5Dtq3TkI6-216" value="&lt;div&gt;No&lt;/div&gt;" style="edgeLabel;html=1;align=center;verticalAlign=middle;resizable=0;points=[];" vertex="1" connectable="0" parent="SIL7Wq156Bd5Dtq3TkI6-215">
          <mxGeometry x="0.1833" y="1" relative="1" as="geometry">
            <mxPoint x="-6" y="1" as="offset" />
          </mxGeometry>
        </mxCell>
        <mxCell id="SIL7Wq156Bd5Dtq3TkI6-217" style="edgeStyle=orthogonalEdgeStyle;rounded=0;orthogonalLoop=1;jettySize=auto;html=1;entryX=0.5;entryY=0;entryDx=0;entryDy=0;" edge="1" parent="SIL7Wq156Bd5Dtq3TkI6-163" source="SIL7Wq156Bd5Dtq3TkI6-219" target="SIL7Wq156Bd5Dtq3TkI6-226">
          <mxGeometry relative="1" as="geometry" />
        </mxCell>
        <mxCell id="SIL7Wq156Bd5Dtq3TkI6-218" value="Yes" style="edgeLabel;html=1;align=center;verticalAlign=middle;resizable=0;points=[];" vertex="1" connectable="0" parent="SIL7Wq156Bd5Dtq3TkI6-217">
          <mxGeometry x="0.0414" y="-1" relative="1" as="geometry">
            <mxPoint x="1" y="-1" as="offset" />
          </mxGeometry>
        </mxCell>
        <mxCell id="SIL7Wq156Bd5Dtq3TkI6-219" value="Did they guess you correctly?" style="rounded=1;whiteSpace=wrap;html=1;" vertex="1" parent="SIL7Wq156Bd5Dtq3TkI6-163">
          <mxGeometry x="751" y="140" width="120" height="60" as="geometry" />
        </mxCell>
        <mxCell id="SIL7Wq156Bd5Dtq3TkI6-220" style="edgeStyle=orthogonalEdgeStyle;rounded=0;orthogonalLoop=1;jettySize=auto;html=1;entryX=0;entryY=0.5;entryDx=0;entryDy=0;" edge="1" parent="SIL7Wq156Bd5Dtq3TkI6-163" source="SIL7Wq156Bd5Dtq3TkI6-226" target="SIL7Wq156Bd5Dtq3TkI6-227">
          <mxGeometry relative="1" as="geometry" />
        </mxCell>
        <mxCell id="SIL7Wq156Bd5Dtq3TkI6-221" value="No" style="edgeLabel;html=1;align=center;verticalAlign=middle;resizable=0;points=[];" vertex="1" connectable="0" parent="SIL7Wq156Bd5Dtq3TkI6-220">
          <mxGeometry x="0.1307" relative="1" as="geometry">
            <mxPoint x="-5" as="offset" />
          </mxGeometry>
        </mxCell>
        <mxCell id="SIL7Wq156Bd5Dtq3TkI6-222" style="edgeStyle=orthogonalEdgeStyle;rounded=0;orthogonalLoop=1;jettySize=auto;html=1;exitX=0.5;exitY=1;exitDx=0;exitDy=0;entryX=0.5;entryY=0;entryDx=0;entryDy=0;" edge="1" parent="SIL7Wq156Bd5Dtq3TkI6-163" source="SIL7Wq156Bd5Dtq3TkI6-226" target="SIL7Wq156Bd5Dtq3TkI6-229">
          <mxGeometry relative="1" as="geometry" />
        </mxCell>
        <mxCell id="SIL7Wq156Bd5Dtq3TkI6-223" value="Everyone" style="edgeLabel;html=1;align=center;verticalAlign=middle;resizable=0;points=[];" vertex="1" connectable="0" parent="SIL7Wq156Bd5Dtq3TkI6-222">
          <mxGeometry x="-0.0269" relative="1" as="geometry">
            <mxPoint as="offset" />
          </mxGeometry>
        </mxCell>
        <mxCell id="SIL7Wq156Bd5Dtq3TkI6-224" style="edgeStyle=orthogonalEdgeStyle;rounded=0;orthogonalLoop=1;jettySize=auto;html=1;exitX=0.75;exitY=1;exitDx=0;exitDy=0;entryX=0.5;entryY=0;entryDx=0;entryDy=0;" edge="1" parent="SIL7Wq156Bd5Dtq3TkI6-163" source="SIL7Wq156Bd5Dtq3TkI6-226" target="SIL7Wq156Bd5Dtq3TkI6-228">
          <mxGeometry relative="1" as="geometry" />
        </mxCell>
        <mxCell id="SIL7Wq156Bd5Dtq3TkI6-225" value="Some but not all" style="edgeLabel;html=1;align=center;verticalAlign=middle;resizable=0;points=[];" vertex="1" connectable="0" parent="SIL7Wq156Bd5Dtq3TkI6-224">
          <mxGeometry x="-0.0857" relative="1" as="geometry">
            <mxPoint x="-4" as="offset" />
          </mxGeometry>
        </mxCell>
        <mxCell id="SIL7Wq156Bd5Dtq3TkI6-226" value="Did anyone else guess your partnership correctly?" style="rounded=1;whiteSpace=wrap;html=1;" vertex="1" parent="SIL7Wq156Bd5Dtq3TkI6-163">
          <mxGeometry x="751" y="240" width="120" height="60" as="geometry" />
        </mxCell>
        <mxCell id="SIL7Wq156Bd5Dtq3TkI6-227" value="&lt;b&gt;+3 pts&lt;/b&gt;" style="rounded=1;whiteSpace=wrap;html=1;fillColor=#d5e8d4;strokeColor=#82b366;" vertex="1" parent="SIL7Wq156Bd5Dtq3TkI6-163">
          <mxGeometry x="911" y="240" width="120" height="60" as="geometry" />
        </mxCell>
        <mxCell id="SIL7Wq156Bd5Dtq3TkI6-228" value="&lt;b&gt;+2 pts&lt;/b&gt;" style="rounded=1;whiteSpace=wrap;html=1;fillColor=#d5e8d4;strokeColor=#82b366;" vertex="1" parent="SIL7Wq156Bd5Dtq3TkI6-163">
          <mxGeometry x="911" y="340" width="120" height="60" as="geometry" />
        </mxCell>
        <mxCell id="SIL7Wq156Bd5Dtq3TkI6-229" value="&lt;b&gt;+0 pts&lt;/b&gt;" style="rounded=1;whiteSpace=wrap;html=1;fillColor=#f8cecc;strokeColor=#b85450;" vertex="1" parent="SIL7Wq156Bd5Dtq3TkI6-163">
          <mxGeometry x="751" y="340" width="120" height="60" as="geometry" />
        </mxCell>
        <mxCell id="SIL7Wq156Bd5Dtq3TkI6-230" value="&lt;b&gt;+1 pt&lt;/b&gt;&lt;br&gt;for each correct guess of other partners/loners" style="rounded=1;whiteSpace=wrap;html=1;fillColor=#d5e8d4;strokeColor=#82b366;" vertex="1" parent="SIL7Wq156Bd5Dtq3TkI6-163">
          <mxGeometry x="1071" y="340" width="310" height="70" as="geometry" />
        </mxCell>
        <mxCell id="SIL7Wq156Bd5Dtq3TkI6-231" value="&lt;b&gt;+0 pts&lt;/b&gt;" style="rounded=1;whiteSpace=wrap;html=1;fillColor=#f8cecc;strokeColor=#b85450;" vertex="1" parent="SIL7Wq156Bd5Dtq3TkI6-163">
          <mxGeometry x="911" y="40" width="120" height="60" as="geometry" />
        </mxCell>
        <mxCell id="SIL7Wq156Bd5Dtq3TkI6-232" value="&lt;b&gt;+0 pts&lt;/b&gt;" style="rounded=1;whiteSpace=wrap;html=1;fillColor=#f8cecc;strokeColor=#b85450;" vertex="1" parent="SIL7Wq156Bd5Dtq3TkI6-163">
          <mxGeometry x="911" y="140" width="120" height="60" as="geometry" />
        </mxCell>
        <mxCell id="SIL7Wq156Bd5Dtq3TkI6-233" value="&lt;font style=&quot;font-size: 18px;&quot;&gt;&lt;b&gt;Partners&lt;/b&gt;&lt;/font&gt;" style="text;html=1;align=center;verticalAlign=middle;whiteSpace=wrap;rounded=0;" vertex="1" parent="SIL7Wq156Bd5Dtq3TkI6-163">
          <mxGeometry x="861" width="60" height="30" as="geometry" />
        </mxCell>
        <mxCell id="SIL7Wq156Bd5Dtq3TkI6-234" style="edgeStyle=orthogonalEdgeStyle;rounded=0;orthogonalLoop=1;jettySize=auto;html=1;entryX=0;entryY=0.5;entryDx=0;entryDy=0;" edge="1" parent="SIL7Wq156Bd5Dtq3TkI6-163" source="SIL7Wq156Bd5Dtq3TkI6-238" target="SIL7Wq156Bd5Dtq3TkI6-249">
          <mxGeometry relative="1" as="geometry" />
        </mxCell>
        <mxCell id="SIL7Wq156Bd5Dtq3TkI6-235" value="No" style="edgeLabel;html=1;align=center;verticalAlign=middle;resizable=0;points=[];" vertex="1" connectable="0" parent="SIL7Wq156Bd5Dtq3TkI6-234">
          <mxGeometry x="0.0254" y="-1" relative="1" as="geometry">
            <mxPoint x="-3" y="-1" as="offset" />
          </mxGeometry>
        </mxCell>
        <mxCell id="SIL7Wq156Bd5Dtq3TkI6-236" style="edgeStyle=orthogonalEdgeStyle;rounded=0;orthogonalLoop=1;jettySize=auto;html=1;entryX=0.5;entryY=0;entryDx=0;entryDy=0;" edge="1" parent="SIL7Wq156Bd5Dtq3TkI6-163" source="SIL7Wq156Bd5Dtq3TkI6-238" target="SIL7Wq156Bd5Dtq3TkI6-245">
          <mxGeometry relative="1" as="geometry">
            <mxPoint x="1151" y="150" as="targetPoint" />
          </mxGeometry>
        </mxCell>
        <mxCell id="SIL7Wq156Bd5Dtq3TkI6-237" value="&lt;div&gt;Yes&lt;/div&gt;" style="edgeLabel;html=1;align=center;verticalAlign=middle;resizable=0;points=[];" vertex="1" connectable="0" parent="SIL7Wq156Bd5Dtq3TkI6-236">
          <mxGeometry x="-0.0433" relative="1" as="geometry">
            <mxPoint as="offset" />
          </mxGeometry>
        </mxCell>
        <mxCell id="SIL7Wq156Bd5Dtq3TkI6-238" value="Did you guess that you were alone?" style="rounded=1;whiteSpace=wrap;html=1;" vertex="1" parent="SIL7Wq156Bd5Dtq3TkI6-163">
          <mxGeometry x="1091" y="40" width="120" height="60" as="geometry" />
        </mxCell>
        <mxCell id="SIL7Wq156Bd5Dtq3TkI6-239" style="edgeStyle=orthogonalEdgeStyle;rounded=0;orthogonalLoop=1;jettySize=auto;html=1;entryX=0;entryY=0.5;entryDx=0;entryDy=0;" edge="1" parent="SIL7Wq156Bd5Dtq3TkI6-163" source="SIL7Wq156Bd5Dtq3TkI6-245" target="SIL7Wq156Bd5Dtq3TkI6-246">
          <mxGeometry relative="1" as="geometry" />
        </mxCell>
        <mxCell id="SIL7Wq156Bd5Dtq3TkI6-240" value="No" style="edgeLabel;html=1;align=center;verticalAlign=middle;resizable=0;points=[];" vertex="1" connectable="0" parent="SIL7Wq156Bd5Dtq3TkI6-239">
          <mxGeometry x="0.1307" relative="1" as="geometry">
            <mxPoint x="-5" as="offset" />
          </mxGeometry>
        </mxCell>
        <mxCell id="SIL7Wq156Bd5Dtq3TkI6-241" style="edgeStyle=orthogonalEdgeStyle;rounded=0;orthogonalLoop=1;jettySize=auto;html=1;exitX=0.5;exitY=1;exitDx=0;exitDy=0;entryX=0.5;entryY=0;entryDx=0;entryDy=0;" edge="1" parent="SIL7Wq156Bd5Dtq3TkI6-163" source="SIL7Wq156Bd5Dtq3TkI6-245" target="SIL7Wq156Bd5Dtq3TkI6-248">
          <mxGeometry relative="1" as="geometry" />
        </mxCell>
        <mxCell id="SIL7Wq156Bd5Dtq3TkI6-242" value="Everyone" style="edgeLabel;html=1;align=center;verticalAlign=middle;resizable=0;points=[];" vertex="1" connectable="0" parent="SIL7Wq156Bd5Dtq3TkI6-241">
          <mxGeometry x="-0.0269" relative="1" as="geometry">
            <mxPoint as="offset" />
          </mxGeometry>
        </mxCell>
        <mxCell id="SIL7Wq156Bd5Dtq3TkI6-243" style="edgeStyle=orthogonalEdgeStyle;rounded=0;orthogonalLoop=1;jettySize=auto;html=1;exitX=0.75;exitY=1;exitDx=0;exitDy=0;entryX=0.5;entryY=0;entryDx=0;entryDy=0;" edge="1" parent="SIL7Wq156Bd5Dtq3TkI6-163" source="SIL7Wq156Bd5Dtq3TkI6-245" target="SIL7Wq156Bd5Dtq3TkI6-247">
          <mxGeometry relative="1" as="geometry" />
        </mxCell>
        <mxCell id="SIL7Wq156Bd5Dtq3TkI6-244" value="Some but not all" style="edgeLabel;html=1;align=center;verticalAlign=middle;resizable=0;points=[];" vertex="1" connectable="0" parent="SIL7Wq156Bd5Dtq3TkI6-243">
          <mxGeometry x="-0.0857" relative="1" as="geometry">
            <mxPoint x="-4" as="offset" />
          </mxGeometry>
        </mxCell>
        <mxCell id="SIL7Wq156Bd5Dtq3TkI6-245" value="Did anyone else guess that you were alone?" style="rounded=1;whiteSpace=wrap;html=1;" vertex="1" parent="SIL7Wq156Bd5Dtq3TkI6-163">
          <mxGeometry x="1091" y="140" width="120" height="60" as="geometry" />
        </mxCell>
        <mxCell id="SIL7Wq156Bd5Dtq3TkI6-246" value="&lt;b&gt;+3 pts&lt;/b&gt;" style="rounded=1;whiteSpace=wrap;html=1;fillColor=#d5e8d4;strokeColor=#82b366;" vertex="1" parent="SIL7Wq156Bd5Dtq3TkI6-163">
          <mxGeometry x="1251" y="140" width="120" height="60" as="geometry" />
        </mxCell>
        <mxCell id="SIL7Wq156Bd5Dtq3TkI6-247" value="&lt;b&gt;+2 pts&lt;/b&gt;" style="rounded=1;whiteSpace=wrap;html=1;fillColor=#d5e8d4;strokeColor=#82b366;" vertex="1" parent="SIL7Wq156Bd5Dtq3TkI6-163">
          <mxGeometry x="1251" y="240" width="120" height="60" as="geometry" />
        </mxCell>
        <mxCell id="SIL7Wq156Bd5Dtq3TkI6-248" value="&lt;b&gt;+0 pts&lt;/b&gt;" style="rounded=1;whiteSpace=wrap;html=1;fillColor=#f8cecc;strokeColor=#b85450;" vertex="1" parent="SIL7Wq156Bd5Dtq3TkI6-163">
          <mxGeometry x="1091" y="240" width="120" height="60" as="geometry" />
        </mxCell>
        <mxCell id="SIL7Wq156Bd5Dtq3TkI6-249" value="&lt;b&gt;+0 pts&lt;/b&gt;" style="rounded=1;whiteSpace=wrap;html=1;fillColor=#f8cecc;strokeColor=#b85450;" vertex="1" parent="SIL7Wq156Bd5Dtq3TkI6-163">
          <mxGeometry x="1251" y="40" width="120" height="60" as="geometry" />
        </mxCell>
        <mxCell id="SIL7Wq156Bd5Dtq3TkI6-250" value="&lt;div&gt;&lt;font style=&quot;font-size: 18px;&quot;&gt;&lt;b&gt;Loners&lt;/b&gt;&lt;/font&gt;&lt;/div&gt;" style="text;html=1;align=center;verticalAlign=middle;whiteSpace=wrap;rounded=0;" vertex="1" parent="SIL7Wq156Bd5Dtq3TkI6-163">
          <mxGeometry x="1201" width="60" height="30" as="geometry" />
        </mxCell>
        <mxCell id="SIL7Wq156Bd5Dtq3TkI6-251" style="edgeStyle=orthogonalEdgeStyle;rounded=0;orthogonalLoop=1;jettySize=auto;html=1;exitX=0.5;exitY=1;exitDx=0;exitDy=0;" edge="1" parent="SIL7Wq156Bd5Dtq3TkI6-163" source="SIL7Wq156Bd5Dtq3TkI6-209" target="SIL7Wq156Bd5Dtq3TkI6-209">
          <mxGeometry relative="1" as="geometry" />
        </mxCell>
        <mxCell id="SIL7Wq156Bd5Dtq3TkI6-254" value="" style="group" vertex="1" connectable="0" parent="1">
          <mxGeometry x="28" y="961" width="1391" height="420" as="geometry" />
        </mxCell>
        <mxCell id="SIL7Wq156Bd5Dtq3TkI6-255" value="" style="rounded=1;whiteSpace=wrap;html=1;fillColor=none;" vertex="1" parent="SIL7Wq156Bd5Dtq3TkI6-254">
          <mxGeometry x="340" width="320" height="325" as="geometry" />
        </mxCell>
        <mxCell id="SIL7Wq156Bd5Dtq3TkI6-256" value="" style="rounded=1;whiteSpace=wrap;html=1;fillColor=none;" vertex="1" parent="SIL7Wq156Bd5Dtq3TkI6-254">
          <mxGeometry width="320" height="420" as="geometry" />
        </mxCell>
        <mxCell id="SIL7Wq156Bd5Dtq3TkI6-257" style="edgeStyle=orthogonalEdgeStyle;rounded=0;orthogonalLoop=1;jettySize=auto;html=1;entryX=0;entryY=0.5;entryDx=0;entryDy=0;" edge="1" parent="SIL7Wq156Bd5Dtq3TkI6-254" source="SIL7Wq156Bd5Dtq3TkI6-261" target="SIL7Wq156Bd5Dtq3TkI6-278">
          <mxGeometry relative="1" as="geometry" />
        </mxCell>
        <mxCell id="SIL7Wq156Bd5Dtq3TkI6-258" value="No" style="edgeLabel;html=1;align=center;verticalAlign=middle;resizable=0;points=[];" vertex="1" connectable="0" parent="SIL7Wq156Bd5Dtq3TkI6-257">
          <mxGeometry x="0.0254" y="-1" relative="1" as="geometry">
            <mxPoint x="-3" y="-1" as="offset" />
          </mxGeometry>
        </mxCell>
        <mxCell id="SIL7Wq156Bd5Dtq3TkI6-259" style="edgeStyle=orthogonalEdgeStyle;rounded=0;orthogonalLoop=1;jettySize=auto;html=1;entryX=0.5;entryY=0;entryDx=0;entryDy=0;" edge="1" parent="SIL7Wq156Bd5Dtq3TkI6-254" source="SIL7Wq156Bd5Dtq3TkI6-261" target="SIL7Wq156Bd5Dtq3TkI6-266">
          <mxGeometry relative="1" as="geometry" />
        </mxCell>
        <mxCell id="SIL7Wq156Bd5Dtq3TkI6-260" value="&lt;div&gt;Yes&lt;/div&gt;" style="edgeLabel;html=1;align=center;verticalAlign=middle;resizable=0;points=[];" vertex="1" connectable="0" parent="SIL7Wq156Bd5Dtq3TkI6-259">
          <mxGeometry x="0.0344" y="-2" relative="1" as="geometry">
            <mxPoint x="2" y="-1" as="offset" />
          </mxGeometry>
        </mxCell>
        <mxCell id="SIL7Wq156Bd5Dtq3TkI6-261" value="Did you guess your partner correctly?" style="rounded=1;whiteSpace=wrap;html=1;" vertex="1" parent="SIL7Wq156Bd5Dtq3TkI6-254">
          <mxGeometry x="20" y="40" width="120" height="60" as="geometry" />
        </mxCell>
        <mxCell id="SIL7Wq156Bd5Dtq3TkI6-262" style="edgeStyle=orthogonalEdgeStyle;rounded=0;orthogonalLoop=1;jettySize=auto;html=1;entryX=0;entryY=0.5;entryDx=0;entryDy=0;" edge="1" parent="SIL7Wq156Bd5Dtq3TkI6-254" source="SIL7Wq156Bd5Dtq3TkI6-266" target="SIL7Wq156Bd5Dtq3TkI6-279">
          <mxGeometry relative="1" as="geometry" />
        </mxCell>
        <mxCell id="SIL7Wq156Bd5Dtq3TkI6-263" value="&lt;div&gt;No&lt;/div&gt;" style="edgeLabel;html=1;align=center;verticalAlign=middle;resizable=0;points=[];" vertex="1" connectable="0" parent="SIL7Wq156Bd5Dtq3TkI6-262">
          <mxGeometry x="0.1833" y="1" relative="1" as="geometry">
            <mxPoint x="-6" y="1" as="offset" />
          </mxGeometry>
        </mxCell>
        <mxCell id="SIL7Wq156Bd5Dtq3TkI6-264" style="edgeStyle=orthogonalEdgeStyle;rounded=0;orthogonalLoop=1;jettySize=auto;html=1;entryX=0.5;entryY=0;entryDx=0;entryDy=0;" edge="1" parent="SIL7Wq156Bd5Dtq3TkI6-254" source="SIL7Wq156Bd5Dtq3TkI6-266" target="SIL7Wq156Bd5Dtq3TkI6-273">
          <mxGeometry relative="1" as="geometry" />
        </mxCell>
        <mxCell id="SIL7Wq156Bd5Dtq3TkI6-265" value="Yes" style="edgeLabel;html=1;align=center;verticalAlign=middle;resizable=0;points=[];" vertex="1" connectable="0" parent="SIL7Wq156Bd5Dtq3TkI6-264">
          <mxGeometry x="0.0414" y="-1" relative="1" as="geometry">
            <mxPoint x="1" y="-1" as="offset" />
          </mxGeometry>
        </mxCell>
        <mxCell id="SIL7Wq156Bd5Dtq3TkI6-266" value="Did they guess you correctly?" style="rounded=1;whiteSpace=wrap;html=1;" vertex="1" parent="SIL7Wq156Bd5Dtq3TkI6-254">
          <mxGeometry x="20" y="140" width="120" height="60" as="geometry" />
        </mxCell>
        <mxCell id="SIL7Wq156Bd5Dtq3TkI6-267" style="edgeStyle=orthogonalEdgeStyle;rounded=0;orthogonalLoop=1;jettySize=auto;html=1;entryX=0;entryY=0.5;entryDx=0;entryDy=0;" edge="1" parent="SIL7Wq156Bd5Dtq3TkI6-254" source="SIL7Wq156Bd5Dtq3TkI6-273" target="SIL7Wq156Bd5Dtq3TkI6-274">
          <mxGeometry relative="1" as="geometry" />
        </mxCell>
        <mxCell id="SIL7Wq156Bd5Dtq3TkI6-268" value="No" style="edgeLabel;html=1;align=center;verticalAlign=middle;resizable=0;points=[];" vertex="1" connectable="0" parent="SIL7Wq156Bd5Dtq3TkI6-267">
          <mxGeometry x="0.1307" relative="1" as="geometry">
            <mxPoint x="-5" as="offset" />
          </mxGeometry>
        </mxCell>
        <mxCell id="SIL7Wq156Bd5Dtq3TkI6-269" style="edgeStyle=orthogonalEdgeStyle;rounded=0;orthogonalLoop=1;jettySize=auto;html=1;exitX=0.5;exitY=1;exitDx=0;exitDy=0;entryX=0.5;entryY=0;entryDx=0;entryDy=0;" edge="1" parent="SIL7Wq156Bd5Dtq3TkI6-254" source="SIL7Wq156Bd5Dtq3TkI6-273" target="SIL7Wq156Bd5Dtq3TkI6-276">
          <mxGeometry relative="1" as="geometry" />
        </mxCell>
        <mxCell id="SIL7Wq156Bd5Dtq3TkI6-270" value="Everyone" style="edgeLabel;html=1;align=center;verticalAlign=middle;resizable=0;points=[];" vertex="1" connectable="0" parent="SIL7Wq156Bd5Dtq3TkI6-269">
          <mxGeometry x="-0.0269" relative="1" as="geometry">
            <mxPoint as="offset" />
          </mxGeometry>
        </mxCell>
        <mxCell id="SIL7Wq156Bd5Dtq3TkI6-271" style="edgeStyle=orthogonalEdgeStyle;rounded=0;orthogonalLoop=1;jettySize=auto;html=1;exitX=0.75;exitY=1;exitDx=0;exitDy=0;entryX=0.5;entryY=0;entryDx=0;entryDy=0;" edge="1" parent="SIL7Wq156Bd5Dtq3TkI6-254" source="SIL7Wq156Bd5Dtq3TkI6-273" target="SIL7Wq156Bd5Dtq3TkI6-275">
          <mxGeometry relative="1" as="geometry" />
        </mxCell>
        <mxCell id="SIL7Wq156Bd5Dtq3TkI6-272" value="Some but not all" style="edgeLabel;html=1;align=center;verticalAlign=middle;resizable=0;points=[];" vertex="1" connectable="0" parent="SIL7Wq156Bd5Dtq3TkI6-271">
          <mxGeometry x="-0.0857" relative="1" as="geometry">
            <mxPoint x="-4" as="offset" />
          </mxGeometry>
        </mxCell>
        <mxCell id="SIL7Wq156Bd5Dtq3TkI6-273" value="Did anyone else guess your partnership correctly?" style="rounded=1;whiteSpace=wrap;html=1;" vertex="1" parent="SIL7Wq156Bd5Dtq3TkI6-254">
          <mxGeometry x="20" y="240" width="120" height="60" as="geometry" />
        </mxCell>
        <mxCell id="SIL7Wq156Bd5Dtq3TkI6-274" value="&lt;b&gt;+3 pts&lt;/b&gt;" style="rounded=1;whiteSpace=wrap;html=1;fillColor=#d5e8d4;strokeColor=#82b366;" vertex="1" parent="SIL7Wq156Bd5Dtq3TkI6-254">
          <mxGeometry x="180" y="240" width="120" height="60" as="geometry" />
        </mxCell>
        <mxCell id="SIL7Wq156Bd5Dtq3TkI6-275" value="&lt;b&gt;+2 pts&lt;/b&gt;" style="rounded=1;whiteSpace=wrap;html=1;fillColor=#d5e8d4;strokeColor=#82b366;" vertex="1" parent="SIL7Wq156Bd5Dtq3TkI6-254">
          <mxGeometry x="180" y="340" width="120" height="60" as="geometry" />
        </mxCell>
        <mxCell id="SIL7Wq156Bd5Dtq3TkI6-276" value="&lt;b&gt;+0 pts&lt;/b&gt;" style="rounded=1;whiteSpace=wrap;html=1;fillColor=#f8cecc;strokeColor=#b85450;" vertex="1" parent="SIL7Wq156Bd5Dtq3TkI6-254">
          <mxGeometry x="20" y="340" width="120" height="60" as="geometry" />
        </mxCell>
        <mxCell id="SIL7Wq156Bd5Dtq3TkI6-277" value="&lt;b&gt;+1 pt&lt;/b&gt;&lt;br&gt;for each correct guess of other partners/loners" style="rounded=1;whiteSpace=wrap;html=1;fillColor=#d5e8d4;strokeColor=#82b366;" vertex="1" parent="SIL7Wq156Bd5Dtq3TkI6-254">
          <mxGeometry x="340" y="340" width="310" height="70" as="geometry" />
        </mxCell>
        <mxCell id="SIL7Wq156Bd5Dtq3TkI6-278" value="&lt;b&gt;+0 pts&lt;/b&gt;" style="rounded=1;whiteSpace=wrap;html=1;fillColor=#f8cecc;strokeColor=#b85450;" vertex="1" parent="SIL7Wq156Bd5Dtq3TkI6-254">
          <mxGeometry x="180" y="40" width="120" height="60" as="geometry" />
        </mxCell>
        <mxCell id="SIL7Wq156Bd5Dtq3TkI6-279" value="&lt;b&gt;+0 pts&lt;/b&gt;" style="rounded=1;whiteSpace=wrap;html=1;fillColor=#f8cecc;strokeColor=#b85450;" vertex="1" parent="SIL7Wq156Bd5Dtq3TkI6-254">
          <mxGeometry x="180" y="140" width="120" height="60" as="geometry" />
        </mxCell>
        <mxCell id="SIL7Wq156Bd5Dtq3TkI6-280" value="&lt;font style=&quot;font-size: 18px;&quot;&gt;&lt;b&gt;Partners&lt;/b&gt;&lt;/font&gt;" style="text;html=1;align=center;verticalAlign=middle;whiteSpace=wrap;rounded=0;" vertex="1" parent="SIL7Wq156Bd5Dtq3TkI6-254">
          <mxGeometry x="130" width="60" height="30" as="geometry" />
        </mxCell>
        <mxCell id="SIL7Wq156Bd5Dtq3TkI6-281" style="edgeStyle=orthogonalEdgeStyle;rounded=0;orthogonalLoop=1;jettySize=auto;html=1;entryX=0;entryY=0.5;entryDx=0;entryDy=0;" edge="1" parent="SIL7Wq156Bd5Dtq3TkI6-254" source="SIL7Wq156Bd5Dtq3TkI6-285" target="SIL7Wq156Bd5Dtq3TkI6-296">
          <mxGeometry relative="1" as="geometry" />
        </mxCell>
        <mxCell id="SIL7Wq156Bd5Dtq3TkI6-282" value="No" style="edgeLabel;html=1;align=center;verticalAlign=middle;resizable=0;points=[];" vertex="1" connectable="0" parent="SIL7Wq156Bd5Dtq3TkI6-281">
          <mxGeometry x="0.0254" y="-1" relative="1" as="geometry">
            <mxPoint x="-3" y="-1" as="offset" />
          </mxGeometry>
        </mxCell>
        <mxCell id="SIL7Wq156Bd5Dtq3TkI6-283" style="edgeStyle=orthogonalEdgeStyle;rounded=0;orthogonalLoop=1;jettySize=auto;html=1;entryX=0.5;entryY=0;entryDx=0;entryDy=0;" edge="1" parent="SIL7Wq156Bd5Dtq3TkI6-254" source="SIL7Wq156Bd5Dtq3TkI6-285" target="SIL7Wq156Bd5Dtq3TkI6-292">
          <mxGeometry relative="1" as="geometry">
            <mxPoint x="420" y="150" as="targetPoint" />
          </mxGeometry>
        </mxCell>
        <mxCell id="SIL7Wq156Bd5Dtq3TkI6-284" value="&lt;div&gt;Yes&lt;/div&gt;" style="edgeLabel;html=1;align=center;verticalAlign=middle;resizable=0;points=[];" vertex="1" connectable="0" parent="SIL7Wq156Bd5Dtq3TkI6-283">
          <mxGeometry x="-0.0433" relative="1" as="geometry">
            <mxPoint as="offset" />
          </mxGeometry>
        </mxCell>
        <mxCell id="SIL7Wq156Bd5Dtq3TkI6-285" value="Did you guess that you were alone?" style="rounded=1;whiteSpace=wrap;html=1;" vertex="1" parent="SIL7Wq156Bd5Dtq3TkI6-254">
          <mxGeometry x="360" y="40" width="120" height="60" as="geometry" />
        </mxCell>
        <mxCell id="SIL7Wq156Bd5Dtq3TkI6-286" style="edgeStyle=orthogonalEdgeStyle;rounded=0;orthogonalLoop=1;jettySize=auto;html=1;entryX=0;entryY=0.5;entryDx=0;entryDy=0;" edge="1" parent="SIL7Wq156Bd5Dtq3TkI6-254" source="SIL7Wq156Bd5Dtq3TkI6-292" target="SIL7Wq156Bd5Dtq3TkI6-293">
          <mxGeometry relative="1" as="geometry" />
        </mxCell>
        <mxCell id="SIL7Wq156Bd5Dtq3TkI6-287" value="No" style="edgeLabel;html=1;align=center;verticalAlign=middle;resizable=0;points=[];" vertex="1" connectable="0" parent="SIL7Wq156Bd5Dtq3TkI6-286">
          <mxGeometry x="0.1307" relative="1" as="geometry">
            <mxPoint x="-5" as="offset" />
          </mxGeometry>
        </mxCell>
        <mxCell id="SIL7Wq156Bd5Dtq3TkI6-288" style="edgeStyle=orthogonalEdgeStyle;rounded=0;orthogonalLoop=1;jettySize=auto;html=1;exitX=0.5;exitY=1;exitDx=0;exitDy=0;entryX=0.5;entryY=0;entryDx=0;entryDy=0;" edge="1" parent="SIL7Wq156Bd5Dtq3TkI6-254" source="SIL7Wq156Bd5Dtq3TkI6-292" target="SIL7Wq156Bd5Dtq3TkI6-295">
          <mxGeometry relative="1" as="geometry" />
        </mxCell>
        <mxCell id="SIL7Wq156Bd5Dtq3TkI6-289" value="Everyone" style="edgeLabel;html=1;align=center;verticalAlign=middle;resizable=0;points=[];" vertex="1" connectable="0" parent="SIL7Wq156Bd5Dtq3TkI6-288">
          <mxGeometry x="-0.0269" relative="1" as="geometry">
            <mxPoint as="offset" />
          </mxGeometry>
        </mxCell>
        <mxCell id="SIL7Wq156Bd5Dtq3TkI6-290" style="edgeStyle=orthogonalEdgeStyle;rounded=0;orthogonalLoop=1;jettySize=auto;html=1;exitX=0.75;exitY=1;exitDx=0;exitDy=0;entryX=0.5;entryY=0;entryDx=0;entryDy=0;" edge="1" parent="SIL7Wq156Bd5Dtq3TkI6-254" source="SIL7Wq156Bd5Dtq3TkI6-292" target="SIL7Wq156Bd5Dtq3TkI6-294">
          <mxGeometry relative="1" as="geometry" />
        </mxCell>
        <mxCell id="SIL7Wq156Bd5Dtq3TkI6-291" value="Some but not all" style="edgeLabel;html=1;align=center;verticalAlign=middle;resizable=0;points=[];" vertex="1" connectable="0" parent="SIL7Wq156Bd5Dtq3TkI6-290">
          <mxGeometry x="-0.0857" relative="1" as="geometry">
            <mxPoint x="-4" as="offset" />
          </mxGeometry>
        </mxCell>
        <mxCell id="SIL7Wq156Bd5Dtq3TkI6-292" value="Did anyone else guess that you were alone?" style="rounded=1;whiteSpace=wrap;html=1;" vertex="1" parent="SIL7Wq156Bd5Dtq3TkI6-254">
          <mxGeometry x="360" y="140" width="120" height="60" as="geometry" />
        </mxCell>
        <mxCell id="SIL7Wq156Bd5Dtq3TkI6-293" value="&lt;b&gt;+3 pts&lt;/b&gt;" style="rounded=1;whiteSpace=wrap;html=1;fillColor=#d5e8d4;strokeColor=#82b366;" vertex="1" parent="SIL7Wq156Bd5Dtq3TkI6-254">
          <mxGeometry x="520" y="140" width="120" height="60" as="geometry" />
        </mxCell>
        <mxCell id="SIL7Wq156Bd5Dtq3TkI6-294" value="&lt;b&gt;+2 pts&lt;/b&gt;" style="rounded=1;whiteSpace=wrap;html=1;fillColor=#d5e8d4;strokeColor=#82b366;" vertex="1" parent="SIL7Wq156Bd5Dtq3TkI6-254">
          <mxGeometry x="520" y="240" width="120" height="60" as="geometry" />
        </mxCell>
        <mxCell id="SIL7Wq156Bd5Dtq3TkI6-295" value="&lt;b&gt;+0 pts&lt;/b&gt;" style="rounded=1;whiteSpace=wrap;html=1;fillColor=#f8cecc;strokeColor=#b85450;" vertex="1" parent="SIL7Wq156Bd5Dtq3TkI6-254">
          <mxGeometry x="360" y="240" width="120" height="60" as="geometry" />
        </mxCell>
        <mxCell id="SIL7Wq156Bd5Dtq3TkI6-296" value="&lt;b&gt;+0 pts&lt;/b&gt;" style="rounded=1;whiteSpace=wrap;html=1;fillColor=#f8cecc;strokeColor=#b85450;" vertex="1" parent="SIL7Wq156Bd5Dtq3TkI6-254">
          <mxGeometry x="520" y="40" width="120" height="60" as="geometry" />
        </mxCell>
        <mxCell id="SIL7Wq156Bd5Dtq3TkI6-297" value="&lt;div&gt;&lt;font style=&quot;font-size: 18px;&quot;&gt;&lt;b&gt;Loners&lt;/b&gt;&lt;/font&gt;&lt;/div&gt;" style="text;html=1;align=center;verticalAlign=middle;whiteSpace=wrap;rounded=0;" vertex="1" parent="SIL7Wq156Bd5Dtq3TkI6-254">
          <mxGeometry x="470" width="60" height="30" as="geometry" />
        </mxCell>
        <mxCell id="SIL7Wq156Bd5Dtq3TkI6-298" style="edgeStyle=orthogonalEdgeStyle;rounded=0;orthogonalLoop=1;jettySize=auto;html=1;exitX=0.5;exitY=1;exitDx=0;exitDy=0;" edge="1" parent="SIL7Wq156Bd5Dtq3TkI6-254" source="SIL7Wq156Bd5Dtq3TkI6-256" target="SIL7Wq156Bd5Dtq3TkI6-256">
          <mxGeometry relative="1" as="geometry" />
        </mxCell>
        <mxCell id="SIL7Wq156Bd5Dtq3TkI6-299" value="" style="rounded=1;whiteSpace=wrap;html=1;fillColor=none;" vertex="1" parent="SIL7Wq156Bd5Dtq3TkI6-254">
          <mxGeometry x="1071" width="320" height="325" as="geometry" />
        </mxCell>
        <mxCell id="SIL7Wq156Bd5Dtq3TkI6-300" value="" style="rounded=1;whiteSpace=wrap;html=1;fillColor=none;" vertex="1" parent="SIL7Wq156Bd5Dtq3TkI6-254">
          <mxGeometry x="731" width="320" height="420" as="geometry" />
        </mxCell>
        <mxCell id="SIL7Wq156Bd5Dtq3TkI6-301" style="edgeStyle=orthogonalEdgeStyle;rounded=0;orthogonalLoop=1;jettySize=auto;html=1;entryX=0;entryY=0.5;entryDx=0;entryDy=0;" edge="1" parent="SIL7Wq156Bd5Dtq3TkI6-254" source="SIL7Wq156Bd5Dtq3TkI6-305" target="SIL7Wq156Bd5Dtq3TkI6-322">
          <mxGeometry relative="1" as="geometry" />
        </mxCell>
        <mxCell id="SIL7Wq156Bd5Dtq3TkI6-302" value="No" style="edgeLabel;html=1;align=center;verticalAlign=middle;resizable=0;points=[];" vertex="1" connectable="0" parent="SIL7Wq156Bd5Dtq3TkI6-301">
          <mxGeometry x="0.0254" y="-1" relative="1" as="geometry">
            <mxPoint x="-3" y="-1" as="offset" />
          </mxGeometry>
        </mxCell>
        <mxCell id="SIL7Wq156Bd5Dtq3TkI6-303" style="edgeStyle=orthogonalEdgeStyle;rounded=0;orthogonalLoop=1;jettySize=auto;html=1;entryX=0.5;entryY=0;entryDx=0;entryDy=0;" edge="1" parent="SIL7Wq156Bd5Dtq3TkI6-254" source="SIL7Wq156Bd5Dtq3TkI6-305" target="SIL7Wq156Bd5Dtq3TkI6-310">
          <mxGeometry relative="1" as="geometry" />
        </mxCell>
        <mxCell id="SIL7Wq156Bd5Dtq3TkI6-304" value="&lt;div&gt;Yes&lt;/div&gt;" style="edgeLabel;html=1;align=center;verticalAlign=middle;resizable=0;points=[];" vertex="1" connectable="0" parent="SIL7Wq156Bd5Dtq3TkI6-303">
          <mxGeometry x="0.0344" y="-2" relative="1" as="geometry">
            <mxPoint x="2" y="-1" as="offset" />
          </mxGeometry>
        </mxCell>
        <mxCell id="SIL7Wq156Bd5Dtq3TkI6-305" value="Did you guess your partner correctly?" style="rounded=1;whiteSpace=wrap;html=1;" vertex="1" parent="SIL7Wq156Bd5Dtq3TkI6-254">
          <mxGeometry x="751" y="40" width="120" height="60" as="geometry" />
        </mxCell>
        <mxCell id="SIL7Wq156Bd5Dtq3TkI6-306" style="edgeStyle=orthogonalEdgeStyle;rounded=0;orthogonalLoop=1;jettySize=auto;html=1;entryX=0;entryY=0.5;entryDx=0;entryDy=0;" edge="1" parent="SIL7Wq156Bd5Dtq3TkI6-254" source="SIL7Wq156Bd5Dtq3TkI6-310" target="SIL7Wq156Bd5Dtq3TkI6-323">
          <mxGeometry relative="1" as="geometry" />
        </mxCell>
        <mxCell id="SIL7Wq156Bd5Dtq3TkI6-307" value="&lt;div&gt;No&lt;/div&gt;" style="edgeLabel;html=1;align=center;verticalAlign=middle;resizable=0;points=[];" vertex="1" connectable="0" parent="SIL7Wq156Bd5Dtq3TkI6-306">
          <mxGeometry x="0.1833" y="1" relative="1" as="geometry">
            <mxPoint x="-6" y="1" as="offset" />
          </mxGeometry>
        </mxCell>
        <mxCell id="SIL7Wq156Bd5Dtq3TkI6-308" style="edgeStyle=orthogonalEdgeStyle;rounded=0;orthogonalLoop=1;jettySize=auto;html=1;entryX=0.5;entryY=0;entryDx=0;entryDy=0;" edge="1" parent="SIL7Wq156Bd5Dtq3TkI6-254" source="SIL7Wq156Bd5Dtq3TkI6-310" target="SIL7Wq156Bd5Dtq3TkI6-317">
          <mxGeometry relative="1" as="geometry" />
        </mxCell>
        <mxCell id="SIL7Wq156Bd5Dtq3TkI6-309" value="Yes" style="edgeLabel;html=1;align=center;verticalAlign=middle;resizable=0;points=[];" vertex="1" connectable="0" parent="SIL7Wq156Bd5Dtq3TkI6-308">
          <mxGeometry x="0.0414" y="-1" relative="1" as="geometry">
            <mxPoint x="1" y="-1" as="offset" />
          </mxGeometry>
        </mxCell>
        <mxCell id="SIL7Wq156Bd5Dtq3TkI6-310" value="Did they guess you correctly?" style="rounded=1;whiteSpace=wrap;html=1;" vertex="1" parent="SIL7Wq156Bd5Dtq3TkI6-254">
          <mxGeometry x="751" y="140" width="120" height="60" as="geometry" />
        </mxCell>
        <mxCell id="SIL7Wq156Bd5Dtq3TkI6-311" style="edgeStyle=orthogonalEdgeStyle;rounded=0;orthogonalLoop=1;jettySize=auto;html=1;entryX=0;entryY=0.5;entryDx=0;entryDy=0;" edge="1" parent="SIL7Wq156Bd5Dtq3TkI6-254" source="SIL7Wq156Bd5Dtq3TkI6-317" target="SIL7Wq156Bd5Dtq3TkI6-318">
          <mxGeometry relative="1" as="geometry" />
        </mxCell>
        <mxCell id="SIL7Wq156Bd5Dtq3TkI6-312" value="No" style="edgeLabel;html=1;align=center;verticalAlign=middle;resizable=0;points=[];" vertex="1" connectable="0" parent="SIL7Wq156Bd5Dtq3TkI6-311">
          <mxGeometry x="0.1307" relative="1" as="geometry">
            <mxPoint x="-5" as="offset" />
          </mxGeometry>
        </mxCell>
        <mxCell id="SIL7Wq156Bd5Dtq3TkI6-313" style="edgeStyle=orthogonalEdgeStyle;rounded=0;orthogonalLoop=1;jettySize=auto;html=1;exitX=0.5;exitY=1;exitDx=0;exitDy=0;entryX=0.5;entryY=0;entryDx=0;entryDy=0;" edge="1" parent="SIL7Wq156Bd5Dtq3TkI6-254" source="SIL7Wq156Bd5Dtq3TkI6-317" target="SIL7Wq156Bd5Dtq3TkI6-320">
          <mxGeometry relative="1" as="geometry" />
        </mxCell>
        <mxCell id="SIL7Wq156Bd5Dtq3TkI6-314" value="Everyone" style="edgeLabel;html=1;align=center;verticalAlign=middle;resizable=0;points=[];" vertex="1" connectable="0" parent="SIL7Wq156Bd5Dtq3TkI6-313">
          <mxGeometry x="-0.0269" relative="1" as="geometry">
            <mxPoint as="offset" />
          </mxGeometry>
        </mxCell>
        <mxCell id="SIL7Wq156Bd5Dtq3TkI6-315" style="edgeStyle=orthogonalEdgeStyle;rounded=0;orthogonalLoop=1;jettySize=auto;html=1;exitX=0.75;exitY=1;exitDx=0;exitDy=0;entryX=0.5;entryY=0;entryDx=0;entryDy=0;" edge="1" parent="SIL7Wq156Bd5Dtq3TkI6-254" source="SIL7Wq156Bd5Dtq3TkI6-317" target="SIL7Wq156Bd5Dtq3TkI6-319">
          <mxGeometry relative="1" as="geometry" />
        </mxCell>
        <mxCell id="SIL7Wq156Bd5Dtq3TkI6-316" value="Some but not all" style="edgeLabel;html=1;align=center;verticalAlign=middle;resizable=0;points=[];" vertex="1" connectable="0" parent="SIL7Wq156Bd5Dtq3TkI6-315">
          <mxGeometry x="-0.0857" relative="1" as="geometry">
            <mxPoint x="-4" as="offset" />
          </mxGeometry>
        </mxCell>
        <mxCell id="SIL7Wq156Bd5Dtq3TkI6-317" value="Did anyone else guess your partnership correctly?" style="rounded=1;whiteSpace=wrap;html=1;" vertex="1" parent="SIL7Wq156Bd5Dtq3TkI6-254">
          <mxGeometry x="751" y="240" width="120" height="60" as="geometry" />
        </mxCell>
        <mxCell id="SIL7Wq156Bd5Dtq3TkI6-318" value="&lt;b&gt;+3 pts&lt;/b&gt;" style="rounded=1;whiteSpace=wrap;html=1;fillColor=#d5e8d4;strokeColor=#82b366;" vertex="1" parent="SIL7Wq156Bd5Dtq3TkI6-254">
          <mxGeometry x="911" y="240" width="120" height="60" as="geometry" />
        </mxCell>
        <mxCell id="SIL7Wq156Bd5Dtq3TkI6-319" value="&lt;b&gt;+2 pts&lt;/b&gt;" style="rounded=1;whiteSpace=wrap;html=1;fillColor=#d5e8d4;strokeColor=#82b366;" vertex="1" parent="SIL7Wq156Bd5Dtq3TkI6-254">
          <mxGeometry x="911" y="340" width="120" height="60" as="geometry" />
        </mxCell>
        <mxCell id="SIL7Wq156Bd5Dtq3TkI6-320" value="&lt;b&gt;+0 pts&lt;/b&gt;" style="rounded=1;whiteSpace=wrap;html=1;fillColor=#f8cecc;strokeColor=#b85450;" vertex="1" parent="SIL7Wq156Bd5Dtq3TkI6-254">
          <mxGeometry x="751" y="340" width="120" height="60" as="geometry" />
        </mxCell>
        <mxCell id="SIL7Wq156Bd5Dtq3TkI6-321" value="&lt;b&gt;+1 pt&lt;/b&gt;&lt;br&gt;for each correct guess of other partners/loners" style="rounded=1;whiteSpace=wrap;html=1;fillColor=#d5e8d4;strokeColor=#82b366;" vertex="1" parent="SIL7Wq156Bd5Dtq3TkI6-254">
          <mxGeometry x="1071" y="340" width="310" height="70" as="geometry" />
        </mxCell>
        <mxCell id="SIL7Wq156Bd5Dtq3TkI6-322" value="&lt;b&gt;+0 pts&lt;/b&gt;" style="rounded=1;whiteSpace=wrap;html=1;fillColor=#f8cecc;strokeColor=#b85450;" vertex="1" parent="SIL7Wq156Bd5Dtq3TkI6-254">
          <mxGeometry x="911" y="40" width="120" height="60" as="geometry" />
        </mxCell>
        <mxCell id="SIL7Wq156Bd5Dtq3TkI6-323" value="&lt;b&gt;+0 pts&lt;/b&gt;" style="rounded=1;whiteSpace=wrap;html=1;fillColor=#f8cecc;strokeColor=#b85450;" vertex="1" parent="SIL7Wq156Bd5Dtq3TkI6-254">
          <mxGeometry x="911" y="140" width="120" height="60" as="geometry" />
        </mxCell>
        <mxCell id="SIL7Wq156Bd5Dtq3TkI6-324" value="&lt;font style=&quot;font-size: 18px;&quot;&gt;&lt;b&gt;Partners&lt;/b&gt;&lt;/font&gt;" style="text;html=1;align=center;verticalAlign=middle;whiteSpace=wrap;rounded=0;" vertex="1" parent="SIL7Wq156Bd5Dtq3TkI6-254">
          <mxGeometry x="861" width="60" height="30" as="geometry" />
        </mxCell>
        <mxCell id="SIL7Wq156Bd5Dtq3TkI6-325" style="edgeStyle=orthogonalEdgeStyle;rounded=0;orthogonalLoop=1;jettySize=auto;html=1;entryX=0;entryY=0.5;entryDx=0;entryDy=0;" edge="1" parent="SIL7Wq156Bd5Dtq3TkI6-254" source="SIL7Wq156Bd5Dtq3TkI6-329" target="SIL7Wq156Bd5Dtq3TkI6-340">
          <mxGeometry relative="1" as="geometry" />
        </mxCell>
        <mxCell id="SIL7Wq156Bd5Dtq3TkI6-326" value="No" style="edgeLabel;html=1;align=center;verticalAlign=middle;resizable=0;points=[];" vertex="1" connectable="0" parent="SIL7Wq156Bd5Dtq3TkI6-325">
          <mxGeometry x="0.0254" y="-1" relative="1" as="geometry">
            <mxPoint x="-3" y="-1" as="offset" />
          </mxGeometry>
        </mxCell>
        <mxCell id="SIL7Wq156Bd5Dtq3TkI6-327" style="edgeStyle=orthogonalEdgeStyle;rounded=0;orthogonalLoop=1;jettySize=auto;html=1;entryX=0.5;entryY=0;entryDx=0;entryDy=0;" edge="1" parent="SIL7Wq156Bd5Dtq3TkI6-254" source="SIL7Wq156Bd5Dtq3TkI6-329" target="SIL7Wq156Bd5Dtq3TkI6-336">
          <mxGeometry relative="1" as="geometry">
            <mxPoint x="1151" y="150" as="targetPoint" />
          </mxGeometry>
        </mxCell>
        <mxCell id="SIL7Wq156Bd5Dtq3TkI6-328" value="&lt;div&gt;Yes&lt;/div&gt;" style="edgeLabel;html=1;align=center;verticalAlign=middle;resizable=0;points=[];" vertex="1" connectable="0" parent="SIL7Wq156Bd5Dtq3TkI6-327">
          <mxGeometry x="-0.0433" relative="1" as="geometry">
            <mxPoint as="offset" />
          </mxGeometry>
        </mxCell>
        <mxCell id="SIL7Wq156Bd5Dtq3TkI6-329" value="Did you guess that you were alone?" style="rounded=1;whiteSpace=wrap;html=1;" vertex="1" parent="SIL7Wq156Bd5Dtq3TkI6-254">
          <mxGeometry x="1091" y="40" width="120" height="60" as="geometry" />
        </mxCell>
        <mxCell id="SIL7Wq156Bd5Dtq3TkI6-330" style="edgeStyle=orthogonalEdgeStyle;rounded=0;orthogonalLoop=1;jettySize=auto;html=1;entryX=0;entryY=0.5;entryDx=0;entryDy=0;" edge="1" parent="SIL7Wq156Bd5Dtq3TkI6-254" source="SIL7Wq156Bd5Dtq3TkI6-336" target="SIL7Wq156Bd5Dtq3TkI6-337">
          <mxGeometry relative="1" as="geometry" />
        </mxCell>
        <mxCell id="SIL7Wq156Bd5Dtq3TkI6-331" value="No" style="edgeLabel;html=1;align=center;verticalAlign=middle;resizable=0;points=[];" vertex="1" connectable="0" parent="SIL7Wq156Bd5Dtq3TkI6-330">
          <mxGeometry x="0.1307" relative="1" as="geometry">
            <mxPoint x="-5" as="offset" />
          </mxGeometry>
        </mxCell>
        <mxCell id="SIL7Wq156Bd5Dtq3TkI6-332" style="edgeStyle=orthogonalEdgeStyle;rounded=0;orthogonalLoop=1;jettySize=auto;html=1;exitX=0.5;exitY=1;exitDx=0;exitDy=0;entryX=0.5;entryY=0;entryDx=0;entryDy=0;" edge="1" parent="SIL7Wq156Bd5Dtq3TkI6-254" source="SIL7Wq156Bd5Dtq3TkI6-336" target="SIL7Wq156Bd5Dtq3TkI6-339">
          <mxGeometry relative="1" as="geometry" />
        </mxCell>
        <mxCell id="SIL7Wq156Bd5Dtq3TkI6-333" value="Everyone" style="edgeLabel;html=1;align=center;verticalAlign=middle;resizable=0;points=[];" vertex="1" connectable="0" parent="SIL7Wq156Bd5Dtq3TkI6-332">
          <mxGeometry x="-0.0269" relative="1" as="geometry">
            <mxPoint as="offset" />
          </mxGeometry>
        </mxCell>
        <mxCell id="SIL7Wq156Bd5Dtq3TkI6-334" style="edgeStyle=orthogonalEdgeStyle;rounded=0;orthogonalLoop=1;jettySize=auto;html=1;exitX=0.75;exitY=1;exitDx=0;exitDy=0;entryX=0.5;entryY=0;entryDx=0;entryDy=0;" edge="1" parent="SIL7Wq156Bd5Dtq3TkI6-254" source="SIL7Wq156Bd5Dtq3TkI6-336" target="SIL7Wq156Bd5Dtq3TkI6-338">
          <mxGeometry relative="1" as="geometry" />
        </mxCell>
        <mxCell id="SIL7Wq156Bd5Dtq3TkI6-335" value="Some but not all" style="edgeLabel;html=1;align=center;verticalAlign=middle;resizable=0;points=[];" vertex="1" connectable="0" parent="SIL7Wq156Bd5Dtq3TkI6-334">
          <mxGeometry x="-0.0857" relative="1" as="geometry">
            <mxPoint x="-4" as="offset" />
          </mxGeometry>
        </mxCell>
        <mxCell id="SIL7Wq156Bd5Dtq3TkI6-336" value="Did anyone else guess that you were alone?" style="rounded=1;whiteSpace=wrap;html=1;" vertex="1" parent="SIL7Wq156Bd5Dtq3TkI6-254">
          <mxGeometry x="1091" y="140" width="120" height="60" as="geometry" />
        </mxCell>
        <mxCell id="SIL7Wq156Bd5Dtq3TkI6-337" value="&lt;b&gt;+3 pts&lt;/b&gt;" style="rounded=1;whiteSpace=wrap;html=1;fillColor=#d5e8d4;strokeColor=#82b366;" vertex="1" parent="SIL7Wq156Bd5Dtq3TkI6-254">
          <mxGeometry x="1251" y="140" width="120" height="60" as="geometry" />
        </mxCell>
        <mxCell id="SIL7Wq156Bd5Dtq3TkI6-338" value="&lt;b&gt;+2 pts&lt;/b&gt;" style="rounded=1;whiteSpace=wrap;html=1;fillColor=#d5e8d4;strokeColor=#82b366;" vertex="1" parent="SIL7Wq156Bd5Dtq3TkI6-254">
          <mxGeometry x="1251" y="240" width="120" height="60" as="geometry" />
        </mxCell>
        <mxCell id="SIL7Wq156Bd5Dtq3TkI6-339" value="&lt;b&gt;+0 pts&lt;/b&gt;" style="rounded=1;whiteSpace=wrap;html=1;fillColor=#f8cecc;strokeColor=#b85450;" vertex="1" parent="SIL7Wq156Bd5Dtq3TkI6-254">
          <mxGeometry x="1091" y="240" width="120" height="60" as="geometry" />
        </mxCell>
        <mxCell id="SIL7Wq156Bd5Dtq3TkI6-340" value="&lt;b&gt;+0 pts&lt;/b&gt;" style="rounded=1;whiteSpace=wrap;html=1;fillColor=#f8cecc;strokeColor=#b85450;" vertex="1" parent="SIL7Wq156Bd5Dtq3TkI6-254">
          <mxGeometry x="1251" y="40" width="120" height="60" as="geometry" />
        </mxCell>
        <mxCell id="SIL7Wq156Bd5Dtq3TkI6-341" value="&lt;div&gt;&lt;font style=&quot;font-size: 18px;&quot;&gt;&lt;b&gt;Loners&lt;/b&gt;&lt;/font&gt;&lt;/div&gt;" style="text;html=1;align=center;verticalAlign=middle;whiteSpace=wrap;rounded=0;" vertex="1" parent="SIL7Wq156Bd5Dtq3TkI6-254">
          <mxGeometry x="1201" width="60" height="30" as="geometry" />
        </mxCell>
        <mxCell id="SIL7Wq156Bd5Dtq3TkI6-342" style="edgeStyle=orthogonalEdgeStyle;rounded=0;orthogonalLoop=1;jettySize=auto;html=1;exitX=0.5;exitY=1;exitDx=0;exitDy=0;" edge="1" parent="SIL7Wq156Bd5Dtq3TkI6-254" source="SIL7Wq156Bd5Dtq3TkI6-300" target="SIL7Wq156Bd5Dtq3TkI6-300">
          <mxGeometry relative="1" as="geometry" />
        </mxCell>
        <mxCell id="SIL7Wq156Bd5Dtq3TkI6-343" value="" style="group" vertex="1" connectable="0" parent="1">
          <mxGeometry x="27" y="1415" width="1391" height="420" as="geometry" />
        </mxCell>
        <mxCell id="SIL7Wq156Bd5Dtq3TkI6-344" value="" style="rounded=1;whiteSpace=wrap;html=1;fillColor=none;" vertex="1" parent="SIL7Wq156Bd5Dtq3TkI6-343">
          <mxGeometry x="340" width="320" height="325" as="geometry" />
        </mxCell>
        <mxCell id="SIL7Wq156Bd5Dtq3TkI6-345" value="" style="rounded=1;whiteSpace=wrap;html=1;fillColor=none;" vertex="1" parent="SIL7Wq156Bd5Dtq3TkI6-343">
          <mxGeometry width="320" height="420" as="geometry" />
        </mxCell>
        <mxCell id="SIL7Wq156Bd5Dtq3TkI6-346" style="edgeStyle=orthogonalEdgeStyle;rounded=0;orthogonalLoop=1;jettySize=auto;html=1;entryX=0;entryY=0.5;entryDx=0;entryDy=0;" edge="1" parent="SIL7Wq156Bd5Dtq3TkI6-343" source="SIL7Wq156Bd5Dtq3TkI6-350" target="SIL7Wq156Bd5Dtq3TkI6-367">
          <mxGeometry relative="1" as="geometry" />
        </mxCell>
        <mxCell id="SIL7Wq156Bd5Dtq3TkI6-347" value="No" style="edgeLabel;html=1;align=center;verticalAlign=middle;resizable=0;points=[];" vertex="1" connectable="0" parent="SIL7Wq156Bd5Dtq3TkI6-346">
          <mxGeometry x="0.0254" y="-1" relative="1" as="geometry">
            <mxPoint x="-3" y="-1" as="offset" />
          </mxGeometry>
        </mxCell>
        <mxCell id="SIL7Wq156Bd5Dtq3TkI6-348" style="edgeStyle=orthogonalEdgeStyle;rounded=0;orthogonalLoop=1;jettySize=auto;html=1;entryX=0.5;entryY=0;entryDx=0;entryDy=0;" edge="1" parent="SIL7Wq156Bd5Dtq3TkI6-343" source="SIL7Wq156Bd5Dtq3TkI6-350" target="SIL7Wq156Bd5Dtq3TkI6-355">
          <mxGeometry relative="1" as="geometry" />
        </mxCell>
        <mxCell id="SIL7Wq156Bd5Dtq3TkI6-349" value="&lt;div&gt;Yes&lt;/div&gt;" style="edgeLabel;html=1;align=center;verticalAlign=middle;resizable=0;points=[];" vertex="1" connectable="0" parent="SIL7Wq156Bd5Dtq3TkI6-348">
          <mxGeometry x="0.0344" y="-2" relative="1" as="geometry">
            <mxPoint x="2" y="-1" as="offset" />
          </mxGeometry>
        </mxCell>
        <mxCell id="SIL7Wq156Bd5Dtq3TkI6-350" value="Did you guess your partner correctly?" style="rounded=1;whiteSpace=wrap;html=1;" vertex="1" parent="SIL7Wq156Bd5Dtq3TkI6-343">
          <mxGeometry x="20" y="40" width="120" height="60" as="geometry" />
        </mxCell>
        <mxCell id="SIL7Wq156Bd5Dtq3TkI6-351" style="edgeStyle=orthogonalEdgeStyle;rounded=0;orthogonalLoop=1;jettySize=auto;html=1;entryX=0;entryY=0.5;entryDx=0;entryDy=0;" edge="1" parent="SIL7Wq156Bd5Dtq3TkI6-343" source="SIL7Wq156Bd5Dtq3TkI6-355" target="SIL7Wq156Bd5Dtq3TkI6-368">
          <mxGeometry relative="1" as="geometry" />
        </mxCell>
        <mxCell id="SIL7Wq156Bd5Dtq3TkI6-352" value="&lt;div&gt;No&lt;/div&gt;" style="edgeLabel;html=1;align=center;verticalAlign=middle;resizable=0;points=[];" vertex="1" connectable="0" parent="SIL7Wq156Bd5Dtq3TkI6-351">
          <mxGeometry x="0.1833" y="1" relative="1" as="geometry">
            <mxPoint x="-6" y="1" as="offset" />
          </mxGeometry>
        </mxCell>
        <mxCell id="SIL7Wq156Bd5Dtq3TkI6-353" style="edgeStyle=orthogonalEdgeStyle;rounded=0;orthogonalLoop=1;jettySize=auto;html=1;entryX=0.5;entryY=0;entryDx=0;entryDy=0;" edge="1" parent="SIL7Wq156Bd5Dtq3TkI6-343" source="SIL7Wq156Bd5Dtq3TkI6-355" target="SIL7Wq156Bd5Dtq3TkI6-362">
          <mxGeometry relative="1" as="geometry" />
        </mxCell>
        <mxCell id="SIL7Wq156Bd5Dtq3TkI6-354" value="Yes" style="edgeLabel;html=1;align=center;verticalAlign=middle;resizable=0;points=[];" vertex="1" connectable="0" parent="SIL7Wq156Bd5Dtq3TkI6-353">
          <mxGeometry x="0.0414" y="-1" relative="1" as="geometry">
            <mxPoint x="1" y="-1" as="offset" />
          </mxGeometry>
        </mxCell>
        <mxCell id="SIL7Wq156Bd5Dtq3TkI6-355" value="Did they guess you correctly?" style="rounded=1;whiteSpace=wrap;html=1;" vertex="1" parent="SIL7Wq156Bd5Dtq3TkI6-343">
          <mxGeometry x="20" y="140" width="120" height="60" as="geometry" />
        </mxCell>
        <mxCell id="SIL7Wq156Bd5Dtq3TkI6-356" style="edgeStyle=orthogonalEdgeStyle;rounded=0;orthogonalLoop=1;jettySize=auto;html=1;entryX=0;entryY=0.5;entryDx=0;entryDy=0;" edge="1" parent="SIL7Wq156Bd5Dtq3TkI6-343" source="SIL7Wq156Bd5Dtq3TkI6-362" target="SIL7Wq156Bd5Dtq3TkI6-363">
          <mxGeometry relative="1" as="geometry" />
        </mxCell>
        <mxCell id="SIL7Wq156Bd5Dtq3TkI6-357" value="No" style="edgeLabel;html=1;align=center;verticalAlign=middle;resizable=0;points=[];" vertex="1" connectable="0" parent="SIL7Wq156Bd5Dtq3TkI6-356">
          <mxGeometry x="0.1307" relative="1" as="geometry">
            <mxPoint x="-5" as="offset" />
          </mxGeometry>
        </mxCell>
        <mxCell id="SIL7Wq156Bd5Dtq3TkI6-358" style="edgeStyle=orthogonalEdgeStyle;rounded=0;orthogonalLoop=1;jettySize=auto;html=1;exitX=0.5;exitY=1;exitDx=0;exitDy=0;entryX=0.5;entryY=0;entryDx=0;entryDy=0;" edge="1" parent="SIL7Wq156Bd5Dtq3TkI6-343" source="SIL7Wq156Bd5Dtq3TkI6-362" target="SIL7Wq156Bd5Dtq3TkI6-365">
          <mxGeometry relative="1" as="geometry" />
        </mxCell>
        <mxCell id="SIL7Wq156Bd5Dtq3TkI6-359" value="Everyone" style="edgeLabel;html=1;align=center;verticalAlign=middle;resizable=0;points=[];" vertex="1" connectable="0" parent="SIL7Wq156Bd5Dtq3TkI6-358">
          <mxGeometry x="-0.0269" relative="1" as="geometry">
            <mxPoint as="offset" />
          </mxGeometry>
        </mxCell>
        <mxCell id="SIL7Wq156Bd5Dtq3TkI6-360" style="edgeStyle=orthogonalEdgeStyle;rounded=0;orthogonalLoop=1;jettySize=auto;html=1;exitX=0.75;exitY=1;exitDx=0;exitDy=0;entryX=0.5;entryY=0;entryDx=0;entryDy=0;" edge="1" parent="SIL7Wq156Bd5Dtq3TkI6-343" source="SIL7Wq156Bd5Dtq3TkI6-362" target="SIL7Wq156Bd5Dtq3TkI6-364">
          <mxGeometry relative="1" as="geometry" />
        </mxCell>
        <mxCell id="SIL7Wq156Bd5Dtq3TkI6-361" value="Some but not all" style="edgeLabel;html=1;align=center;verticalAlign=middle;resizable=0;points=[];" vertex="1" connectable="0" parent="SIL7Wq156Bd5Dtq3TkI6-360">
          <mxGeometry x="-0.0857" relative="1" as="geometry">
            <mxPoint x="-4" as="offset" />
          </mxGeometry>
        </mxCell>
        <mxCell id="SIL7Wq156Bd5Dtq3TkI6-362" value="Did anyone else guess your partnership correctly?" style="rounded=1;whiteSpace=wrap;html=1;" vertex="1" parent="SIL7Wq156Bd5Dtq3TkI6-343">
          <mxGeometry x="20" y="240" width="120" height="60" as="geometry" />
        </mxCell>
        <mxCell id="SIL7Wq156Bd5Dtq3TkI6-363" value="&lt;b&gt;+3 pts&lt;/b&gt;" style="rounded=1;whiteSpace=wrap;html=1;fillColor=#d5e8d4;strokeColor=#82b366;" vertex="1" parent="SIL7Wq156Bd5Dtq3TkI6-343">
          <mxGeometry x="180" y="240" width="120" height="60" as="geometry" />
        </mxCell>
        <mxCell id="SIL7Wq156Bd5Dtq3TkI6-364" value="&lt;b&gt;+2 pts&lt;/b&gt;" style="rounded=1;whiteSpace=wrap;html=1;fillColor=#d5e8d4;strokeColor=#82b366;" vertex="1" parent="SIL7Wq156Bd5Dtq3TkI6-343">
          <mxGeometry x="180" y="340" width="120" height="60" as="geometry" />
        </mxCell>
        <mxCell id="SIL7Wq156Bd5Dtq3TkI6-365" value="&lt;b&gt;+0 pts&lt;/b&gt;" style="rounded=1;whiteSpace=wrap;html=1;fillColor=#f8cecc;strokeColor=#b85450;" vertex="1" parent="SIL7Wq156Bd5Dtq3TkI6-343">
          <mxGeometry x="20" y="340" width="120" height="60" as="geometry" />
        </mxCell>
        <mxCell id="SIL7Wq156Bd5Dtq3TkI6-366" value="&lt;b&gt;+1 pt&lt;/b&gt;&lt;br&gt;for each correct guess of other partners/loners" style="rounded=1;whiteSpace=wrap;html=1;fillColor=#d5e8d4;strokeColor=#82b366;" vertex="1" parent="SIL7Wq156Bd5Dtq3TkI6-343">
          <mxGeometry x="340" y="340" width="310" height="70" as="geometry" />
        </mxCell>
        <mxCell id="SIL7Wq156Bd5Dtq3TkI6-367" value="&lt;b&gt;+0 pts&lt;/b&gt;" style="rounded=1;whiteSpace=wrap;html=1;fillColor=#f8cecc;strokeColor=#b85450;" vertex="1" parent="SIL7Wq156Bd5Dtq3TkI6-343">
          <mxGeometry x="180" y="40" width="120" height="60" as="geometry" />
        </mxCell>
        <mxCell id="SIL7Wq156Bd5Dtq3TkI6-368" value="&lt;b&gt;+0 pts&lt;/b&gt;" style="rounded=1;whiteSpace=wrap;html=1;fillColor=#f8cecc;strokeColor=#b85450;" vertex="1" parent="SIL7Wq156Bd5Dtq3TkI6-343">
          <mxGeometry x="180" y="140" width="120" height="60" as="geometry" />
        </mxCell>
        <mxCell id="SIL7Wq156Bd5Dtq3TkI6-369" value="&lt;font style=&quot;font-size: 18px;&quot;&gt;&lt;b&gt;Partners&lt;/b&gt;&lt;/font&gt;" style="text;html=1;align=center;verticalAlign=middle;whiteSpace=wrap;rounded=0;" vertex="1" parent="SIL7Wq156Bd5Dtq3TkI6-343">
          <mxGeometry x="130" width="60" height="30" as="geometry" />
        </mxCell>
        <mxCell id="SIL7Wq156Bd5Dtq3TkI6-370" style="edgeStyle=orthogonalEdgeStyle;rounded=0;orthogonalLoop=1;jettySize=auto;html=1;entryX=0;entryY=0.5;entryDx=0;entryDy=0;" edge="1" parent="SIL7Wq156Bd5Dtq3TkI6-343" source="SIL7Wq156Bd5Dtq3TkI6-374" target="SIL7Wq156Bd5Dtq3TkI6-385">
          <mxGeometry relative="1" as="geometry" />
        </mxCell>
        <mxCell id="SIL7Wq156Bd5Dtq3TkI6-371" value="No" style="edgeLabel;html=1;align=center;verticalAlign=middle;resizable=0;points=[];" vertex="1" connectable="0" parent="SIL7Wq156Bd5Dtq3TkI6-370">
          <mxGeometry x="0.0254" y="-1" relative="1" as="geometry">
            <mxPoint x="-3" y="-1" as="offset" />
          </mxGeometry>
        </mxCell>
        <mxCell id="SIL7Wq156Bd5Dtq3TkI6-372" style="edgeStyle=orthogonalEdgeStyle;rounded=0;orthogonalLoop=1;jettySize=auto;html=1;entryX=0.5;entryY=0;entryDx=0;entryDy=0;" edge="1" parent="SIL7Wq156Bd5Dtq3TkI6-343" source="SIL7Wq156Bd5Dtq3TkI6-374" target="SIL7Wq156Bd5Dtq3TkI6-381">
          <mxGeometry relative="1" as="geometry">
            <mxPoint x="420" y="150" as="targetPoint" />
          </mxGeometry>
        </mxCell>
        <mxCell id="SIL7Wq156Bd5Dtq3TkI6-373" value="&lt;div&gt;Yes&lt;/div&gt;" style="edgeLabel;html=1;align=center;verticalAlign=middle;resizable=0;points=[];" vertex="1" connectable="0" parent="SIL7Wq156Bd5Dtq3TkI6-372">
          <mxGeometry x="-0.0433" relative="1" as="geometry">
            <mxPoint as="offset" />
          </mxGeometry>
        </mxCell>
        <mxCell id="SIL7Wq156Bd5Dtq3TkI6-374" value="Did you guess that you were alone?" style="rounded=1;whiteSpace=wrap;html=1;" vertex="1" parent="SIL7Wq156Bd5Dtq3TkI6-343">
          <mxGeometry x="360" y="40" width="120" height="60" as="geometry" />
        </mxCell>
        <mxCell id="SIL7Wq156Bd5Dtq3TkI6-375" style="edgeStyle=orthogonalEdgeStyle;rounded=0;orthogonalLoop=1;jettySize=auto;html=1;entryX=0;entryY=0.5;entryDx=0;entryDy=0;" edge="1" parent="SIL7Wq156Bd5Dtq3TkI6-343" source="SIL7Wq156Bd5Dtq3TkI6-381" target="SIL7Wq156Bd5Dtq3TkI6-382">
          <mxGeometry relative="1" as="geometry" />
        </mxCell>
        <mxCell id="SIL7Wq156Bd5Dtq3TkI6-376" value="No" style="edgeLabel;html=1;align=center;verticalAlign=middle;resizable=0;points=[];" vertex="1" connectable="0" parent="SIL7Wq156Bd5Dtq3TkI6-375">
          <mxGeometry x="0.1307" relative="1" as="geometry">
            <mxPoint x="-5" as="offset" />
          </mxGeometry>
        </mxCell>
        <mxCell id="SIL7Wq156Bd5Dtq3TkI6-377" style="edgeStyle=orthogonalEdgeStyle;rounded=0;orthogonalLoop=1;jettySize=auto;html=1;exitX=0.5;exitY=1;exitDx=0;exitDy=0;entryX=0.5;entryY=0;entryDx=0;entryDy=0;" edge="1" parent="SIL7Wq156Bd5Dtq3TkI6-343" source="SIL7Wq156Bd5Dtq3TkI6-381" target="SIL7Wq156Bd5Dtq3TkI6-384">
          <mxGeometry relative="1" as="geometry" />
        </mxCell>
        <mxCell id="SIL7Wq156Bd5Dtq3TkI6-378" value="Everyone" style="edgeLabel;html=1;align=center;verticalAlign=middle;resizable=0;points=[];" vertex="1" connectable="0" parent="SIL7Wq156Bd5Dtq3TkI6-377">
          <mxGeometry x="-0.0269" relative="1" as="geometry">
            <mxPoint as="offset" />
          </mxGeometry>
        </mxCell>
        <mxCell id="SIL7Wq156Bd5Dtq3TkI6-379" style="edgeStyle=orthogonalEdgeStyle;rounded=0;orthogonalLoop=1;jettySize=auto;html=1;exitX=0.75;exitY=1;exitDx=0;exitDy=0;entryX=0.5;entryY=0;entryDx=0;entryDy=0;" edge="1" parent="SIL7Wq156Bd5Dtq3TkI6-343" source="SIL7Wq156Bd5Dtq3TkI6-381" target="SIL7Wq156Bd5Dtq3TkI6-383">
          <mxGeometry relative="1" as="geometry" />
        </mxCell>
        <mxCell id="SIL7Wq156Bd5Dtq3TkI6-380" value="Some but not all" style="edgeLabel;html=1;align=center;verticalAlign=middle;resizable=0;points=[];" vertex="1" connectable="0" parent="SIL7Wq156Bd5Dtq3TkI6-379">
          <mxGeometry x="-0.0857" relative="1" as="geometry">
            <mxPoint x="-4" as="offset" />
          </mxGeometry>
        </mxCell>
        <mxCell id="SIL7Wq156Bd5Dtq3TkI6-381" value="Did anyone else guess that you were alone?" style="rounded=1;whiteSpace=wrap;html=1;" vertex="1" parent="SIL7Wq156Bd5Dtq3TkI6-343">
          <mxGeometry x="360" y="140" width="120" height="60" as="geometry" />
        </mxCell>
        <mxCell id="SIL7Wq156Bd5Dtq3TkI6-382" value="&lt;b&gt;+3 pts&lt;/b&gt;" style="rounded=1;whiteSpace=wrap;html=1;fillColor=#d5e8d4;strokeColor=#82b366;" vertex="1" parent="SIL7Wq156Bd5Dtq3TkI6-343">
          <mxGeometry x="520" y="140" width="120" height="60" as="geometry" />
        </mxCell>
        <mxCell id="SIL7Wq156Bd5Dtq3TkI6-383" value="&lt;b&gt;+2 pts&lt;/b&gt;" style="rounded=1;whiteSpace=wrap;html=1;fillColor=#d5e8d4;strokeColor=#82b366;" vertex="1" parent="SIL7Wq156Bd5Dtq3TkI6-343">
          <mxGeometry x="520" y="240" width="120" height="60" as="geometry" />
        </mxCell>
        <mxCell id="SIL7Wq156Bd5Dtq3TkI6-384" value="&lt;b&gt;+0 pts&lt;/b&gt;" style="rounded=1;whiteSpace=wrap;html=1;fillColor=#f8cecc;strokeColor=#b85450;" vertex="1" parent="SIL7Wq156Bd5Dtq3TkI6-343">
          <mxGeometry x="360" y="240" width="120" height="60" as="geometry" />
        </mxCell>
        <mxCell id="SIL7Wq156Bd5Dtq3TkI6-385" value="&lt;b&gt;+0 pts&lt;/b&gt;" style="rounded=1;whiteSpace=wrap;html=1;fillColor=#f8cecc;strokeColor=#b85450;" vertex="1" parent="SIL7Wq156Bd5Dtq3TkI6-343">
          <mxGeometry x="520" y="40" width="120" height="60" as="geometry" />
        </mxCell>
        <mxCell id="SIL7Wq156Bd5Dtq3TkI6-386" value="&lt;div&gt;&lt;font style=&quot;font-size: 18px;&quot;&gt;&lt;b&gt;Loners&lt;/b&gt;&lt;/font&gt;&lt;/div&gt;" style="text;html=1;align=center;verticalAlign=middle;whiteSpace=wrap;rounded=0;" vertex="1" parent="SIL7Wq156Bd5Dtq3TkI6-343">
          <mxGeometry x="470" width="60" height="30" as="geometry" />
        </mxCell>
        <mxCell id="SIL7Wq156Bd5Dtq3TkI6-387" style="edgeStyle=orthogonalEdgeStyle;rounded=0;orthogonalLoop=1;jettySize=auto;html=1;exitX=0.5;exitY=1;exitDx=0;exitDy=0;" edge="1" parent="SIL7Wq156Bd5Dtq3TkI6-343" source="SIL7Wq156Bd5Dtq3TkI6-345" target="SIL7Wq156Bd5Dtq3TkI6-345">
          <mxGeometry relative="1" as="geometry" />
        </mxCell>
        <mxCell id="SIL7Wq156Bd5Dtq3TkI6-388" value="" style="rounded=1;whiteSpace=wrap;html=1;fillColor=none;" vertex="1" parent="SIL7Wq156Bd5Dtq3TkI6-343">
          <mxGeometry x="1071" width="320" height="325" as="geometry" />
        </mxCell>
        <mxCell id="SIL7Wq156Bd5Dtq3TkI6-389" value="" style="rounded=1;whiteSpace=wrap;html=1;fillColor=none;" vertex="1" parent="SIL7Wq156Bd5Dtq3TkI6-343">
          <mxGeometry x="731" width="320" height="420" as="geometry" />
        </mxCell>
        <mxCell id="SIL7Wq156Bd5Dtq3TkI6-390" style="edgeStyle=orthogonalEdgeStyle;rounded=0;orthogonalLoop=1;jettySize=auto;html=1;entryX=0;entryY=0.5;entryDx=0;entryDy=0;" edge="1" parent="SIL7Wq156Bd5Dtq3TkI6-343" source="SIL7Wq156Bd5Dtq3TkI6-394" target="SIL7Wq156Bd5Dtq3TkI6-411">
          <mxGeometry relative="1" as="geometry" />
        </mxCell>
        <mxCell id="SIL7Wq156Bd5Dtq3TkI6-391" value="No" style="edgeLabel;html=1;align=center;verticalAlign=middle;resizable=0;points=[];" vertex="1" connectable="0" parent="SIL7Wq156Bd5Dtq3TkI6-390">
          <mxGeometry x="0.0254" y="-1" relative="1" as="geometry">
            <mxPoint x="-3" y="-1" as="offset" />
          </mxGeometry>
        </mxCell>
        <mxCell id="SIL7Wq156Bd5Dtq3TkI6-392" style="edgeStyle=orthogonalEdgeStyle;rounded=0;orthogonalLoop=1;jettySize=auto;html=1;entryX=0.5;entryY=0;entryDx=0;entryDy=0;" edge="1" parent="SIL7Wq156Bd5Dtq3TkI6-343" source="SIL7Wq156Bd5Dtq3TkI6-394" target="SIL7Wq156Bd5Dtq3TkI6-399">
          <mxGeometry relative="1" as="geometry" />
        </mxCell>
        <mxCell id="SIL7Wq156Bd5Dtq3TkI6-393" value="&lt;div&gt;Yes&lt;/div&gt;" style="edgeLabel;html=1;align=center;verticalAlign=middle;resizable=0;points=[];" vertex="1" connectable="0" parent="SIL7Wq156Bd5Dtq3TkI6-392">
          <mxGeometry x="0.0344" y="-2" relative="1" as="geometry">
            <mxPoint x="2" y="-1" as="offset" />
          </mxGeometry>
        </mxCell>
        <mxCell id="SIL7Wq156Bd5Dtq3TkI6-394" value="Did you guess your partner correctly?" style="rounded=1;whiteSpace=wrap;html=1;" vertex="1" parent="SIL7Wq156Bd5Dtq3TkI6-343">
          <mxGeometry x="751" y="40" width="120" height="60" as="geometry" />
        </mxCell>
        <mxCell id="SIL7Wq156Bd5Dtq3TkI6-395" style="edgeStyle=orthogonalEdgeStyle;rounded=0;orthogonalLoop=1;jettySize=auto;html=1;entryX=0;entryY=0.5;entryDx=0;entryDy=0;" edge="1" parent="SIL7Wq156Bd5Dtq3TkI6-343" source="SIL7Wq156Bd5Dtq3TkI6-399" target="SIL7Wq156Bd5Dtq3TkI6-412">
          <mxGeometry relative="1" as="geometry" />
        </mxCell>
        <mxCell id="SIL7Wq156Bd5Dtq3TkI6-396" value="&lt;div&gt;No&lt;/div&gt;" style="edgeLabel;html=1;align=center;verticalAlign=middle;resizable=0;points=[];" vertex="1" connectable="0" parent="SIL7Wq156Bd5Dtq3TkI6-395">
          <mxGeometry x="0.1833" y="1" relative="1" as="geometry">
            <mxPoint x="-6" y="1" as="offset" />
          </mxGeometry>
        </mxCell>
        <mxCell id="SIL7Wq156Bd5Dtq3TkI6-397" style="edgeStyle=orthogonalEdgeStyle;rounded=0;orthogonalLoop=1;jettySize=auto;html=1;entryX=0.5;entryY=0;entryDx=0;entryDy=0;" edge="1" parent="SIL7Wq156Bd5Dtq3TkI6-343" source="SIL7Wq156Bd5Dtq3TkI6-399" target="SIL7Wq156Bd5Dtq3TkI6-406">
          <mxGeometry relative="1" as="geometry" />
        </mxCell>
        <mxCell id="SIL7Wq156Bd5Dtq3TkI6-398" value="Yes" style="edgeLabel;html=1;align=center;verticalAlign=middle;resizable=0;points=[];" vertex="1" connectable="0" parent="SIL7Wq156Bd5Dtq3TkI6-397">
          <mxGeometry x="0.0414" y="-1" relative="1" as="geometry">
            <mxPoint x="1" y="-1" as="offset" />
          </mxGeometry>
        </mxCell>
        <mxCell id="SIL7Wq156Bd5Dtq3TkI6-399" value="Did they guess you correctly?" style="rounded=1;whiteSpace=wrap;html=1;" vertex="1" parent="SIL7Wq156Bd5Dtq3TkI6-343">
          <mxGeometry x="751" y="140" width="120" height="60" as="geometry" />
        </mxCell>
        <mxCell id="SIL7Wq156Bd5Dtq3TkI6-400" style="edgeStyle=orthogonalEdgeStyle;rounded=0;orthogonalLoop=1;jettySize=auto;html=1;entryX=0;entryY=0.5;entryDx=0;entryDy=0;" edge="1" parent="SIL7Wq156Bd5Dtq3TkI6-343" source="SIL7Wq156Bd5Dtq3TkI6-406" target="SIL7Wq156Bd5Dtq3TkI6-407">
          <mxGeometry relative="1" as="geometry" />
        </mxCell>
        <mxCell id="SIL7Wq156Bd5Dtq3TkI6-401" value="No" style="edgeLabel;html=1;align=center;verticalAlign=middle;resizable=0;points=[];" vertex="1" connectable="0" parent="SIL7Wq156Bd5Dtq3TkI6-400">
          <mxGeometry x="0.1307" relative="1" as="geometry">
            <mxPoint x="-5" as="offset" />
          </mxGeometry>
        </mxCell>
        <mxCell id="SIL7Wq156Bd5Dtq3TkI6-402" style="edgeStyle=orthogonalEdgeStyle;rounded=0;orthogonalLoop=1;jettySize=auto;html=1;exitX=0.5;exitY=1;exitDx=0;exitDy=0;entryX=0.5;entryY=0;entryDx=0;entryDy=0;" edge="1" parent="SIL7Wq156Bd5Dtq3TkI6-343" source="SIL7Wq156Bd5Dtq3TkI6-406" target="SIL7Wq156Bd5Dtq3TkI6-409">
          <mxGeometry relative="1" as="geometry" />
        </mxCell>
        <mxCell id="SIL7Wq156Bd5Dtq3TkI6-403" value="Everyone" style="edgeLabel;html=1;align=center;verticalAlign=middle;resizable=0;points=[];" vertex="1" connectable="0" parent="SIL7Wq156Bd5Dtq3TkI6-402">
          <mxGeometry x="-0.0269" relative="1" as="geometry">
            <mxPoint as="offset" />
          </mxGeometry>
        </mxCell>
        <mxCell id="SIL7Wq156Bd5Dtq3TkI6-404" style="edgeStyle=orthogonalEdgeStyle;rounded=0;orthogonalLoop=1;jettySize=auto;html=1;exitX=0.75;exitY=1;exitDx=0;exitDy=0;entryX=0.5;entryY=0;entryDx=0;entryDy=0;" edge="1" parent="SIL7Wq156Bd5Dtq3TkI6-343" source="SIL7Wq156Bd5Dtq3TkI6-406" target="SIL7Wq156Bd5Dtq3TkI6-408">
          <mxGeometry relative="1" as="geometry" />
        </mxCell>
        <mxCell id="SIL7Wq156Bd5Dtq3TkI6-405" value="Some but not all" style="edgeLabel;html=1;align=center;verticalAlign=middle;resizable=0;points=[];" vertex="1" connectable="0" parent="SIL7Wq156Bd5Dtq3TkI6-404">
          <mxGeometry x="-0.0857" relative="1" as="geometry">
            <mxPoint x="-4" as="offset" />
          </mxGeometry>
        </mxCell>
        <mxCell id="SIL7Wq156Bd5Dtq3TkI6-406" value="Did anyone else guess your partnership correctly?" style="rounded=1;whiteSpace=wrap;html=1;" vertex="1" parent="SIL7Wq156Bd5Dtq3TkI6-343">
          <mxGeometry x="751" y="240" width="120" height="60" as="geometry" />
        </mxCell>
        <mxCell id="SIL7Wq156Bd5Dtq3TkI6-407" value="&lt;b&gt;+3 pts&lt;/b&gt;" style="rounded=1;whiteSpace=wrap;html=1;fillColor=#d5e8d4;strokeColor=#82b366;" vertex="1" parent="SIL7Wq156Bd5Dtq3TkI6-343">
          <mxGeometry x="911" y="240" width="120" height="60" as="geometry" />
        </mxCell>
        <mxCell id="SIL7Wq156Bd5Dtq3TkI6-408" value="&lt;b&gt;+2 pts&lt;/b&gt;" style="rounded=1;whiteSpace=wrap;html=1;fillColor=#d5e8d4;strokeColor=#82b366;" vertex="1" parent="SIL7Wq156Bd5Dtq3TkI6-343">
          <mxGeometry x="911" y="340" width="120" height="60" as="geometry" />
        </mxCell>
        <mxCell id="SIL7Wq156Bd5Dtq3TkI6-409" value="&lt;b&gt;+0 pts&lt;/b&gt;" style="rounded=1;whiteSpace=wrap;html=1;fillColor=#f8cecc;strokeColor=#b85450;" vertex="1" parent="SIL7Wq156Bd5Dtq3TkI6-343">
          <mxGeometry x="751" y="340" width="120" height="60" as="geometry" />
        </mxCell>
        <mxCell id="SIL7Wq156Bd5Dtq3TkI6-410" value="&lt;b&gt;+1 pt&lt;/b&gt;&lt;br&gt;for each correct guess of other partners/loners" style="rounded=1;whiteSpace=wrap;html=1;fillColor=#d5e8d4;strokeColor=#82b366;" vertex="1" parent="SIL7Wq156Bd5Dtq3TkI6-343">
          <mxGeometry x="1071" y="340" width="310" height="70" as="geometry" />
        </mxCell>
        <mxCell id="SIL7Wq156Bd5Dtq3TkI6-411" value="&lt;b&gt;+0 pts&lt;/b&gt;" style="rounded=1;whiteSpace=wrap;html=1;fillColor=#f8cecc;strokeColor=#b85450;" vertex="1" parent="SIL7Wq156Bd5Dtq3TkI6-343">
          <mxGeometry x="911" y="40" width="120" height="60" as="geometry" />
        </mxCell>
        <mxCell id="SIL7Wq156Bd5Dtq3TkI6-412" value="&lt;b&gt;+0 pts&lt;/b&gt;" style="rounded=1;whiteSpace=wrap;html=1;fillColor=#f8cecc;strokeColor=#b85450;" vertex="1" parent="SIL7Wq156Bd5Dtq3TkI6-343">
          <mxGeometry x="911" y="140" width="120" height="60" as="geometry" />
        </mxCell>
        <mxCell id="SIL7Wq156Bd5Dtq3TkI6-413" value="&lt;font style=&quot;font-size: 18px;&quot;&gt;&lt;b&gt;Partners&lt;/b&gt;&lt;/font&gt;" style="text;html=1;align=center;verticalAlign=middle;whiteSpace=wrap;rounded=0;" vertex="1" parent="SIL7Wq156Bd5Dtq3TkI6-343">
          <mxGeometry x="861" width="60" height="30" as="geometry" />
        </mxCell>
        <mxCell id="SIL7Wq156Bd5Dtq3TkI6-414" style="edgeStyle=orthogonalEdgeStyle;rounded=0;orthogonalLoop=1;jettySize=auto;html=1;entryX=0;entryY=0.5;entryDx=0;entryDy=0;" edge="1" parent="SIL7Wq156Bd5Dtq3TkI6-343" source="SIL7Wq156Bd5Dtq3TkI6-418" target="SIL7Wq156Bd5Dtq3TkI6-429">
          <mxGeometry relative="1" as="geometry" />
        </mxCell>
        <mxCell id="SIL7Wq156Bd5Dtq3TkI6-415" value="No" style="edgeLabel;html=1;align=center;verticalAlign=middle;resizable=0;points=[];" vertex="1" connectable="0" parent="SIL7Wq156Bd5Dtq3TkI6-414">
          <mxGeometry x="0.0254" y="-1" relative="1" as="geometry">
            <mxPoint x="-3" y="-1" as="offset" />
          </mxGeometry>
        </mxCell>
        <mxCell id="SIL7Wq156Bd5Dtq3TkI6-416" style="edgeStyle=orthogonalEdgeStyle;rounded=0;orthogonalLoop=1;jettySize=auto;html=1;entryX=0.5;entryY=0;entryDx=0;entryDy=0;" edge="1" parent="SIL7Wq156Bd5Dtq3TkI6-343" source="SIL7Wq156Bd5Dtq3TkI6-418" target="SIL7Wq156Bd5Dtq3TkI6-425">
          <mxGeometry relative="1" as="geometry">
            <mxPoint x="1151" y="150" as="targetPoint" />
          </mxGeometry>
        </mxCell>
        <mxCell id="SIL7Wq156Bd5Dtq3TkI6-417" value="&lt;div&gt;Yes&lt;/div&gt;" style="edgeLabel;html=1;align=center;verticalAlign=middle;resizable=0;points=[];" vertex="1" connectable="0" parent="SIL7Wq156Bd5Dtq3TkI6-416">
          <mxGeometry x="-0.0433" relative="1" as="geometry">
            <mxPoint as="offset" />
          </mxGeometry>
        </mxCell>
        <mxCell id="SIL7Wq156Bd5Dtq3TkI6-418" value="Did you guess that you were alone?" style="rounded=1;whiteSpace=wrap;html=1;" vertex="1" parent="SIL7Wq156Bd5Dtq3TkI6-343">
          <mxGeometry x="1091" y="40" width="120" height="60" as="geometry" />
        </mxCell>
        <mxCell id="SIL7Wq156Bd5Dtq3TkI6-419" style="edgeStyle=orthogonalEdgeStyle;rounded=0;orthogonalLoop=1;jettySize=auto;html=1;entryX=0;entryY=0.5;entryDx=0;entryDy=0;" edge="1" parent="SIL7Wq156Bd5Dtq3TkI6-343" source="SIL7Wq156Bd5Dtq3TkI6-425" target="SIL7Wq156Bd5Dtq3TkI6-426">
          <mxGeometry relative="1" as="geometry" />
        </mxCell>
        <mxCell id="SIL7Wq156Bd5Dtq3TkI6-420" value="No" style="edgeLabel;html=1;align=center;verticalAlign=middle;resizable=0;points=[];" vertex="1" connectable="0" parent="SIL7Wq156Bd5Dtq3TkI6-419">
          <mxGeometry x="0.1307" relative="1" as="geometry">
            <mxPoint x="-5" as="offset" />
          </mxGeometry>
        </mxCell>
        <mxCell id="SIL7Wq156Bd5Dtq3TkI6-421" style="edgeStyle=orthogonalEdgeStyle;rounded=0;orthogonalLoop=1;jettySize=auto;html=1;exitX=0.5;exitY=1;exitDx=0;exitDy=0;entryX=0.5;entryY=0;entryDx=0;entryDy=0;" edge="1" parent="SIL7Wq156Bd5Dtq3TkI6-343" source="SIL7Wq156Bd5Dtq3TkI6-425" target="SIL7Wq156Bd5Dtq3TkI6-428">
          <mxGeometry relative="1" as="geometry" />
        </mxCell>
        <mxCell id="SIL7Wq156Bd5Dtq3TkI6-422" value="Everyone" style="edgeLabel;html=1;align=center;verticalAlign=middle;resizable=0;points=[];" vertex="1" connectable="0" parent="SIL7Wq156Bd5Dtq3TkI6-421">
          <mxGeometry x="-0.0269" relative="1" as="geometry">
            <mxPoint as="offset" />
          </mxGeometry>
        </mxCell>
        <mxCell id="SIL7Wq156Bd5Dtq3TkI6-423" style="edgeStyle=orthogonalEdgeStyle;rounded=0;orthogonalLoop=1;jettySize=auto;html=1;exitX=0.75;exitY=1;exitDx=0;exitDy=0;entryX=0.5;entryY=0;entryDx=0;entryDy=0;" edge="1" parent="SIL7Wq156Bd5Dtq3TkI6-343" source="SIL7Wq156Bd5Dtq3TkI6-425" target="SIL7Wq156Bd5Dtq3TkI6-427">
          <mxGeometry relative="1" as="geometry" />
        </mxCell>
        <mxCell id="SIL7Wq156Bd5Dtq3TkI6-424" value="Some but not all" style="edgeLabel;html=1;align=center;verticalAlign=middle;resizable=0;points=[];" vertex="1" connectable="0" parent="SIL7Wq156Bd5Dtq3TkI6-423">
          <mxGeometry x="-0.0857" relative="1" as="geometry">
            <mxPoint x="-4" as="offset" />
          </mxGeometry>
        </mxCell>
        <mxCell id="SIL7Wq156Bd5Dtq3TkI6-425" value="Did anyone else guess that you were alone?" style="rounded=1;whiteSpace=wrap;html=1;" vertex="1" parent="SIL7Wq156Bd5Dtq3TkI6-343">
          <mxGeometry x="1091" y="140" width="120" height="60" as="geometry" />
        </mxCell>
        <mxCell id="SIL7Wq156Bd5Dtq3TkI6-426" value="&lt;b&gt;+3 pts&lt;/b&gt;" style="rounded=1;whiteSpace=wrap;html=1;fillColor=#d5e8d4;strokeColor=#82b366;" vertex="1" parent="SIL7Wq156Bd5Dtq3TkI6-343">
          <mxGeometry x="1251" y="140" width="120" height="60" as="geometry" />
        </mxCell>
        <mxCell id="SIL7Wq156Bd5Dtq3TkI6-427" value="&lt;b&gt;+2 pts&lt;/b&gt;" style="rounded=1;whiteSpace=wrap;html=1;fillColor=#d5e8d4;strokeColor=#82b366;" vertex="1" parent="SIL7Wq156Bd5Dtq3TkI6-343">
          <mxGeometry x="1251" y="240" width="120" height="60" as="geometry" />
        </mxCell>
        <mxCell id="SIL7Wq156Bd5Dtq3TkI6-428" value="&lt;b&gt;+0 pts&lt;/b&gt;" style="rounded=1;whiteSpace=wrap;html=1;fillColor=#f8cecc;strokeColor=#b85450;" vertex="1" parent="SIL7Wq156Bd5Dtq3TkI6-343">
          <mxGeometry x="1091" y="240" width="120" height="60" as="geometry" />
        </mxCell>
        <mxCell id="SIL7Wq156Bd5Dtq3TkI6-429" value="&lt;b&gt;+0 pts&lt;/b&gt;" style="rounded=1;whiteSpace=wrap;html=1;fillColor=#f8cecc;strokeColor=#b85450;" vertex="1" parent="SIL7Wq156Bd5Dtq3TkI6-343">
          <mxGeometry x="1251" y="40" width="120" height="60" as="geometry" />
        </mxCell>
        <mxCell id="SIL7Wq156Bd5Dtq3TkI6-430" value="&lt;div&gt;&lt;font style=&quot;font-size: 18px;&quot;&gt;&lt;b&gt;Loners&lt;/b&gt;&lt;/font&gt;&lt;/div&gt;" style="text;html=1;align=center;verticalAlign=middle;whiteSpace=wrap;rounded=0;" vertex="1" parent="SIL7Wq156Bd5Dtq3TkI6-343">
          <mxGeometry x="1201" width="60" height="30" as="geometry" />
        </mxCell>
        <mxCell id="SIL7Wq156Bd5Dtq3TkI6-431" style="edgeStyle=orthogonalEdgeStyle;rounded=0;orthogonalLoop=1;jettySize=auto;html=1;exitX=0.5;exitY=1;exitDx=0;exitDy=0;" edge="1" parent="SIL7Wq156Bd5Dtq3TkI6-343" source="SIL7Wq156Bd5Dtq3TkI6-389" target="SIL7Wq156Bd5Dtq3TkI6-389">
          <mxGeometry relative="1" as="geometry" />
        </mxCell>
        <mxCell id="SIL7Wq156Bd5Dtq3TkI6-432" value="" style="group" vertex="1" connectable="0" parent="1">
          <mxGeometry x="36" y="1880" width="1391" height="420" as="geometry" />
        </mxCell>
        <mxCell id="SIL7Wq156Bd5Dtq3TkI6-433" value="" style="rounded=1;whiteSpace=wrap;html=1;fillColor=none;" vertex="1" parent="SIL7Wq156Bd5Dtq3TkI6-432">
          <mxGeometry x="340" width="320" height="325" as="geometry" />
        </mxCell>
        <mxCell id="SIL7Wq156Bd5Dtq3TkI6-434" value="" style="rounded=1;whiteSpace=wrap;html=1;fillColor=none;" vertex="1" parent="SIL7Wq156Bd5Dtq3TkI6-432">
          <mxGeometry width="320" height="420" as="geometry" />
        </mxCell>
        <mxCell id="SIL7Wq156Bd5Dtq3TkI6-435" style="edgeStyle=orthogonalEdgeStyle;rounded=0;orthogonalLoop=1;jettySize=auto;html=1;entryX=0;entryY=0.5;entryDx=0;entryDy=0;" edge="1" parent="SIL7Wq156Bd5Dtq3TkI6-432" source="SIL7Wq156Bd5Dtq3TkI6-439" target="SIL7Wq156Bd5Dtq3TkI6-456">
          <mxGeometry relative="1" as="geometry" />
        </mxCell>
        <mxCell id="SIL7Wq156Bd5Dtq3TkI6-436" value="No" style="edgeLabel;html=1;align=center;verticalAlign=middle;resizable=0;points=[];" vertex="1" connectable="0" parent="SIL7Wq156Bd5Dtq3TkI6-435">
          <mxGeometry x="0.0254" y="-1" relative="1" as="geometry">
            <mxPoint x="-3" y="-1" as="offset" />
          </mxGeometry>
        </mxCell>
        <mxCell id="SIL7Wq156Bd5Dtq3TkI6-437" style="edgeStyle=orthogonalEdgeStyle;rounded=0;orthogonalLoop=1;jettySize=auto;html=1;entryX=0.5;entryY=0;entryDx=0;entryDy=0;" edge="1" parent="SIL7Wq156Bd5Dtq3TkI6-432" source="SIL7Wq156Bd5Dtq3TkI6-439" target="SIL7Wq156Bd5Dtq3TkI6-444">
          <mxGeometry relative="1" as="geometry" />
        </mxCell>
        <mxCell id="SIL7Wq156Bd5Dtq3TkI6-438" value="&lt;div&gt;Yes&lt;/div&gt;" style="edgeLabel;html=1;align=center;verticalAlign=middle;resizable=0;points=[];" vertex="1" connectable="0" parent="SIL7Wq156Bd5Dtq3TkI6-437">
          <mxGeometry x="0.0344" y="-2" relative="1" as="geometry">
            <mxPoint x="2" y="-1" as="offset" />
          </mxGeometry>
        </mxCell>
        <mxCell id="SIL7Wq156Bd5Dtq3TkI6-439" value="Did you guess your partner correctly?" style="rounded=1;whiteSpace=wrap;html=1;" vertex="1" parent="SIL7Wq156Bd5Dtq3TkI6-432">
          <mxGeometry x="20" y="40" width="120" height="60" as="geometry" />
        </mxCell>
        <mxCell id="SIL7Wq156Bd5Dtq3TkI6-440" style="edgeStyle=orthogonalEdgeStyle;rounded=0;orthogonalLoop=1;jettySize=auto;html=1;entryX=0;entryY=0.5;entryDx=0;entryDy=0;" edge="1" parent="SIL7Wq156Bd5Dtq3TkI6-432" source="SIL7Wq156Bd5Dtq3TkI6-444" target="SIL7Wq156Bd5Dtq3TkI6-457">
          <mxGeometry relative="1" as="geometry" />
        </mxCell>
        <mxCell id="SIL7Wq156Bd5Dtq3TkI6-441" value="&lt;div&gt;No&lt;/div&gt;" style="edgeLabel;html=1;align=center;verticalAlign=middle;resizable=0;points=[];" vertex="1" connectable="0" parent="SIL7Wq156Bd5Dtq3TkI6-440">
          <mxGeometry x="0.1833" y="1" relative="1" as="geometry">
            <mxPoint x="-6" y="1" as="offset" />
          </mxGeometry>
        </mxCell>
        <mxCell id="SIL7Wq156Bd5Dtq3TkI6-442" style="edgeStyle=orthogonalEdgeStyle;rounded=0;orthogonalLoop=1;jettySize=auto;html=1;entryX=0.5;entryY=0;entryDx=0;entryDy=0;" edge="1" parent="SIL7Wq156Bd5Dtq3TkI6-432" source="SIL7Wq156Bd5Dtq3TkI6-444" target="SIL7Wq156Bd5Dtq3TkI6-451">
          <mxGeometry relative="1" as="geometry" />
        </mxCell>
        <mxCell id="SIL7Wq156Bd5Dtq3TkI6-443" value="Yes" style="edgeLabel;html=1;align=center;verticalAlign=middle;resizable=0;points=[];" vertex="1" connectable="0" parent="SIL7Wq156Bd5Dtq3TkI6-442">
          <mxGeometry x="0.0414" y="-1" relative="1" as="geometry">
            <mxPoint x="1" y="-1" as="offset" />
          </mxGeometry>
        </mxCell>
        <mxCell id="SIL7Wq156Bd5Dtq3TkI6-444" value="Did they guess you correctly?" style="rounded=1;whiteSpace=wrap;html=1;" vertex="1" parent="SIL7Wq156Bd5Dtq3TkI6-432">
          <mxGeometry x="20" y="140" width="120" height="60" as="geometry" />
        </mxCell>
        <mxCell id="SIL7Wq156Bd5Dtq3TkI6-445" style="edgeStyle=orthogonalEdgeStyle;rounded=0;orthogonalLoop=1;jettySize=auto;html=1;entryX=0;entryY=0.5;entryDx=0;entryDy=0;" edge="1" parent="SIL7Wq156Bd5Dtq3TkI6-432" source="SIL7Wq156Bd5Dtq3TkI6-451" target="SIL7Wq156Bd5Dtq3TkI6-452">
          <mxGeometry relative="1" as="geometry" />
        </mxCell>
        <mxCell id="SIL7Wq156Bd5Dtq3TkI6-446" value="No" style="edgeLabel;html=1;align=center;verticalAlign=middle;resizable=0;points=[];" vertex="1" connectable="0" parent="SIL7Wq156Bd5Dtq3TkI6-445">
          <mxGeometry x="0.1307" relative="1" as="geometry">
            <mxPoint x="-5" as="offset" />
          </mxGeometry>
        </mxCell>
        <mxCell id="SIL7Wq156Bd5Dtq3TkI6-447" style="edgeStyle=orthogonalEdgeStyle;rounded=0;orthogonalLoop=1;jettySize=auto;html=1;exitX=0.5;exitY=1;exitDx=0;exitDy=0;entryX=0.5;entryY=0;entryDx=0;entryDy=0;" edge="1" parent="SIL7Wq156Bd5Dtq3TkI6-432" source="SIL7Wq156Bd5Dtq3TkI6-451" target="SIL7Wq156Bd5Dtq3TkI6-454">
          <mxGeometry relative="1" as="geometry" />
        </mxCell>
        <mxCell id="SIL7Wq156Bd5Dtq3TkI6-448" value="Everyone" style="edgeLabel;html=1;align=center;verticalAlign=middle;resizable=0;points=[];" vertex="1" connectable="0" parent="SIL7Wq156Bd5Dtq3TkI6-447">
          <mxGeometry x="-0.0269" relative="1" as="geometry">
            <mxPoint as="offset" />
          </mxGeometry>
        </mxCell>
        <mxCell id="SIL7Wq156Bd5Dtq3TkI6-449" style="edgeStyle=orthogonalEdgeStyle;rounded=0;orthogonalLoop=1;jettySize=auto;html=1;exitX=0.75;exitY=1;exitDx=0;exitDy=0;entryX=0.5;entryY=0;entryDx=0;entryDy=0;" edge="1" parent="SIL7Wq156Bd5Dtq3TkI6-432" source="SIL7Wq156Bd5Dtq3TkI6-451" target="SIL7Wq156Bd5Dtq3TkI6-453">
          <mxGeometry relative="1" as="geometry" />
        </mxCell>
        <mxCell id="SIL7Wq156Bd5Dtq3TkI6-450" value="Some but not all" style="edgeLabel;html=1;align=center;verticalAlign=middle;resizable=0;points=[];" vertex="1" connectable="0" parent="SIL7Wq156Bd5Dtq3TkI6-449">
          <mxGeometry x="-0.0857" relative="1" as="geometry">
            <mxPoint x="-4" as="offset" />
          </mxGeometry>
        </mxCell>
        <mxCell id="SIL7Wq156Bd5Dtq3TkI6-451" value="Did anyone else guess your partnership correctly?" style="rounded=1;whiteSpace=wrap;html=1;" vertex="1" parent="SIL7Wq156Bd5Dtq3TkI6-432">
          <mxGeometry x="20" y="240" width="120" height="60" as="geometry" />
        </mxCell>
        <mxCell id="SIL7Wq156Bd5Dtq3TkI6-452" value="&lt;b&gt;+3 pts&lt;/b&gt;" style="rounded=1;whiteSpace=wrap;html=1;fillColor=#d5e8d4;strokeColor=#82b366;" vertex="1" parent="SIL7Wq156Bd5Dtq3TkI6-432">
          <mxGeometry x="180" y="240" width="120" height="60" as="geometry" />
        </mxCell>
        <mxCell id="SIL7Wq156Bd5Dtq3TkI6-453" value="&lt;b&gt;+2 pts&lt;/b&gt;" style="rounded=1;whiteSpace=wrap;html=1;fillColor=#d5e8d4;strokeColor=#82b366;" vertex="1" parent="SIL7Wq156Bd5Dtq3TkI6-432">
          <mxGeometry x="180" y="340" width="120" height="60" as="geometry" />
        </mxCell>
        <mxCell id="SIL7Wq156Bd5Dtq3TkI6-454" value="&lt;b&gt;+0 pts&lt;/b&gt;" style="rounded=1;whiteSpace=wrap;html=1;fillColor=#f8cecc;strokeColor=#b85450;" vertex="1" parent="SIL7Wq156Bd5Dtq3TkI6-432">
          <mxGeometry x="20" y="340" width="120" height="60" as="geometry" />
        </mxCell>
        <mxCell id="SIL7Wq156Bd5Dtq3TkI6-455" value="&lt;b&gt;+1 pt&lt;/b&gt;&lt;br&gt;for each correct guess of other partners/loners" style="rounded=1;whiteSpace=wrap;html=1;fillColor=#d5e8d4;strokeColor=#82b366;" vertex="1" parent="SIL7Wq156Bd5Dtq3TkI6-432">
          <mxGeometry x="340" y="340" width="310" height="70" as="geometry" />
        </mxCell>
        <mxCell id="SIL7Wq156Bd5Dtq3TkI6-456" value="&lt;b&gt;+0 pts&lt;/b&gt;" style="rounded=1;whiteSpace=wrap;html=1;fillColor=#f8cecc;strokeColor=#b85450;" vertex="1" parent="SIL7Wq156Bd5Dtq3TkI6-432">
          <mxGeometry x="180" y="40" width="120" height="60" as="geometry" />
        </mxCell>
        <mxCell id="SIL7Wq156Bd5Dtq3TkI6-457" value="&lt;b&gt;+0 pts&lt;/b&gt;" style="rounded=1;whiteSpace=wrap;html=1;fillColor=#f8cecc;strokeColor=#b85450;" vertex="1" parent="SIL7Wq156Bd5Dtq3TkI6-432">
          <mxGeometry x="180" y="140" width="120" height="60" as="geometry" />
        </mxCell>
        <mxCell id="SIL7Wq156Bd5Dtq3TkI6-458" value="&lt;font style=&quot;font-size: 18px;&quot;&gt;&lt;b&gt;Partners&lt;/b&gt;&lt;/font&gt;" style="text;html=1;align=center;verticalAlign=middle;whiteSpace=wrap;rounded=0;" vertex="1" parent="SIL7Wq156Bd5Dtq3TkI6-432">
          <mxGeometry x="130" width="60" height="30" as="geometry" />
        </mxCell>
        <mxCell id="SIL7Wq156Bd5Dtq3TkI6-459" style="edgeStyle=orthogonalEdgeStyle;rounded=0;orthogonalLoop=1;jettySize=auto;html=1;entryX=0;entryY=0.5;entryDx=0;entryDy=0;" edge="1" parent="SIL7Wq156Bd5Dtq3TkI6-432" source="SIL7Wq156Bd5Dtq3TkI6-463" target="SIL7Wq156Bd5Dtq3TkI6-474">
          <mxGeometry relative="1" as="geometry" />
        </mxCell>
        <mxCell id="SIL7Wq156Bd5Dtq3TkI6-460" value="No" style="edgeLabel;html=1;align=center;verticalAlign=middle;resizable=0;points=[];" vertex="1" connectable="0" parent="SIL7Wq156Bd5Dtq3TkI6-459">
          <mxGeometry x="0.0254" y="-1" relative="1" as="geometry">
            <mxPoint x="-3" y="-1" as="offset" />
          </mxGeometry>
        </mxCell>
        <mxCell id="SIL7Wq156Bd5Dtq3TkI6-461" style="edgeStyle=orthogonalEdgeStyle;rounded=0;orthogonalLoop=1;jettySize=auto;html=1;entryX=0.5;entryY=0;entryDx=0;entryDy=0;" edge="1" parent="SIL7Wq156Bd5Dtq3TkI6-432" source="SIL7Wq156Bd5Dtq3TkI6-463" target="SIL7Wq156Bd5Dtq3TkI6-470">
          <mxGeometry relative="1" as="geometry">
            <mxPoint x="420" y="150" as="targetPoint" />
          </mxGeometry>
        </mxCell>
        <mxCell id="SIL7Wq156Bd5Dtq3TkI6-462" value="&lt;div&gt;Yes&lt;/div&gt;" style="edgeLabel;html=1;align=center;verticalAlign=middle;resizable=0;points=[];" vertex="1" connectable="0" parent="SIL7Wq156Bd5Dtq3TkI6-461">
          <mxGeometry x="-0.0433" relative="1" as="geometry">
            <mxPoint as="offset" />
          </mxGeometry>
        </mxCell>
        <mxCell id="SIL7Wq156Bd5Dtq3TkI6-463" value="Did you guess that you were alone?" style="rounded=1;whiteSpace=wrap;html=1;" vertex="1" parent="SIL7Wq156Bd5Dtq3TkI6-432">
          <mxGeometry x="360" y="40" width="120" height="60" as="geometry" />
        </mxCell>
        <mxCell id="SIL7Wq156Bd5Dtq3TkI6-464" style="edgeStyle=orthogonalEdgeStyle;rounded=0;orthogonalLoop=1;jettySize=auto;html=1;entryX=0;entryY=0.5;entryDx=0;entryDy=0;" edge="1" parent="SIL7Wq156Bd5Dtq3TkI6-432" source="SIL7Wq156Bd5Dtq3TkI6-470" target="SIL7Wq156Bd5Dtq3TkI6-471">
          <mxGeometry relative="1" as="geometry" />
        </mxCell>
        <mxCell id="SIL7Wq156Bd5Dtq3TkI6-465" value="No" style="edgeLabel;html=1;align=center;verticalAlign=middle;resizable=0;points=[];" vertex="1" connectable="0" parent="SIL7Wq156Bd5Dtq3TkI6-464">
          <mxGeometry x="0.1307" relative="1" as="geometry">
            <mxPoint x="-5" as="offset" />
          </mxGeometry>
        </mxCell>
        <mxCell id="SIL7Wq156Bd5Dtq3TkI6-466" style="edgeStyle=orthogonalEdgeStyle;rounded=0;orthogonalLoop=1;jettySize=auto;html=1;exitX=0.5;exitY=1;exitDx=0;exitDy=0;entryX=0.5;entryY=0;entryDx=0;entryDy=0;" edge="1" parent="SIL7Wq156Bd5Dtq3TkI6-432" source="SIL7Wq156Bd5Dtq3TkI6-470" target="SIL7Wq156Bd5Dtq3TkI6-473">
          <mxGeometry relative="1" as="geometry" />
        </mxCell>
        <mxCell id="SIL7Wq156Bd5Dtq3TkI6-467" value="Everyone" style="edgeLabel;html=1;align=center;verticalAlign=middle;resizable=0;points=[];" vertex="1" connectable="0" parent="SIL7Wq156Bd5Dtq3TkI6-466">
          <mxGeometry x="-0.0269" relative="1" as="geometry">
            <mxPoint as="offset" />
          </mxGeometry>
        </mxCell>
        <mxCell id="SIL7Wq156Bd5Dtq3TkI6-468" style="edgeStyle=orthogonalEdgeStyle;rounded=0;orthogonalLoop=1;jettySize=auto;html=1;exitX=0.75;exitY=1;exitDx=0;exitDy=0;entryX=0.5;entryY=0;entryDx=0;entryDy=0;" edge="1" parent="SIL7Wq156Bd5Dtq3TkI6-432" source="SIL7Wq156Bd5Dtq3TkI6-470" target="SIL7Wq156Bd5Dtq3TkI6-472">
          <mxGeometry relative="1" as="geometry" />
        </mxCell>
        <mxCell id="SIL7Wq156Bd5Dtq3TkI6-469" value="Some but not all" style="edgeLabel;html=1;align=center;verticalAlign=middle;resizable=0;points=[];" vertex="1" connectable="0" parent="SIL7Wq156Bd5Dtq3TkI6-468">
          <mxGeometry x="-0.0857" relative="1" as="geometry">
            <mxPoint x="-4" as="offset" />
          </mxGeometry>
        </mxCell>
        <mxCell id="SIL7Wq156Bd5Dtq3TkI6-470" value="Did anyone else guess that you were alone?" style="rounded=1;whiteSpace=wrap;html=1;" vertex="1" parent="SIL7Wq156Bd5Dtq3TkI6-432">
          <mxGeometry x="360" y="140" width="120" height="60" as="geometry" />
        </mxCell>
        <mxCell id="SIL7Wq156Bd5Dtq3TkI6-471" value="&lt;b&gt;+3 pts&lt;/b&gt;" style="rounded=1;whiteSpace=wrap;html=1;fillColor=#d5e8d4;strokeColor=#82b366;" vertex="1" parent="SIL7Wq156Bd5Dtq3TkI6-432">
          <mxGeometry x="520" y="140" width="120" height="60" as="geometry" />
        </mxCell>
        <mxCell id="SIL7Wq156Bd5Dtq3TkI6-472" value="&lt;b&gt;+2 pts&lt;/b&gt;" style="rounded=1;whiteSpace=wrap;html=1;fillColor=#d5e8d4;strokeColor=#82b366;" vertex="1" parent="SIL7Wq156Bd5Dtq3TkI6-432">
          <mxGeometry x="520" y="240" width="120" height="60" as="geometry" />
        </mxCell>
        <mxCell id="SIL7Wq156Bd5Dtq3TkI6-473" value="&lt;b&gt;+0 pts&lt;/b&gt;" style="rounded=1;whiteSpace=wrap;html=1;fillColor=#f8cecc;strokeColor=#b85450;" vertex="1" parent="SIL7Wq156Bd5Dtq3TkI6-432">
          <mxGeometry x="360" y="240" width="120" height="60" as="geometry" />
        </mxCell>
        <mxCell id="SIL7Wq156Bd5Dtq3TkI6-474" value="&lt;b&gt;+0 pts&lt;/b&gt;" style="rounded=1;whiteSpace=wrap;html=1;fillColor=#f8cecc;strokeColor=#b85450;" vertex="1" parent="SIL7Wq156Bd5Dtq3TkI6-432">
          <mxGeometry x="520" y="40" width="120" height="60" as="geometry" />
        </mxCell>
        <mxCell id="SIL7Wq156Bd5Dtq3TkI6-475" value="&lt;div&gt;&lt;font style=&quot;font-size: 18px;&quot;&gt;&lt;b&gt;Loners&lt;/b&gt;&lt;/font&gt;&lt;/div&gt;" style="text;html=1;align=center;verticalAlign=middle;whiteSpace=wrap;rounded=0;" vertex="1" parent="SIL7Wq156Bd5Dtq3TkI6-432">
          <mxGeometry x="470" width="60" height="30" as="geometry" />
        </mxCell>
        <mxCell id="SIL7Wq156Bd5Dtq3TkI6-476" style="edgeStyle=orthogonalEdgeStyle;rounded=0;orthogonalLoop=1;jettySize=auto;html=1;exitX=0.5;exitY=1;exitDx=0;exitDy=0;" edge="1" parent="SIL7Wq156Bd5Dtq3TkI6-432" source="SIL7Wq156Bd5Dtq3TkI6-434" target="SIL7Wq156Bd5Dtq3TkI6-434">
          <mxGeometry relative="1" as="geometry" />
        </mxCell>
        <mxCell id="SIL7Wq156Bd5Dtq3TkI6-477" value="" style="rounded=1;whiteSpace=wrap;html=1;fillColor=none;" vertex="1" parent="SIL7Wq156Bd5Dtq3TkI6-432">
          <mxGeometry x="1071" width="320" height="325" as="geometry" />
        </mxCell>
        <mxCell id="SIL7Wq156Bd5Dtq3TkI6-478" value="" style="rounded=1;whiteSpace=wrap;html=1;fillColor=none;" vertex="1" parent="SIL7Wq156Bd5Dtq3TkI6-432">
          <mxGeometry x="731" width="320" height="420" as="geometry" />
        </mxCell>
        <mxCell id="SIL7Wq156Bd5Dtq3TkI6-479" style="edgeStyle=orthogonalEdgeStyle;rounded=0;orthogonalLoop=1;jettySize=auto;html=1;entryX=0;entryY=0.5;entryDx=0;entryDy=0;" edge="1" parent="SIL7Wq156Bd5Dtq3TkI6-432" source="SIL7Wq156Bd5Dtq3TkI6-483" target="SIL7Wq156Bd5Dtq3TkI6-500">
          <mxGeometry relative="1" as="geometry" />
        </mxCell>
        <mxCell id="SIL7Wq156Bd5Dtq3TkI6-480" value="No" style="edgeLabel;html=1;align=center;verticalAlign=middle;resizable=0;points=[];" vertex="1" connectable="0" parent="SIL7Wq156Bd5Dtq3TkI6-479">
          <mxGeometry x="0.0254" y="-1" relative="1" as="geometry">
            <mxPoint x="-3" y="-1" as="offset" />
          </mxGeometry>
        </mxCell>
        <mxCell id="SIL7Wq156Bd5Dtq3TkI6-481" style="edgeStyle=orthogonalEdgeStyle;rounded=0;orthogonalLoop=1;jettySize=auto;html=1;entryX=0.5;entryY=0;entryDx=0;entryDy=0;" edge="1" parent="SIL7Wq156Bd5Dtq3TkI6-432" source="SIL7Wq156Bd5Dtq3TkI6-483" target="SIL7Wq156Bd5Dtq3TkI6-488">
          <mxGeometry relative="1" as="geometry" />
        </mxCell>
        <mxCell id="SIL7Wq156Bd5Dtq3TkI6-482" value="&lt;div&gt;Yes&lt;/div&gt;" style="edgeLabel;html=1;align=center;verticalAlign=middle;resizable=0;points=[];" vertex="1" connectable="0" parent="SIL7Wq156Bd5Dtq3TkI6-481">
          <mxGeometry x="0.0344" y="-2" relative="1" as="geometry">
            <mxPoint x="2" y="-1" as="offset" />
          </mxGeometry>
        </mxCell>
        <mxCell id="SIL7Wq156Bd5Dtq3TkI6-483" value="Did you guess your partner correctly?" style="rounded=1;whiteSpace=wrap;html=1;" vertex="1" parent="SIL7Wq156Bd5Dtq3TkI6-432">
          <mxGeometry x="751" y="40" width="120" height="60" as="geometry" />
        </mxCell>
        <mxCell id="SIL7Wq156Bd5Dtq3TkI6-484" style="edgeStyle=orthogonalEdgeStyle;rounded=0;orthogonalLoop=1;jettySize=auto;html=1;entryX=0;entryY=0.5;entryDx=0;entryDy=0;" edge="1" parent="SIL7Wq156Bd5Dtq3TkI6-432" source="SIL7Wq156Bd5Dtq3TkI6-488" target="SIL7Wq156Bd5Dtq3TkI6-501">
          <mxGeometry relative="1" as="geometry" />
        </mxCell>
        <mxCell id="SIL7Wq156Bd5Dtq3TkI6-485" value="&lt;div&gt;No&lt;/div&gt;" style="edgeLabel;html=1;align=center;verticalAlign=middle;resizable=0;points=[];" vertex="1" connectable="0" parent="SIL7Wq156Bd5Dtq3TkI6-484">
          <mxGeometry x="0.1833" y="1" relative="1" as="geometry">
            <mxPoint x="-6" y="1" as="offset" />
          </mxGeometry>
        </mxCell>
        <mxCell id="SIL7Wq156Bd5Dtq3TkI6-486" style="edgeStyle=orthogonalEdgeStyle;rounded=0;orthogonalLoop=1;jettySize=auto;html=1;entryX=0.5;entryY=0;entryDx=0;entryDy=0;" edge="1" parent="SIL7Wq156Bd5Dtq3TkI6-432" source="SIL7Wq156Bd5Dtq3TkI6-488" target="SIL7Wq156Bd5Dtq3TkI6-495">
          <mxGeometry relative="1" as="geometry" />
        </mxCell>
        <mxCell id="SIL7Wq156Bd5Dtq3TkI6-487" value="Yes" style="edgeLabel;html=1;align=center;verticalAlign=middle;resizable=0;points=[];" vertex="1" connectable="0" parent="SIL7Wq156Bd5Dtq3TkI6-486">
          <mxGeometry x="0.0414" y="-1" relative="1" as="geometry">
            <mxPoint x="1" y="-1" as="offset" />
          </mxGeometry>
        </mxCell>
        <mxCell id="SIL7Wq156Bd5Dtq3TkI6-488" value="Did they guess you correctly?" style="rounded=1;whiteSpace=wrap;html=1;" vertex="1" parent="SIL7Wq156Bd5Dtq3TkI6-432">
          <mxGeometry x="751" y="140" width="120" height="60" as="geometry" />
        </mxCell>
        <mxCell id="SIL7Wq156Bd5Dtq3TkI6-489" style="edgeStyle=orthogonalEdgeStyle;rounded=0;orthogonalLoop=1;jettySize=auto;html=1;entryX=0;entryY=0.5;entryDx=0;entryDy=0;" edge="1" parent="SIL7Wq156Bd5Dtq3TkI6-432" source="SIL7Wq156Bd5Dtq3TkI6-495" target="SIL7Wq156Bd5Dtq3TkI6-496">
          <mxGeometry relative="1" as="geometry" />
        </mxCell>
        <mxCell id="SIL7Wq156Bd5Dtq3TkI6-490" value="No" style="edgeLabel;html=1;align=center;verticalAlign=middle;resizable=0;points=[];" vertex="1" connectable="0" parent="SIL7Wq156Bd5Dtq3TkI6-489">
          <mxGeometry x="0.1307" relative="1" as="geometry">
            <mxPoint x="-5" as="offset" />
          </mxGeometry>
        </mxCell>
        <mxCell id="SIL7Wq156Bd5Dtq3TkI6-491" style="edgeStyle=orthogonalEdgeStyle;rounded=0;orthogonalLoop=1;jettySize=auto;html=1;exitX=0.5;exitY=1;exitDx=0;exitDy=0;entryX=0.5;entryY=0;entryDx=0;entryDy=0;" edge="1" parent="SIL7Wq156Bd5Dtq3TkI6-432" source="SIL7Wq156Bd5Dtq3TkI6-495" target="SIL7Wq156Bd5Dtq3TkI6-498">
          <mxGeometry relative="1" as="geometry" />
        </mxCell>
        <mxCell id="SIL7Wq156Bd5Dtq3TkI6-492" value="Everyone" style="edgeLabel;html=1;align=center;verticalAlign=middle;resizable=0;points=[];" vertex="1" connectable="0" parent="SIL7Wq156Bd5Dtq3TkI6-491">
          <mxGeometry x="-0.0269" relative="1" as="geometry">
            <mxPoint as="offset" />
          </mxGeometry>
        </mxCell>
        <mxCell id="SIL7Wq156Bd5Dtq3TkI6-493" style="edgeStyle=orthogonalEdgeStyle;rounded=0;orthogonalLoop=1;jettySize=auto;html=1;exitX=0.75;exitY=1;exitDx=0;exitDy=0;entryX=0.5;entryY=0;entryDx=0;entryDy=0;" edge="1" parent="SIL7Wq156Bd5Dtq3TkI6-432" source="SIL7Wq156Bd5Dtq3TkI6-495" target="SIL7Wq156Bd5Dtq3TkI6-497">
          <mxGeometry relative="1" as="geometry" />
        </mxCell>
        <mxCell id="SIL7Wq156Bd5Dtq3TkI6-494" value="Some but not all" style="edgeLabel;html=1;align=center;verticalAlign=middle;resizable=0;points=[];" vertex="1" connectable="0" parent="SIL7Wq156Bd5Dtq3TkI6-493">
          <mxGeometry x="-0.0857" relative="1" as="geometry">
            <mxPoint x="-4" as="offset" />
          </mxGeometry>
        </mxCell>
        <mxCell id="SIL7Wq156Bd5Dtq3TkI6-495" value="Did anyone else guess your partnership correctly?" style="rounded=1;whiteSpace=wrap;html=1;" vertex="1" parent="SIL7Wq156Bd5Dtq3TkI6-432">
          <mxGeometry x="751" y="240" width="120" height="60" as="geometry" />
        </mxCell>
        <mxCell id="SIL7Wq156Bd5Dtq3TkI6-496" value="&lt;b&gt;+3 pts&lt;/b&gt;" style="rounded=1;whiteSpace=wrap;html=1;fillColor=#d5e8d4;strokeColor=#82b366;" vertex="1" parent="SIL7Wq156Bd5Dtq3TkI6-432">
          <mxGeometry x="911" y="240" width="120" height="60" as="geometry" />
        </mxCell>
        <mxCell id="SIL7Wq156Bd5Dtq3TkI6-497" value="&lt;b&gt;+2 pts&lt;/b&gt;" style="rounded=1;whiteSpace=wrap;html=1;fillColor=#d5e8d4;strokeColor=#82b366;" vertex="1" parent="SIL7Wq156Bd5Dtq3TkI6-432">
          <mxGeometry x="911" y="340" width="120" height="60" as="geometry" />
        </mxCell>
        <mxCell id="SIL7Wq156Bd5Dtq3TkI6-498" value="&lt;b&gt;+0 pts&lt;/b&gt;" style="rounded=1;whiteSpace=wrap;html=1;fillColor=#f8cecc;strokeColor=#b85450;" vertex="1" parent="SIL7Wq156Bd5Dtq3TkI6-432">
          <mxGeometry x="751" y="340" width="120" height="60" as="geometry" />
        </mxCell>
        <mxCell id="SIL7Wq156Bd5Dtq3TkI6-499" value="&lt;b&gt;+1 pt&lt;/b&gt;&lt;br&gt;for each correct guess of other partners/loners" style="rounded=1;whiteSpace=wrap;html=1;fillColor=#d5e8d4;strokeColor=#82b366;" vertex="1" parent="SIL7Wq156Bd5Dtq3TkI6-432">
          <mxGeometry x="1071" y="340" width="310" height="70" as="geometry" />
        </mxCell>
        <mxCell id="SIL7Wq156Bd5Dtq3TkI6-500" value="&lt;b&gt;+0 pts&lt;/b&gt;" style="rounded=1;whiteSpace=wrap;html=1;fillColor=#f8cecc;strokeColor=#b85450;" vertex="1" parent="SIL7Wq156Bd5Dtq3TkI6-432">
          <mxGeometry x="911" y="40" width="120" height="60" as="geometry" />
        </mxCell>
        <mxCell id="SIL7Wq156Bd5Dtq3TkI6-501" value="&lt;b&gt;+0 pts&lt;/b&gt;" style="rounded=1;whiteSpace=wrap;html=1;fillColor=#f8cecc;strokeColor=#b85450;" vertex="1" parent="SIL7Wq156Bd5Dtq3TkI6-432">
          <mxGeometry x="911" y="140" width="120" height="60" as="geometry" />
        </mxCell>
        <mxCell id="SIL7Wq156Bd5Dtq3TkI6-502" value="&lt;font style=&quot;font-size: 18px;&quot;&gt;&lt;b&gt;Partners&lt;/b&gt;&lt;/font&gt;" style="text;html=1;align=center;verticalAlign=middle;whiteSpace=wrap;rounded=0;" vertex="1" parent="SIL7Wq156Bd5Dtq3TkI6-432">
          <mxGeometry x="861" width="60" height="30" as="geometry" />
        </mxCell>
        <mxCell id="SIL7Wq156Bd5Dtq3TkI6-503" style="edgeStyle=orthogonalEdgeStyle;rounded=0;orthogonalLoop=1;jettySize=auto;html=1;entryX=0;entryY=0.5;entryDx=0;entryDy=0;" edge="1" parent="SIL7Wq156Bd5Dtq3TkI6-432" source="SIL7Wq156Bd5Dtq3TkI6-507" target="SIL7Wq156Bd5Dtq3TkI6-518">
          <mxGeometry relative="1" as="geometry" />
        </mxCell>
        <mxCell id="SIL7Wq156Bd5Dtq3TkI6-504" value="No" style="edgeLabel;html=1;align=center;verticalAlign=middle;resizable=0;points=[];" vertex="1" connectable="0" parent="SIL7Wq156Bd5Dtq3TkI6-503">
          <mxGeometry x="0.0254" y="-1" relative="1" as="geometry">
            <mxPoint x="-3" y="-1" as="offset" />
          </mxGeometry>
        </mxCell>
        <mxCell id="SIL7Wq156Bd5Dtq3TkI6-505" style="edgeStyle=orthogonalEdgeStyle;rounded=0;orthogonalLoop=1;jettySize=auto;html=1;entryX=0.5;entryY=0;entryDx=0;entryDy=0;" edge="1" parent="SIL7Wq156Bd5Dtq3TkI6-432" source="SIL7Wq156Bd5Dtq3TkI6-507" target="SIL7Wq156Bd5Dtq3TkI6-514">
          <mxGeometry relative="1" as="geometry">
            <mxPoint x="1151" y="150" as="targetPoint" />
          </mxGeometry>
        </mxCell>
        <mxCell id="SIL7Wq156Bd5Dtq3TkI6-506" value="&lt;div&gt;Yes&lt;/div&gt;" style="edgeLabel;html=1;align=center;verticalAlign=middle;resizable=0;points=[];" vertex="1" connectable="0" parent="SIL7Wq156Bd5Dtq3TkI6-505">
          <mxGeometry x="-0.0433" relative="1" as="geometry">
            <mxPoint as="offset" />
          </mxGeometry>
        </mxCell>
        <mxCell id="SIL7Wq156Bd5Dtq3TkI6-507" value="Did you guess that you were alone?" style="rounded=1;whiteSpace=wrap;html=1;" vertex="1" parent="SIL7Wq156Bd5Dtq3TkI6-432">
          <mxGeometry x="1091" y="40" width="120" height="60" as="geometry" />
        </mxCell>
        <mxCell id="SIL7Wq156Bd5Dtq3TkI6-508" style="edgeStyle=orthogonalEdgeStyle;rounded=0;orthogonalLoop=1;jettySize=auto;html=1;entryX=0;entryY=0.5;entryDx=0;entryDy=0;" edge="1" parent="SIL7Wq156Bd5Dtq3TkI6-432" source="SIL7Wq156Bd5Dtq3TkI6-514" target="SIL7Wq156Bd5Dtq3TkI6-515">
          <mxGeometry relative="1" as="geometry" />
        </mxCell>
        <mxCell id="SIL7Wq156Bd5Dtq3TkI6-509" value="No" style="edgeLabel;html=1;align=center;verticalAlign=middle;resizable=0;points=[];" vertex="1" connectable="0" parent="SIL7Wq156Bd5Dtq3TkI6-508">
          <mxGeometry x="0.1307" relative="1" as="geometry">
            <mxPoint x="-5" as="offset" />
          </mxGeometry>
        </mxCell>
        <mxCell id="SIL7Wq156Bd5Dtq3TkI6-510" style="edgeStyle=orthogonalEdgeStyle;rounded=0;orthogonalLoop=1;jettySize=auto;html=1;exitX=0.5;exitY=1;exitDx=0;exitDy=0;entryX=0.5;entryY=0;entryDx=0;entryDy=0;" edge="1" parent="SIL7Wq156Bd5Dtq3TkI6-432" source="SIL7Wq156Bd5Dtq3TkI6-514" target="SIL7Wq156Bd5Dtq3TkI6-517">
          <mxGeometry relative="1" as="geometry" />
        </mxCell>
        <mxCell id="SIL7Wq156Bd5Dtq3TkI6-511" value="Everyone" style="edgeLabel;html=1;align=center;verticalAlign=middle;resizable=0;points=[];" vertex="1" connectable="0" parent="SIL7Wq156Bd5Dtq3TkI6-510">
          <mxGeometry x="-0.0269" relative="1" as="geometry">
            <mxPoint as="offset" />
          </mxGeometry>
        </mxCell>
        <mxCell id="SIL7Wq156Bd5Dtq3TkI6-512" style="edgeStyle=orthogonalEdgeStyle;rounded=0;orthogonalLoop=1;jettySize=auto;html=1;exitX=0.75;exitY=1;exitDx=0;exitDy=0;entryX=0.5;entryY=0;entryDx=0;entryDy=0;" edge="1" parent="SIL7Wq156Bd5Dtq3TkI6-432" source="SIL7Wq156Bd5Dtq3TkI6-514" target="SIL7Wq156Bd5Dtq3TkI6-516">
          <mxGeometry relative="1" as="geometry" />
        </mxCell>
        <mxCell id="SIL7Wq156Bd5Dtq3TkI6-513" value="Some but not all" style="edgeLabel;html=1;align=center;verticalAlign=middle;resizable=0;points=[];" vertex="1" connectable="0" parent="SIL7Wq156Bd5Dtq3TkI6-512">
          <mxGeometry x="-0.0857" relative="1" as="geometry">
            <mxPoint x="-4" as="offset" />
          </mxGeometry>
        </mxCell>
        <mxCell id="SIL7Wq156Bd5Dtq3TkI6-514" value="Did anyone else guess that you were alone?" style="rounded=1;whiteSpace=wrap;html=1;" vertex="1" parent="SIL7Wq156Bd5Dtq3TkI6-432">
          <mxGeometry x="1091" y="140" width="120" height="60" as="geometry" />
        </mxCell>
        <mxCell id="SIL7Wq156Bd5Dtq3TkI6-515" value="&lt;b&gt;+3 pts&lt;/b&gt;" style="rounded=1;whiteSpace=wrap;html=1;fillColor=#d5e8d4;strokeColor=#82b366;" vertex="1" parent="SIL7Wq156Bd5Dtq3TkI6-432">
          <mxGeometry x="1251" y="140" width="120" height="60" as="geometry" />
        </mxCell>
        <mxCell id="SIL7Wq156Bd5Dtq3TkI6-516" value="&lt;b&gt;+2 pts&lt;/b&gt;" style="rounded=1;whiteSpace=wrap;html=1;fillColor=#d5e8d4;strokeColor=#82b366;" vertex="1" parent="SIL7Wq156Bd5Dtq3TkI6-432">
          <mxGeometry x="1251" y="240" width="120" height="60" as="geometry" />
        </mxCell>
        <mxCell id="SIL7Wq156Bd5Dtq3TkI6-517" value="&lt;b&gt;+0 pts&lt;/b&gt;" style="rounded=1;whiteSpace=wrap;html=1;fillColor=#f8cecc;strokeColor=#b85450;" vertex="1" parent="SIL7Wq156Bd5Dtq3TkI6-432">
          <mxGeometry x="1091" y="240" width="120" height="60" as="geometry" />
        </mxCell>
        <mxCell id="SIL7Wq156Bd5Dtq3TkI6-518" value="&lt;b&gt;+0 pts&lt;/b&gt;" style="rounded=1;whiteSpace=wrap;html=1;fillColor=#f8cecc;strokeColor=#b85450;" vertex="1" parent="SIL7Wq156Bd5Dtq3TkI6-432">
          <mxGeometry x="1251" y="40" width="120" height="60" as="geometry" />
        </mxCell>
        <mxCell id="SIL7Wq156Bd5Dtq3TkI6-519" value="&lt;div&gt;&lt;font style=&quot;font-size: 18px;&quot;&gt;&lt;b&gt;Loners&lt;/b&gt;&lt;/font&gt;&lt;/div&gt;" style="text;html=1;align=center;verticalAlign=middle;whiteSpace=wrap;rounded=0;" vertex="1" parent="SIL7Wq156Bd5Dtq3TkI6-432">
          <mxGeometry x="1201" width="60" height="30" as="geometry" />
        </mxCell>
        <mxCell id="SIL7Wq156Bd5Dtq3TkI6-520" style="edgeStyle=orthogonalEdgeStyle;rounded=0;orthogonalLoop=1;jettySize=auto;html=1;exitX=0.5;exitY=1;exitDx=0;exitDy=0;" edge="1" parent="SIL7Wq156Bd5Dtq3TkI6-432" source="SIL7Wq156Bd5Dtq3TkI6-478" target="SIL7Wq156Bd5Dtq3TkI6-478">
          <mxGeometry relative="1" as="geometry" />
        </mxCell>
      </root>
    </mxGraphModel>
  </diagram>
</mxfile>
